<svg width="178" height="111" viewBox="0 0 178 111" fill="none" xmlns="http://www.w3.org/2000/svg">
    <path
        d="M18.9365 1.49042L5.47118 9.31908C2.08402 11.2884 0 14.9106 0 18.8287V58.909C0 62.9667 2.23383 66.6948 5.81182 68.6087L19.0689 75.6996C20.6649 76.5533 22.447 77 24.257 77H57C63.0751 77 68 81.9249 68 88V97.8409C68 100.521 68.9785 103.109 70.7518 105.119L72.2157 106.778C74.3039 109.144 77.3079 110.5 80.464 110.5H96.9566C99.5668 110.5 102.092 109.572 104.081 107.881L107.124 105.294C109.583 103.204 111 100.14 111 96.9132V88C111 81.9249 115.925 77 122 77H156.286C158.385 77 160.44 76.3996 162.208 75.2697L172.422 68.7441C175.586 66.723 177.5 63.2283 177.5 59.4744V18.2534C177.5 14.6494 175.735 11.274 172.774 9.2183L162.329 1.96493C160.487 0.685611 158.298 0 156.055 0H24.4653C22.5231 0 20.6155 0.514229 18.9365 1.49042Z"
        fill="#FF0000" />
</svg>
