<svg width="32" height="32" viewBox="0 0 32 32" fill="none" xmlns="http://www.w3.org/2000/svg">
<g clip-path="url(#clip0_5374_4234)">
<path d="M15.375 0.0562496C15.0437 0.1625 14.7062 0.375 14.4562 0.63125C13.8375 1.25625 13.675 2.18125 14.0312 3.0375C14.0812 3.1625 14.1187 3.275 14.1125 3.28125C14.1 3.2875 13.825 3.325 13.5 3.36875C10.825 3.73125 7.93745 5.0375 5.83745 6.83125C2.99995 9.2625 1.23745 12.7062 1.08745 16.125C1.04995 16.9375 1.0562 16.975 1.1937 17.1812C1.27495 17.3 1.4437 17.4437 1.56245 17.5062C1.7687 17.6187 1.9937 17.625 5.22495 17.625H8.67495L8.58745 17.9187C8.47495 18.2937 8.47495 18.65 8.5937 19.0375C8.6437 19.2063 8.68745 19.35 8.68745 19.35C8.68745 19.3562 8.4687 19.275 8.2062 19.175C6.77495 18.6187 5.0187 18.4937 3.6562 18.8438C3.1812 18.9688 2.97495 19.1625 2.8562 19.6125C2.4062 21.2437 2.6562 23.2562 3.5312 24.9938L3.81245 25.5625H2.6062C1.24995 25.5625 0.968701 25.6125 0.568702 25.9313C-0.168798 26.5187 -0.206298 27.7625 0.499952 28.4C0.631202 28.5125 0.837452 28.65 0.968701 28.6937C1.1812 28.775 1.2312 28.85 1.7312 29.825C2.34995 31.05 2.6687 31.425 3.3562 31.7625L3.7812 31.9688H16H28.2187L28.6437 31.7625C29.3312 31.425 29.65 31.05 30.2687 29.825C30.7687 28.85 30.8187 28.775 31.0312 28.6937C31.1624 28.65 31.3687 28.5125 31.4999 28.4C32.2062 27.7625 32.1687 26.5187 31.4312 25.9313C31.0937 25.6625 30.7062 25.5625 30.025 25.5625H29.4437L29.5374 25.2937C29.7999 24.5437 29.7562 23.6625 29.4062 22.9625C28.9062 21.9437 27.9 21.3125 26.7812 21.3125H26.4062L26.2937 21.0062C26.0749 20.3875 25.4 19.6875 24.7687 19.425C24.4687 19.3062 24.4312 19.2625 24.3437 19C24.2249 18.65 23.8687 18.0375 23.6374 17.7937L23.4749 17.625H26.8499C30.0124 17.625 30.2312 17.6187 30.4374 17.5062C30.8249 17.3062 30.9374 17.0625 30.9374 16.4437C30.9312 14.6938 30.2937 12.4375 29.3062 10.6562C27.6687 7.7125 24.9 5.375 21.6 4.15625C20.8062 3.8625 19.2624 3.475 18.5 3.36875C18.1749 3.325 17.9 3.2875 17.8874 3.28125C17.8812 3.275 17.9187 3.1625 17.9687 3.0375C18.4312 1.9375 18.0062 0.737499 16.9687 0.199999C16.7125 0.0687504 16.5562 0.0375004 16.0937 0.0187492C15.7874 0.0124989 15.4625 0.0249996 15.375 0.0562496ZM16.4937 1.25625C16.775 1.425 16.9187 1.60625 16.9874 1.89375C17.2125 2.75 16.2374 3.475 15.4875 3.0125C14.5999 2.4625 14.9625 1.125 16 1.125C16.1749 1.125 16.3624 1.175 16.4937 1.25625ZM18.25 4.4625C19.2437 4.63125 19.9937 4.81875 20.8437 5.10625C25.125 6.575 28.3562 9.91875 29.4312 14C29.6249 14.7312 29.8124 15.8625 29.8124 16.275V16.5H16H2.18745V16.275C2.18745 15.8625 2.37495 14.7312 2.5687 14C3.81245 9.275 7.9312 5.5875 13.0812 4.59375C13.5375 4.50625 14.1312 4.40625 14.4062 4.375C15.1562 4.29375 17.5499 4.35 18.25 4.4625ZM14.3312 17.7188C14.6687 17.8562 14.875 18.1438 14.875 18.4688V18.7437L14.5187 18.8438C13.4125 19.1687 12.3375 19.9062 11.7187 20.775C11.5812 20.9625 11.45 21.125 11.4312 21.125C11.4062 21.125 11.2062 20.9688 10.975 20.7812C10.7437 20.5938 10.3875 20.3375 10.1812 20.2063L9.8062 19.9688L9.8437 19.6875C9.86245 19.5062 9.83745 19.2625 9.7687 19.0312C9.56245 18.3125 9.6687 17.9625 10.1437 17.7437C10.3812 17.6375 10.575 17.625 12.2562 17.625C13.7437 17.625 14.15 17.6438 14.3312 17.7188ZM18.0625 17.6625C18.0625 17.6875 17.975 17.8 17.875 17.9187C17.7687 18.0375 17.6 18.2812 17.4937 18.4688C17.3062 18.8 17.3062 18.8 17.0749 18.75C16.9499 18.7188 16.6562 18.6812 16.4312 18.6562L16.0124 18.6125L15.9875 18.225C15.9687 18.0188 15.9375 17.7937 15.9062 17.7312C15.8625 17.6312 15.9375 17.625 16.9625 17.625C17.5687 17.625 18.0625 17.6438 18.0625 17.6625ZM21.7062 17.8125C22.1625 17.9875 22.6437 18.3687 22.9562 18.8125L23.1937 19.1562L22.7687 19.2875C22.5374 19.3562 22.2562 19.4625 22.1437 19.5188C21.9562 19.6187 21.9375 19.6187 21.6062 19.4688C20.9312 19.1562 19.975 19.1062 19.2374 19.3438C18.8874 19.4563 18.875 19.4563 18.6562 19.3375C18.5375 19.275 18.4375 19.1875 18.4375 19.15C18.4375 19.1125 18.525 18.9563 18.6312 18.7937C19.2937 17.7937 20.5749 17.3875 21.7062 17.8125ZM6.2687 19.8438C7.7062 20.0625 9.2437 20.8 10.4937 21.875L10.9187 22.2375L10.8 22.7C10.6312 23.35 10.5937 24.2312 10.7062 24.8438C10.7562 25.1188 10.8187 25.3937 10.8437 25.45C10.8875 25.5563 10.725 25.5625 8.0437 25.5625H5.19995L4.94995 25.1687C4.0812 23.8313 3.6437 22.1562 3.79995 20.7625C3.9062 19.8625 3.8687 19.9062 4.57495 19.8187C5.1937 19.7375 5.6062 19.7437 6.2687 19.8438ZM17.1625 19.9437C17.9062 20.1687 18.4187 20.4812 18.9687 21.0312C19.525 21.5875 19.8312 22.0938 20.0687 22.875C20.2687 23.5188 20.2687 24.4625 20.0749 25.1062L19.9312 25.5625H16H12.0687L11.925 25.1062C11.7312 24.4625 11.7312 23.5188 11.9312 22.875C12.1687 22.0938 12.475 21.5875 13.0312 21.025C13.4562 20.6 13.6375 20.4688 14.1312 20.2312C14.4562 20.075 14.875 19.9187 15.0625 19.8812C15.25 19.8438 15.4625 19.8 15.5312 19.7875C15.7937 19.725 16.75 19.8125 17.1625 19.9437ZM20.85 20.4062C21.0187 20.4563 21.2937 20.5813 21.4562 20.6875C21.8562 20.9437 22.1062 20.9375 22.5062 20.6562C22.9062 20.3812 23.2437 20.2875 23.7187 20.3313C24.5687 20.3938 25.2562 21.0562 25.3562 21.8938C25.3874 22.1375 25.4437 22.2625 25.5749 22.3938C25.7312 22.5562 25.7812 22.5687 26.0187 22.5375C26.8125 22.4187 27.025 22.425 27.3874 22.5625C28.0812 22.8187 28.5625 23.5 28.5625 24.225C28.5625 24.675 28.4812 24.9313 28.2374 25.2937L28.0562 25.5625H24.5812C21.3062 25.5625 21.1124 25.5563 21.1562 25.4562C21.3812 24.8562 21.4062 23.4375 21.1937 22.6562C21.025 22.0188 20.6625 21.275 20.25 20.7312L19.9312 20.3125H20.2374C20.4062 20.3125 20.6812 20.3562 20.85 20.4062ZM30.7562 26.8688C30.9312 27.0875 30.9124 27.4 30.7125 27.5563L30.5437 27.6875H16H1.4562L1.28745 27.5563C1.02495 27.35 1.08745 26.875 1.3937 26.75C1.47495 26.7188 7.77495 26.7 16.0812 26.7062L30.6374 26.7188L30.7562 26.8688ZM29.15 29.5062C28.7687 30.2563 28.5 30.575 28.0999 30.7563C27.8499 30.8687 27.4187 30.875 16 30.875C4.5812 30.875 4.14995 30.8687 3.89995 30.7563C3.49995 30.575 3.2312 30.2563 2.84995 29.5062L2.4937 28.8125H16H29.5062L29.15 29.5062Z" fill="#26C4F8"/>
<path d="M5.05571 20.8437C4.85571 20.9562 4.73071 21.2375 4.78696 21.4625C4.81196 21.5625 5.09946 21.8812 5.52446 22.275C7.11196 23.75 7.97446 24.5062 8.11196 24.5375C8.30571 24.5875 8.54321 24.5187 8.68696 24.375C8.84946 24.2125 8.85571 23.8125 8.70571 23.6375C8.43071 23.325 5.66196 20.8625 5.52446 20.8062C5.31821 20.7312 5.24946 20.7375 5.05571 20.8437Z" fill="#26C4F8"/>
</g>
<defs>
<clipPath id="clip0_5374_4234">
<rect width="32" height="32" fill="white"/>
</clipPath>
</defs>
</svg>
