<svg width="32" height="32" viewBox="0 0 32 32" fill="none" xmlns="http://www.w3.org/2000/svg">
<path d="M19.6364 6.66675C20.8413 6.66675 21.8181 5.77132 21.8181 4.66675C21.8181 3.56217 20.8413 2.66675 19.6364 2.66675H12.3636C11.1587 2.66675 10.1818 3.56217 10.1818 4.66675C10.1818 5.77132 11.1587 6.66675 12.3636 6.66675M20.3279 6.56423C22.4885 10.5255 24 13.8365 24 18.3695V24.0001C24 28.4125 22.9953 29.3334 18.1819 29.3334H13.8181C9.0046 29.3334 8 28.4125 8 24.0001V18.3695C8 13.8365 9.47565 10.5142 11.6364 6.55295" stroke="#26C4F8" stroke-width="1.5" stroke-linecap="round" stroke-linejoin="round"/>
<path d="M8 16C8.76191 16.6667 10.7894 16.6348 11.9791 16.3719C12.8086 16.1887 13.7024 16.4036 14.2645 17.0185L15.364 18.2211C15.9964 18.9128 16.9551 19.2412 17.8993 19.0897L19.2908 18.8665C20.0563 18.7437 20.8176 19.0539 21.3387 19.6073C22.9635 21.3333 24 21.3333 24 21.3333" stroke="#26C4F8" stroke-width="1.5" stroke-linejoin="round"/>
</svg>
