<svg width="17" height="32" viewBox="0 0 17 32" fill="none" xmlns="http://www.w3.org/2000/svg">
<path d="M11.1081 0.145323C9.56472 0.670186 8.70869 2.21978 9.07735 3.80686C9.6272 6.13126 12.5139 6.98103 14.2447 5.32522C14.6446 4.94407 14.8696 4.60041 15.0445 4.09429C15.6069 2.45722 14.6946 0.632695 13.0638 0.126578C12.489 -0.0483761 11.6517 -0.0421281 11.1081 0.145323Z" fill="#26C4F8"/>
<path d="M7.96708 6.28133C6.10507 6.63748 4.6492 7.69346 3.80567 9.31178C3.28705 10.3053 3.04337 11.2613 2.9184 12.7109C2.83092 13.7981 2.88091 14.5417 3.07461 14.8228C3.78068 15.8788 5.30528 15.2227 5.15532 13.9231C5.09908 13.4857 5.2178 12.186 5.36151 11.5737C5.53022 10.8739 5.90512 10.0991 6.26752 9.71168C6.47997 9.48674 6.54245 9.443 6.51746 9.54922C6.29877 10.3365 6.09882 11.2425 6.01134 11.8236C5.81139 13.0983 5.88637 15.8288 6.14256 16.6974C6.24878 17.0723 6.51746 17.6096 6.67992 17.7846C6.83613 17.947 6.83613 18.2469 6.67367 19.078C6.25503 21.2399 5.19281 22.7833 3.59322 23.5581C3.03087 23.8267 2.41228 24.0079 1.60624 24.1516C0.968911 24.2641 0.594009 24.4766 0.319081 24.8952C0.05665 25.2826 -0.0370754 25.6263 0.0129115 26.0761C0.0753951 26.7072 0.425304 27.1946 1.0189 27.4695C1.41879 27.657 1.90617 27.6632 2.75594 27.4883C5.73016 26.8884 7.96708 25.1639 9.22925 22.4958L9.53542 21.846L9.64164 22.0897C10.7039 24.6015 11.3287 27.1009 11.6099 29.9939C11.6849 30.7874 11.8161 31.1561 12.1285 31.4872C12.7596 32.1496 13.928 32.1745 14.6028 31.5372C15.1152 31.0498 15.1964 30.55 15.009 28.9441C14.5279 24.7515 13.172 20.6713 11.26 17.6783L10.9975 17.2597L10.9475 15.9788L10.9038 14.6916L10.6539 14.5229C10.3102 14.298 9.65414 13.6169 9.35422 13.1795C8.60441 12.0736 8.15453 10.6677 8.0733 9.17432C8.02331 8.28705 8.0983 8.01837 8.51694 7.63097C8.94807 7.23733 9.49793 7.1561 10.0103 7.41228C10.5602 7.69346 10.7289 8.03712 10.7976 8.99936C10.8226 9.39926 10.8976 9.92412 10.9538 10.1616C11.0725 10.6302 11.3599 11.3175 11.3974 11.2175C11.4912 10.9676 11.8598 8.90564 11.8598 8.63071C11.8536 7.59348 11.3724 6.68747 10.6539 6.3688C10.3727 6.24384 10.2102 6.22509 9.39171 6.21259C8.76062 6.2001 8.29824 6.21884 7.96708 6.28133Z" fill="#26C4F8"/>
<path d="M8.95374 7.58735C8.72255 7.69357 8.45387 7.97474 8.36639 8.20593C8.27891 8.43088 8.27891 9.31814 8.36639 9.89299C8.93499 13.7045 11.4781 15.729 15.2458 15.3791C15.8644 15.3228 16.1519 15.2728 16.358 15.1666C17.1266 14.7855 17.1828 13.7607 16.4643 13.2234C16.2706 13.0797 16.3643 13.0859 14.5773 13.1296C13.2401 13.1609 12.5216 12.9172 11.7905 12.1924C11.0782 11.4801 10.6408 10.3679 10.5721 9.0932C10.5283 8.38714 10.4721 8.14345 10.2846 7.89976C10.0097 7.5561 9.36613 7.40614 8.95374 7.58735Z" fill="#26C4F8"/>
</svg>
