<svg width="32" height="32" viewBox="0 0 32 32" fill="none" xmlns="http://www.w3.org/2000/svg">
<g clip-path="url(#clip0_5374_4846)">
<path d="M23.975 1.125C24.5812 1.25 25.1062 1.63125 25.3625 2.15C25.575 2.56875 25.625 3.01875 25.625 4.5125V5.875H25.125H24.625V4.45C24.6187 2.66875 24.5562 2.45 23.9688 2.18125C23.7312 2.06875 23.3563 2.0625 16 2.0625C8.64375 2.0625 8.26875 2.06875 8.03125 2.18125C7.44375 2.45 7.38125 2.66875 7.375 4.45V5.875H6.86875H6.3625L6.3875 4.2625C6.40625 2.65625 6.40625 2.65625 6.5875 2.275C6.875 1.64375 7.36875 1.25625 8.05625 1.125C8.4625 1.05 23.5875 1.05 23.975 1.125Z" fill="#26C4F8"/>
<path d="M28.3125 4.70622L28.4688 4.78747L28.4875 5.92497L28.5 7.06247H28.8438H29.1875V7.56247V8.06247H30.5938H32V8.34372V8.62497H30.5938H29.1875V9.12497V9.62497H28.8438H28.5V10.7125C28.5 11.6187 28.4813 11.8187 28.4 11.9C28.2875 12.0187 27.8688 12.0312 27.7625 11.925C27.7062 11.8687 27.6687 11.8687 27.6125 11.925C27.5062 12.0312 27.0875 12.0187 26.9812 11.9062C26.9 11.825 26.8812 11.825 26.8125 11.9062C26.7062 12.0312 26.2875 12.025 26.1813 11.9C26.1125 11.8187 26.1 11.125 26.0938 8.33122V4.86247L26.2438 4.74372C26.425 4.59997 26.5563 4.59372 26.7312 4.71872C26.85 4.79997 26.8812 4.79997 27.0437 4.71872C27.2625 4.60622 27.3 4.60622 27.5125 4.71247C27.6625 4.79372 27.7125 4.79372 27.8562 4.71247C28.0687 4.60622 28.1125 4.60622 28.3125 4.70622Z" fill="#26C4F8"/>
<path d="M5.75625 4.74372L5.90625 4.86247L5.9 8.33122C5.9 11.1 5.88125 11.825 5.81875 11.9C5.7125 12.025 5.29375 12.0312 5.1875 11.9062C5.11875 11.825 5.1 11.825 5.01875 11.9062C4.9125 12.0187 4.49375 12.0312 4.3875 11.925C4.33125 11.8687 4.29375 11.8687 4.2375 11.925C4.13125 12.0312 3.7125 12.0187 3.6 11.9C3.51875 11.8187 3.5 11.6187 3.5 10.7125V9.62497H3.15625H2.8125V9.12497V8.62497H1.40625H0V8.34372V8.06247H1.40625H2.8125V7.56247V7.06247H3.15625H3.5V5.94372C3.5 5.12497 3.51875 4.81247 3.575 4.76247C3.7375 4.63747 3.9375 4.61872 4.125 4.71247C4.2875 4.79372 4.3375 4.79372 4.4875 4.71247C4.7 4.60622 4.7375 4.60622 4.95625 4.71872C5.11875 4.79997 5.15 4.79997 5.26875 4.71872C5.44375 4.59372 5.575 4.59997 5.75625 4.74372Z" fill="#26C4F8"/>
<path d="M25.8303 6.17504C25.9241 6.28129 25.9366 6.52504 25.9366 8.36254C25.9366 10.8688 25.9991 10.6875 25.0928 10.6875C24.5366 10.6875 24.4803 10.675 24.3366 10.5313L24.1803 10.375L24.1991 8.30629C24.2178 6.34379 24.2241 6.23754 24.3366 6.15004C24.4241 6.08754 24.6428 6.06254 25.0928 6.06254C25.6303 6.06254 25.7428 6.08129 25.8303 6.17504ZM24.9491 6.58129C24.9241 6.70629 25.1053 6.79379 25.1991 6.70004C25.2928 6.60629 25.2053 6.42504 25.0803 6.45004C25.0178 6.46254 24.9616 6.51879 24.9491 6.58129ZM24.9491 8.36254C24.9303 8.46254 24.9616 8.50004 25.0553 8.50004C25.2178 8.50004 25.2803 8.39379 25.1803 8.27504C25.0803 8.15629 24.9741 8.19379 24.9491 8.36254ZM24.9366 10.1188C24.9366 10.2875 25.0553 10.3438 25.1678 10.2313C25.2803 10.1188 25.2241 10 25.0553 10C24.9803 10 24.9366 10.0438 24.9366 10.1188Z" fill="#26C4F8"/>
<path d="M7.64282 6.17505C7.73657 6.2813 7.74907 6.52505 7.74907 8.36255C7.74907 10.8625 7.81157 10.6875 6.91157 10.6875C6.43032 10.6875 6.29907 10.6688 6.18032 10.5688L6.03032 10.45L6.01157 8.48755C5.99907 7.41255 6.01157 6.4688 6.03032 6.3938C6.09907 6.1063 6.21782 6.06255 6.89907 6.06255C7.44282 6.06255 7.55532 6.0813 7.64282 6.17505ZM6.76157 6.5813C6.73657 6.7063 6.91782 6.7938 7.01157 6.70005C7.10532 6.6063 7.01782 6.42505 6.89282 6.45005C6.83032 6.46255 6.77407 6.5188 6.76157 6.5813ZM6.76157 8.36255C6.74282 8.46255 6.77407 8.50005 6.86782 8.50005C7.03032 8.50005 7.09282 8.3938 6.99282 8.27505C6.89282 8.1563 6.78657 8.1938 6.76157 8.36255ZM6.74907 10.1188C6.74907 10.2875 6.86782 10.3438 6.98032 10.2313C7.09282 10.1188 7.03657 10 6.86782 10C6.79282 10 6.74907 10.0438 6.74907 10.1188Z" fill="#26C4F8"/>
<path d="M21.5187 7.9C21.75 8.0625 21.7687 8.0625 22.9062 8.0625H24.0625V8.34375V8.625H16H7.9375V8.34375V8.0625H9.09375C10.2312 8.0625 10.25 8.0625 10.4812 7.9C10.675 7.76875 10.7688 7.74375 10.9937 7.76875C11.1375 7.7875 11.3438 7.85625 11.4437 7.93125C11.6187 8.0625 11.6438 8.0625 16 8.0625C20.3563 8.0625 20.3812 8.0625 20.5562 7.93125C20.6562 7.85625 20.8625 7.7875 21.0062 7.76875C21.2313 7.74375 21.325 7.76875 21.5187 7.9Z" fill="#26C4F8"/>
<path d="M21.7875 8.85621C21.7687 8.91871 21.2188 10.7125 20.5688 12.8437C19.9188 14.975 19.3563 16.7937 19.3187 16.8812C19.2875 16.975 19.1 17.1812 18.9125 17.35L18.5625 17.65V20.2625V22.875L18.7 22.9062C18.7812 22.925 19.1187 22.9937 19.4562 23.0625C19.7938 23.1312 20.1125 23.2125 20.175 23.2437C20.3438 23.3375 20.6125 23.6437 20.6812 23.825C20.8062 24.1562 22 29.4 22 29.6125C22 29.9312 21.7687 30.3562 21.5062 30.5375C20.9125 30.9312 20.0312 30.7 19.775 30.0875C19.7313 29.9812 19.4625 28.9062 19.1875 27.7125C18.9125 26.5125 18.6625 25.475 18.6375 25.4125C18.5938 25.3125 18.375 25.25 17.3688 25.05C16.7 24.9187 16.1125 24.8062 16.0625 24.8C16.0125 24.7875 15.3937 24.8937 14.6937 25.0312C13.6187 25.2437 13.4125 25.3 13.3687 25.4062C13.3375 25.475 13.0875 26.5125 12.8125 27.7125C12.5375 28.9062 12.2688 29.9812 12.225 30.0875C11.9688 30.7 11.0875 30.9312 10.4937 30.5375C10.2312 30.3562 10 29.9312 10 29.6125C10 29.4 11.1937 24.1562 11.3187 23.825C11.3875 23.6437 11.6562 23.3375 11.825 23.2437C11.8875 23.2125 12.2063 23.1312 12.5437 23.0625C12.8812 22.9937 13.2188 22.925 13.2937 22.9062L13.4375 22.875V20.2625V17.65L13.0875 17.35C12.9 17.1812 12.7125 16.975 12.6812 16.8812C12.6438 16.7937 12.0813 14.975 11.4312 12.8437C10.7812 10.7125 10.2312 8.91871 10.2125 8.85621C10.1812 8.75621 10.2375 8.74996 11 8.76246L11.825 8.78121L12.9437 12.4375C13.9125 15.6 14.0875 16.1125 14.2438 16.2687L14.4187 16.45H16H17.5812L17.7562 16.2687C17.9125 16.1125 18.0875 15.5937 19.0562 12.4375L20.175 8.78121L21 8.76246C21.7625 8.74996 21.8187 8.75621 21.7875 8.85621Z" fill="#26C4F8"/>
<path d="M25.625 20.375V29.9375H26.0937H26.5625V30.4375V30.9375H25.0937H23.625V30.4375V29.9375H24.125H24.625V20.375V10.8125H25.125H25.625V20.375Z" fill="#26C4F8"/>
<path d="M7.375 20.375V29.9375H7.875H8.375V30.4375V30.9375H6.90625H5.4375V30.4375V29.9375H5.90625H6.375V20.375V10.8125H6.875H7.375V20.375Z" fill="#26C4F8"/>
<path d="M16.4937 12.0687C17.0688 12.1812 17.6562 12.6625 17.9312 13.2437C18.0687 13.5375 18.0938 13.6812 18.0938 14.1562C18.0938 14.6437 18.0687 14.7625 17.9188 15.0687C17.725 15.4625 17.3375 15.8562 16.925 16.0687C16.5187 16.2812 15.7125 16.3062 15.2375 16.125C13.6625 15.5375 13.3937 13.3562 14.775 12.4062C15.2812 12.0562 15.8625 11.9437 16.4937 12.0687Z" fill="#26C4F8"/>
<path d="M17.2191 25.2438C17.8379 25.3688 18.3754 25.4875 18.4129 25.5125C18.4566 25.5375 18.5066 25.6625 18.5254 25.7875C18.5504 25.9063 18.5879 26.05 18.6066 26.1C18.6316 26.175 18.4691 26.1875 17.5691 26.1875H16.5004V27.75V29.3125H17.9254H19.3504L19.4441 29.7C19.5004 29.9188 19.5629 30.1438 19.5879 30.2C19.6379 30.3063 19.4441 30.3125 16.0004 30.3125C12.5566 30.3125 12.3629 30.3063 12.4129 30.2C12.4379 30.1438 12.5004 29.9188 12.5566 29.7L12.6504 29.3125H14.0754H15.5004V27.75V26.1875H14.4316C13.5316 26.1875 13.3691 26.175 13.3941 26.1C13.4129 26.05 13.4504 25.9125 13.4691 25.7875C13.4941 25.6688 13.5441 25.5438 13.5879 25.5125C13.6441 25.4625 15.9754 24.9875 16.0629 25.0063C16.0816 25.0125 16.6004 25.1188 17.2191 25.2438Z" fill="#26C4F8"/>
<path d="M19.5 30.5312C19.5 30.675 19.475 30.6875 19.2188 30.6875C18.9625 30.6875 18.9375 30.675 18.9375 30.5312C18.9375 30.3875 18.9625 30.375 19.2188 30.375C19.475 30.375 19.5 30.3875 19.5 30.5312Z" fill="#26C4F8"/>
<path d="M13.0625 30.5312C13.0625 30.675 13.0375 30.6875 12.7813 30.6875C12.525 30.6875 12.5 30.675 12.5 30.5312C12.5 30.3875 12.525 30.375 12.7813 30.375C13.0375 30.375 13.0625 30.3875 13.0625 30.5312Z" fill="#26C4F8"/>
</g>
<defs>
<clipPath id="clip0_5374_4846">
<rect width="32" height="32" fill="white" transform="matrix(-1 0 0 1 32 0)"/>
</clipPath>
</defs>
</svg>
