<svg width="18" height="20" viewBox="0 0 18 20" fill="none" xmlns="http://www.w3.org/2000/svg">
<path d="M4.03702 5.08912C5.04763 3.85986 6.00146 2.74124 6.32083 1.36447C6.32083 1.36447 6.32083 1.36447 6.32083 1.33579C5.99297 1.0138 5.61721 0.737787 5.2052 0.516288C5.16522 0.490447 5.1187 0.474794 5.0703 0.470866C5.0219 0.466938 4.97323 0.47487 4.9291 0.493884C4.88496 0.512898 4.84696 0.54234 4.81866 0.579314C4.79035 0.616289 4.77278 0.659525 4.76771 0.704775C4.72043 0.964646 4.65755 1.22183 4.57951 1.47511C4.44264 1.89536 4.22956 2.29039 3.94955 2.6429C3.42456 3.3026 2.77707 3.89674 2.19958 4.52366C0.825854 6.01926 -0.228472 7.86724 0.0427734 9.89961C0.122812 10.5067 0.323154 11.0946 0.63343 11.6329C0.968232 9.73526 1.77608 7.93835 2.99147 6.38804C3.32396 5.9455 3.68703 5.51117 4.03702 5.08912Z" fill="#FF7700"/>
<path d="M16.2737 5.82668C16.2623 5.82323 16.2501 5.82323 16.2387 5.82668C16.2413 6.10319 16.2046 6.37879 16.1293 6.64618C16.0367 6.90063 15.8876 7.13383 15.6918 7.33046C15.5284 7.50831 15.3274 7.65255 15.1015 7.75409C14.8756 7.85564 14.6297 7.9123 14.3793 7.92051C13.9872 7.91671 13.6091 7.78319 13.3119 7.54354C12.4063 6.83876 12.2269 5.63409 11.9644 4.6261C11.6968 3.61101 11.182 2.66772 10.4602 1.87011C9.73837 1.0725 8.82915 0.44224 7.80383 0.0286828C7.76142 0.00990954 7.71509 0.000116748 7.66819 2.99467e-07C7.58295 -0.000110339 7.50095 0.0304396 7.43908 0.0853413C7.3772 0.140243 7.34017 0.215304 7.33569 0.295022C7.30214 0.715897 7.24229 1.13456 7.15635 1.54886C6.67511 3.6386 4.96893 5.18336 3.69145 6.87564C2.23023 8.82196 1.20646 11.1985 1.46896 13.6161C1.7927 16.6032 4.05014 18.7871 6.81072 19.7623C6.29745 19.4138 5.86876 18.9674 5.55282 18.4526C5.23689 17.9377 5.04088 17.3661 4.97765 16.7753C4.89472 15.3526 5.3467 13.9476 6.25509 12.8048C6.98133 11.8091 7.96571 10.8994 8.2457 9.67015C8.29581 9.42653 8.32941 9.18019 8.34632 8.9326C8.34714 8.90291 8.35584 8.87387 8.37153 8.84807C8.38722 8.82226 8.40941 8.80048 8.43625 8.78467C8.46309 8.76886 8.4937 8.7595 8.52533 8.75743C8.55696 8.75536 8.58869 8.76063 8.61762 8.77279C9.20867 9.02362 9.73021 9.3983 10.1421 9.86791C10.554 10.3375 10.8452 10.8895 10.9932 11.4813C11.1419 12.0713 11.2469 12.7843 11.7675 13.1981C12.485 13.7677 13.4343 13.1571 13.4387 12.3335V12.2475L13.4781 12.1942C13.5753 12.3386 13.6615 12.4893 13.7362 12.6449V12.6654C14.1704 13.5289 14.4154 14.4651 14.4567 15.4187C14.498 16.3723 14.3349 17.324 13.9769 18.2176C13.809 18.6033 13.5788 18.9626 13.2944 19.2829C13.0494 19.5556 12.7669 19.7968 12.4543 20C13.816 19.6231 15.0317 18.8844 15.9543 17.8734C16.4487 17.3303 16.8516 16.7195 17.1487 16.0623C17.4115 15.4767 17.6137 14.8689 17.7524 14.2471C17.8916 13.6183 17.9721 12.9795 17.993 12.3376C18.0156 11.6916 17.9834 11.0449 17.8968 10.4036C17.812 9.76495 17.6745 9.1334 17.4855 8.51465C17.3009 7.9049 17.064 7.31018 16.7768 6.73632C16.698 6.58472 16.6149 6.42491 16.5318 6.27331L16.3961 6.03155C16.3718 5.95568 16.3301 5.88574 16.2737 5.82668Z" fill="#FF7700"/>
</svg>
