<svg width="48" height="48" viewBox="0 0 48 48" fill="none" xmlns="http://www.w3.org/2000/svg">
<rect x="0.5" y="0.5" width="47" height="47" rx="23.5" stroke="#26C4F8"/>
<g clip-path="url(#clip0_5374_4233)">
<path d="M23.375 8.05625C23.0437 8.1625 22.7062 8.375 22.4562 8.63125C21.8375 9.25625 21.675 10.1812 22.0312 11.0375C22.0812 11.1625 22.1187 11.275 22.1125 11.2812C22.1 11.2875 21.825 11.325 21.5 11.3687C18.825 11.7312 15.9375 13.0375 13.8375 14.8312C11 17.2625 9.23745 20.7062 9.08745 24.125C9.04995 24.9375 9.0562 24.975 9.1937 25.1812C9.27495 25.3 9.4437 25.4437 9.56245 25.5062C9.7687 25.6187 9.9937 25.625 13.225 25.625H16.675L16.5875 25.9187C16.475 26.2937 16.475 26.65 16.5937 27.0375C16.6437 27.2063 16.6875 27.35 16.6875 27.35C16.6875 27.3562 16.4687 27.275 16.2062 27.175C14.775 26.6187 13.0187 26.4937 11.6562 26.8438C11.1812 26.9688 10.975 27.1625 10.8562 27.6125C10.4062 29.2437 10.6562 31.2562 11.5312 32.9938L11.8125 33.5625H10.6062C9.24995 33.5625 8.9687 33.6125 8.5687 33.9313C7.8312 34.5187 7.7937 35.7625 8.49995 36.4C8.6312 36.5125 8.83745 36.65 8.9687 36.6937C9.1812 36.775 9.2312 36.85 9.7312 37.825C10.35 39.05 10.6687 39.425 11.3562 39.7625L11.7812 39.9688H24H36.2187L36.6437 39.7625C37.3312 39.425 37.65 39.05 38.2687 37.825C38.7687 36.85 38.8187 36.775 39.0312 36.6937C39.1624 36.65 39.3687 36.5125 39.4999 36.4C40.2062 35.7625 40.1687 34.5187 39.4312 33.9313C39.0937 33.6625 38.7062 33.5625 38.025 33.5625H37.4437L37.5374 33.2937C37.7999 32.5437 37.7562 31.6625 37.4062 30.9625C36.9062 29.9437 35.9 29.3125 34.7812 29.3125H34.4062L34.2937 29.0062C34.0749 28.3875 33.4 27.6875 32.7687 27.425C32.4687 27.3062 32.4312 27.2625 32.3437 27C32.2249 26.65 31.8687 26.0375 31.6374 25.7937L31.4749 25.625H34.8499C38.0124 25.625 38.2312 25.6187 38.4374 25.5062C38.8249 25.3062 38.9374 25.0625 38.9374 24.4437C38.9312 22.6938 38.2937 20.4375 37.3062 18.6562C35.6687 15.7125 32.9 13.375 29.6 12.1562C28.8062 11.8625 27.2624 11.475 26.5 11.3687C26.1749 11.325 25.9 11.2875 25.8874 11.2812C25.8812 11.275 25.9187 11.1625 25.9687 11.0375C26.4312 9.9375 26.0062 8.7375 24.9687 8.2C24.7125 8.06875 24.5562 8.0375 24.0937 8.01875C23.7874 8.0125 23.4625 8.025 23.375 8.05625ZM24.4937 9.25625C24.775 9.425 24.9187 9.60625 24.9874 9.89375C25.2125 10.75 24.2374 11.475 23.4875 11.0125C22.5999 10.4625 22.9625 9.125 24 9.125C24.1749 9.125 24.3624 9.175 24.4937 9.25625ZM26.25 12.4625C27.2437 12.6313 27.9937 12.8188 28.8437 13.1062C33.125 14.575 36.3562 17.9187 37.4312 22C37.6249 22.7312 37.8124 23.8625 37.8124 24.275V24.5H24H10.1875V24.275C10.1875 23.8625 10.375 22.7312 10.5687 22C11.8125 17.275 15.9312 13.5875 21.0812 12.5938C21.5375 12.5063 22.1312 12.4062 22.4062 12.375C23.1562 12.2937 25.5499 12.35 26.25 12.4625ZM22.3312 25.7188C22.6687 25.8562 22.875 26.1438 22.875 26.4688V26.7437L22.5187 26.8438C21.4125 27.1687 20.3375 27.9062 19.7187 28.775C19.5812 28.9625 19.45 29.125 19.4312 29.125C19.4062 29.125 19.2062 28.9688 18.975 28.7812C18.7437 28.5938 18.3875 28.3375 18.1812 28.2063L17.8062 27.9688L17.8437 27.6875C17.8625 27.5062 17.8375 27.2625 17.7687 27.0312C17.5625 26.3125 17.6687 25.9625 18.1437 25.7437C18.3812 25.6375 18.575 25.625 20.2562 25.625C21.7437 25.625 22.15 25.6438 22.3312 25.7188ZM26.0625 25.6625C26.0625 25.6875 25.975 25.8 25.875 25.9187C25.7687 26.0375 25.6 26.2812 25.4937 26.4688C25.3062 26.8 25.3062 26.8 25.0749 26.75C24.9499 26.7188 24.6562 26.6812 24.4312 26.6562L24.0124 26.6125L23.9875 26.225C23.9687 26.0188 23.9375 25.7937 23.9062 25.7312C23.8625 25.6312 23.9375 25.625 24.9625 25.625C25.5687 25.625 26.0625 25.6438 26.0625 25.6625ZM29.7062 25.8125C30.1625 25.9875 30.6437 26.3687 30.9562 26.8125L31.1937 27.1562L30.7687 27.2875C30.5374 27.3562 30.2562 27.4625 30.1437 27.5188C29.9562 27.6187 29.9375 27.6187 29.6062 27.4688C28.9312 27.1562 27.975 27.1062 27.2374 27.3438C26.8874 27.4563 26.875 27.4563 26.6562 27.3375C26.5375 27.275 26.4375 27.1875 26.4375 27.15C26.4375 27.1125 26.525 26.9563 26.6312 26.7937C27.2937 25.7937 28.5749 25.3875 29.7062 25.8125ZM14.2687 27.8438C15.7062 28.0625 17.2437 28.8 18.4937 29.875L18.9187 30.2375L18.8 30.7C18.6312 31.35 18.5937 32.2312 18.7062 32.8438C18.7562 33.1188 18.8187 33.3937 18.8437 33.45C18.8875 33.5563 18.725 33.5625 16.0437 33.5625H13.2L12.95 33.1687C12.0812 31.8313 11.6437 30.1562 11.8 28.7625C11.9062 27.8625 11.8687 27.9062 12.575 27.8187C13.1937 27.7375 13.6062 27.7437 14.2687 27.8438ZM25.1625 27.9437C25.9062 28.1687 26.4187 28.4812 26.9687 29.0312C27.525 29.5875 27.8312 30.0938 28.0687 30.875C28.2687 31.5188 28.2687 32.4625 28.0749 33.1062L27.9312 33.5625H24H20.0687L19.925 33.1062C19.7312 32.4625 19.7312 31.5188 19.9312 30.875C20.1687 30.0938 20.475 29.5875 21.0312 29.025C21.4562 28.6 21.6375 28.4688 22.1312 28.2312C22.4562 28.075 22.875 27.9187 23.0625 27.8812C23.25 27.8438 23.4625 27.8 23.5312 27.7875C23.7937 27.725 24.75 27.8125 25.1625 27.9437ZM28.85 28.4062C29.0187 28.4563 29.2937 28.5813 29.4562 28.6875C29.8562 28.9437 30.1062 28.9375 30.5062 28.6562C30.9062 28.3812 31.2437 28.2875 31.7187 28.3313C32.5687 28.3938 33.2562 29.0562 33.3562 29.8938C33.3874 30.1375 33.4437 30.2625 33.5749 30.3938C33.7312 30.5562 33.7812 30.5687 34.0187 30.5375C34.8125 30.4187 35.025 30.425 35.3874 30.5625C36.0812 30.8187 36.5625 31.5 36.5625 32.225C36.5625 32.675 36.4812 32.9313 36.2374 33.2937L36.0562 33.5625H32.5812C29.3062 33.5625 29.1124 33.5563 29.1562 33.4562C29.3812 32.8562 29.4062 31.4375 29.1937 30.6562C29.025 30.0188 28.6625 29.275 28.25 28.7312L27.9312 28.3125H28.2374C28.4062 28.3125 28.6812 28.3562 28.85 28.4062ZM38.7562 34.8688C38.9312 35.0875 38.9124 35.4 38.7125 35.5563L38.5437 35.6875H24H9.4562L9.28745 35.5563C9.02495 35.35 9.08745 34.875 9.3937 34.75C9.47495 34.7188 15.775 34.7 24.0812 34.7062L38.6374 34.7188L38.7562 34.8688ZM37.15 37.5062C36.7687 38.2563 36.5 38.575 36.0999 38.7563C35.8499 38.8687 35.4187 38.875 24 38.875C12.5812 38.875 12.15 38.8687 11.9 38.7563C11.5 38.575 11.2312 38.2563 10.85 37.5062L10.4937 36.8125H24H37.5062L37.15 37.5062Z" fill="#26C4F8"/>
<path d="M13.0557 28.8437C12.8557 28.9562 12.7307 29.2375 12.787 29.4625C12.812 29.5625 13.0995 29.8812 13.5245 30.275C15.112 31.75 15.9745 32.5062 16.112 32.5375C16.3057 32.5875 16.5432 32.5187 16.687 32.375C16.8495 32.2125 16.8557 31.8125 16.7057 31.6375C16.4307 31.325 13.662 28.8625 13.5245 28.8062C13.3182 28.7312 13.2495 28.7375 13.0557 28.8437Z" fill="#26C4F8"/>
</g>
<defs>
<clipPath id="clip0_5374_4233">
<rect width="32" height="32" fill="white" transform="translate(8 8)"/>
</clipPath>
</defs>
</svg>
