<svg width="48" height="48" viewBox="0 0 48 48" fill="none" xmlns="http://www.w3.org/2000/svg">
<rect x="0.5" y="0.5" width="47" height="47" rx="23.5" stroke="#26C4F8"/>
<g clip-path="url(#clip0_5374_4844)">
<path d="M31.975 9.125C32.5812 9.25 33.1062 9.63125 33.3625 10.15C33.575 10.5687 33.625 11.0187 33.625 12.5125V13.875H33.125H32.625V12.45C32.6187 10.6688 32.5562 10.45 31.9688 10.1812C31.7312 10.0687 31.3563 10.0625 24 10.0625C16.6437 10.0625 16.2687 10.0687 16.0312 10.1812C15.4438 10.45 15.3813 10.6688 15.375 12.45V13.875H14.8687H14.3625L14.3875 12.2625C14.4062 10.6562 14.4062 10.6562 14.5875 10.275C14.875 9.64375 15.3687 9.25625 16.0562 9.125C16.4625 9.05 31.5875 9.05 31.975 9.125Z" fill="#26C4F8"/>
<path d="M36.3125 12.7062L36.4688 12.7875L36.4875 13.925L36.5 15.0625H36.8438H37.1875V15.5625V16.0625H38.5938H40V16.3437V16.625H38.5938H37.1875V17.125V17.625H36.8438H36.5V18.7125C36.5 19.6187 36.4813 19.8187 36.4 19.9C36.2875 20.0187 35.8688 20.0312 35.7625 19.925C35.7062 19.8687 35.6687 19.8687 35.6125 19.925C35.5062 20.0312 35.0875 20.0187 34.9812 19.9062C34.9 19.825 34.8812 19.825 34.8125 19.9062C34.7062 20.0312 34.2875 20.025 34.1813 19.9C34.1125 19.8187 34.1 19.125 34.0938 16.3312V12.8625L34.2438 12.7437C34.425 12.6 34.5563 12.5937 34.7312 12.7187C34.85 12.8 34.8812 12.8 35.0437 12.7187C35.2625 12.6062 35.3 12.6062 35.5125 12.7125C35.6625 12.7937 35.7125 12.7937 35.8562 12.7125C36.0687 12.6062 36.1125 12.6062 36.3125 12.7062Z" fill="#26C4F8"/>
<path d="M13.7562 12.7437L13.9062 12.8625L13.9 16.3312C13.9 19.1 13.8812 19.825 13.8188 19.9C13.7125 20.025 13.2937 20.0312 13.1875 19.9062C13.1187 19.825 13.1 19.825 13.0188 19.9062C12.9125 20.0187 12.4937 20.0312 12.3875 19.925C12.3312 19.8687 12.2937 19.8687 12.2375 19.925C12.1313 20.0312 11.7125 20.0187 11.6 19.9C11.5187 19.8187 11.5 19.6187 11.5 18.7125V17.625H11.1562H10.8125V17.125V16.625H9.40625H8V16.3437V16.0625H9.40625H10.8125V15.5625V15.0625H11.1562H11.5V13.9437C11.5 13.125 11.5187 12.8125 11.575 12.7625C11.7375 12.6375 11.9375 12.6187 12.125 12.7125C12.2875 12.7937 12.3375 12.7937 12.4875 12.7125C12.7 12.6062 12.7375 12.6062 12.9563 12.7187C13.1187 12.8 13.15 12.8 13.2688 12.7187C13.4437 12.5937 13.575 12.6 13.7562 12.7437Z" fill="#26C4F8"/>
<path d="M33.8303 14.175C33.9241 14.2813 33.9366 14.525 33.9366 16.3625C33.9366 18.8688 33.9991 18.6875 33.0928 18.6875C32.5366 18.6875 32.4803 18.675 32.3366 18.5313L32.1803 18.375L32.1991 16.3063C32.2178 14.3438 32.2241 14.2375 32.3366 14.15C32.4241 14.0875 32.6428 14.0625 33.0928 14.0625C33.6303 14.0625 33.7428 14.0813 33.8303 14.175ZM32.9491 14.5813C32.9241 14.7063 33.1053 14.7938 33.1991 14.7C33.2928 14.6063 33.2053 14.425 33.0803 14.45C33.0178 14.4625 32.9616 14.5188 32.9491 14.5813ZM32.9491 16.3625C32.9303 16.4625 32.9616 16.5 33.0553 16.5C33.2178 16.5 33.2803 16.3938 33.1803 16.275C33.0803 16.1563 32.9741 16.1938 32.9491 16.3625ZM32.9366 18.1188C32.9366 18.2875 33.0553 18.3438 33.1678 18.2313C33.2803 18.1188 33.2241 18 33.0553 18C32.9803 18 32.9366 18.0438 32.9366 18.1188Z" fill="#26C4F8"/>
<path d="M15.6428 14.175C15.7366 14.2813 15.7491 14.525 15.7491 16.3625C15.7491 18.8625 15.8116 18.6875 14.9116 18.6875C14.4303 18.6875 14.2991 18.6688 14.1803 18.5688L14.0303 18.45L14.0116 16.4875C13.9991 15.4125 14.0116 14.4688 14.0303 14.3938C14.0991 14.1063 14.2178 14.0625 14.8991 14.0625C15.4428 14.0625 15.5553 14.0813 15.6428 14.175ZM14.7616 14.5813C14.7366 14.7063 14.9178 14.7938 15.0116 14.7C15.1053 14.6063 15.0178 14.425 14.8928 14.45C14.8303 14.4625 14.7741 14.5188 14.7616 14.5813ZM14.7616 16.3625C14.7428 16.4625 14.7741 16.5 14.8678 16.5C15.0303 16.5 15.0928 16.3938 14.9928 16.275C14.8928 16.1563 14.7866 16.1938 14.7616 16.3625ZM14.7491 18.1188C14.7491 18.2875 14.8678 18.3438 14.9803 18.2313C15.0928 18.1188 15.0366 18 14.8678 18C14.7928 18 14.7491 18.0438 14.7491 18.1188Z" fill="#26C4F8"/>
<path d="M29.5187 15.9C29.75 16.0625 29.7687 16.0625 30.9062 16.0625H32.0625V16.3437V16.625H24H15.9375V16.3437V16.0625H17.0938C18.2312 16.0625 18.25 16.0625 18.4812 15.9C18.675 15.7687 18.7688 15.7437 18.9937 15.7687C19.1375 15.7875 19.3438 15.8562 19.4437 15.9312C19.6187 16.0625 19.6438 16.0625 24 16.0625C28.3563 16.0625 28.3812 16.0625 28.5562 15.9312C28.6562 15.8562 28.8625 15.7875 29.0062 15.7687C29.2313 15.7437 29.325 15.7687 29.5187 15.9Z" fill="#26C4F8"/>
<path d="M29.7875 16.8562C29.7687 16.9187 29.2188 18.7125 28.5688 20.8437C27.9188 22.975 27.3563 24.7937 27.3187 24.8812C27.2875 24.975 27.1 25.1812 26.9125 25.35L26.5625 25.65V28.2625V30.875L26.7 30.9062C26.7812 30.925 27.1187 30.9937 27.4562 31.0625C27.7938 31.1312 28.1125 31.2125 28.175 31.2437C28.3438 31.3375 28.6125 31.6437 28.6812 31.825C28.8062 32.1562 30 37.4 30 37.6125C30 37.9312 29.7687 38.3562 29.5062 38.5375C28.9125 38.9312 28.0312 38.7 27.775 38.0875C27.7313 37.9812 27.4625 36.9062 27.1875 35.7125C26.9125 34.5125 26.6625 33.475 26.6375 33.4125C26.5938 33.3125 26.375 33.25 25.3688 33.05C24.7 32.9187 24.1125 32.8062 24.0625 32.8C24.0125 32.7875 23.3937 32.8937 22.6937 33.0312C21.6187 33.2437 21.4125 33.3 21.3687 33.4062C21.3375 33.475 21.0875 34.5125 20.8125 35.7125C20.5375 36.9062 20.2688 37.9812 20.225 38.0875C19.9688 38.7 19.0875 38.9312 18.4937 38.5375C18.2312 38.3562 18 37.9312 18 37.6125C18 37.4 19.1937 32.1562 19.3187 31.825C19.3875 31.6437 19.6562 31.3375 19.825 31.2437C19.8875 31.2125 20.2063 31.1312 20.5437 31.0625C20.8812 30.9937 21.2188 30.925 21.2937 30.9062L21.4375 30.875V28.2625V25.65L21.0875 25.35C20.9 25.1812 20.7125 24.975 20.6812 24.8812C20.6438 24.7937 20.0813 22.975 19.4312 20.8437C18.7812 18.7125 18.2312 16.9187 18.2125 16.8562C18.1812 16.7562 18.2375 16.75 19 16.7625L19.825 16.7812L20.9437 20.4375C21.9125 23.6 22.0875 24.1125 22.2438 24.2687L22.4187 24.45H24H25.5812L25.7562 24.2687C25.9125 24.1125 26.0875 23.5937 27.0562 20.4375L28.175 16.7812L29 16.7625C29.7625 16.75 29.8187 16.7562 29.7875 16.8562Z" fill="#26C4F8"/>
<path d="M33.625 28.375V37.9375H34.0937H34.5625V38.4375V38.9375H33.0937H31.625V38.4375V37.9375H32.125H32.625V28.375V18.8125H33.125H33.625V28.375Z" fill="#26C4F8"/>
<path d="M15.375 28.375V37.9375H15.875H16.375V38.4375V38.9375H14.9062H13.4375V38.4375V37.9375H13.9062H14.375V28.375V18.8125H14.875H15.375V28.375Z" fill="#26C4F8"/>
<path d="M24.4937 20.0687C25.0688 20.1812 25.6562 20.6625 25.9312 21.2437C26.0687 21.5375 26.0938 21.6812 26.0938 22.1562C26.0938 22.6437 26.0687 22.7625 25.9188 23.0687C25.725 23.4625 25.3375 23.8562 24.925 24.0687C24.5187 24.2812 23.7125 24.3062 23.2375 24.125C21.6625 23.5375 21.3937 21.3562 22.775 20.4062C23.2812 20.0562 23.8625 19.9437 24.4937 20.0687Z" fill="#26C4F8"/>
<path d="M25.2191 33.2438C25.8379 33.3688 26.3754 33.4875 26.4129 33.5125C26.4566 33.5375 26.5066 33.6625 26.5254 33.7875C26.5504 33.9063 26.5879 34.05 26.6066 34.1C26.6316 34.175 26.4691 34.1875 25.5691 34.1875H24.5004V35.75V37.3125H25.9254H27.3504L27.4441 37.7C27.5004 37.9188 27.5629 38.1438 27.5879 38.2C27.6379 38.3063 27.4441 38.3125 24.0004 38.3125C20.5566 38.3125 20.3629 38.3063 20.4129 38.2C20.4379 38.1438 20.5004 37.9188 20.5566 37.7L20.6504 37.3125H22.0754H23.5004V35.75V34.1875H22.4316C21.5316 34.1875 21.3691 34.175 21.3941 34.1C21.4129 34.05 21.4504 33.9125 21.4691 33.7875C21.4941 33.6688 21.5441 33.5438 21.5879 33.5125C21.6441 33.4625 23.9754 32.9875 24.0629 33.0063C24.0816 33.0125 24.6004 33.1188 25.2191 33.2438Z" fill="#26C4F8"/>
<path d="M27.5 38.5312C27.5 38.675 27.475 38.6875 27.2188 38.6875C26.9625 38.6875 26.9375 38.675 26.9375 38.5312C26.9375 38.3875 26.9625 38.375 27.2188 38.375C27.475 38.375 27.5 38.3875 27.5 38.5312Z" fill="#26C4F8"/>
<path d="M21.0625 38.5312C21.0625 38.675 21.0375 38.6875 20.7813 38.6875C20.525 38.6875 20.5 38.675 20.5 38.5312C20.5 38.3875 20.525 38.375 20.7813 38.375C21.0375 38.375 21.0625 38.3875 21.0625 38.5312Z" fill="#26C4F8"/>
</g>
<defs>
<clipPath id="clip0_5374_4844">
<rect width="32" height="32" fill="white" transform="matrix(-1 0 0 1 40 8)"/>
</clipPath>
</defs>
</svg>
