<svg width="40" height="34" viewBox="0 0 40 34" fill="none" xmlns="http://www.w3.org/2000/svg">
<path d="M19.7954 0.375C19.7016 0.414062 19.5844 0.539062 19.5376 0.640625C19.4751 0.773438 19.4516 2.02344 19.4516 4.69531V8.5625H19.2407C18.8657 8.5625 17.7641 8.99219 17.1704 9.36719C16.8579 9.57031 16.1469 10.1016 15.5844 10.5547C14.0766 11.7812 12.8969 12.3047 11.6548 12.3125C11.3188 12.3125 11.2016 12.3516 11.0532 12.5078C10.8188 12.7422 10.8032 13.0078 11.0219 13.2812C11.1704 13.4688 11.2251 13.4844 11.7798 13.4844C12.8423 13.4844 13.8969 13.1719 14.9204 12.5781C15.1548 12.4375 15.8266 11.9453 16.4126 11.4766C18.2563 10 18.8032 9.74219 20.0844 9.73438C21.4048 9.73438 22.0454 10.0234 23.7016 11.3594C24.811 12.2578 25.186 12.5234 25.8188 12.8438C26.6001 13.2344 27.3032 13.4141 28.2094 13.4609C28.9985 13.5 29.0454 13.5 29.2016 13.3203C29.4282 13.0781 29.4204 12.7422 29.1782 12.5078C29.0298 12.3516 28.9126 12.3125 28.5766 12.3125C27.6704 12.3047 26.5688 11.9453 25.7251 11.3672C25.5141 11.2266 24.9829 10.8125 24.5298 10.4453C23.0532 9.25781 22.2641 8.8125 21.2329 8.61719L20.7798 8.52344V4.67188C20.7798 0.71875 20.7719 0.609375 20.4751 0.382812C20.3266 0.265625 20.0219 0.265625 19.7954 0.375Z" fill="#FCFBF8"/>
<path d="M5.15748 1.67188C4.57935 1.95312 4.57154 2.41406 5.1106 3.1875C5.97779 4.42969 6.15748 5.09375 6.25123 7.39062C6.35279 9.92969 6.5481 10.5938 7.77467 12.5078C8.68873 13.9297 9.38404 16.1016 9.7356 18.6016C9.93873 20.0703 9.85279 21.9219 9.50123 23.9141C9.34498 24.7734 9.18091 25.7422 9.13404 26.0625C9.08716 26.3828 8.96216 26.9453 8.85279 27.3125C8.58716 28.2344 7.8606 31.1797 7.6731 32.0859C7.50123 32.9453 7.51685 33.1641 7.79029 33.4453L7.99342 33.6406H19.9153H31.845L32.0247 33.4766C32.3215 33.1953 32.345 33.0234 32.22 31.75C32.0403 29.8203 31.6887 27.9375 31.3684 27.1797C31.2981 27.0156 31.1731 26.4453 31.0872 25.9062C31.009 25.3672 30.8372 24.3281 30.7044 23.6016C30.2903 21.2969 30.3059 19.4688 30.7434 17.2734C31.1497 15.2578 31.7044 13.7578 32.5169 12.4531C33.6965 10.5781 33.884 9.9375 33.9934 7.46875C34.0403 6.44531 34.1184 5.51562 34.1887 5.24219C34.3372 4.625 34.7903 3.66406 35.2122 3.07031C35.6184 2.49219 35.6497 2.19531 35.3294 1.83594C35.0872 1.57031 34.6887 1.5 34.3528 1.67969C34.1575 1.78125 33.4934 2.73438 33.2044 3.32031C32.634 4.46875 32.509 5.09375 32.4231 7.26562C32.3762 8.32812 32.3137 9.07812 32.2278 9.38281C32.0715 9.97656 31.6653 10.8438 31.2669 11.4297C30.5247 12.5312 29.8528 14.1484 29.4231 15.9141C28.9465 17.875 28.8684 18.5469 28.8762 20.5938C28.8762 22.3672 28.884 22.4844 29.1731 24.0703C29.3372 24.9688 29.4856 25.8594 29.509 26.0312L29.5481 26.3594L28.5481 26.5938C25.3684 27.3516 23.4622 27.5703 20.0403 27.5703C17.6184 27.5625 16.0247 27.4375 14.2512 27.1172C12.8606 26.8594 10.845 26.3906 10.759 26.3047C10.72 26.2656 10.7981 25.6641 10.9309 24.9219C11.3528 22.5312 11.4231 21.9297 11.4309 20.6328C11.4465 17.5312 10.5715 14.0312 9.24341 11.8672C8.01685 9.875 7.89967 9.48438 7.81373 7.07812C7.75123 5.24219 7.66529 4.74219 7.22779 3.70312C6.85279 2.82031 6.14185 1.77344 5.81373 1.64062C5.4856 1.5 5.4856 1.5 5.15748 1.67188Z" fill="#FCFBF8"/>
<path d="M19.6804 12.0703C19.4929 12.2188 19.4929 12.2422 19.4695 13.8828L19.446 15.5469L19.1804 15.9141C18.6335 16.6484 17.5789 17.2812 16.3757 17.5859C15.446 17.8203 14.571 17.9062 14.4929 17.7734C14.4539 17.7266 14.4226 17.3672 14.4226 16.9844C14.4148 16.3438 14.3992 16.2656 14.2273 16.1328C13.8601 15.8359 13.3523 16.0234 13.2351 16.5C13.1414 16.875 13.2664 17.9844 13.446 18.4062C13.6882 18.9609 13.8132 19.0312 14.6179 19.0312C16.2664 19.0312 18.0867 18.4609 19.157 17.6172L19.4539 17.375V19.1797V20.9844L18.9539 21.5078C18.6804 21.8047 18.2585 22.1562 18.0164 22.3047C17.2117 22.7891 16.0398 23.1328 15.0007 23.1875L14.4929 23.2109L14.4382 22.8984C14.407 22.7266 14.3992 22.4062 14.4226 22.1953C14.4617 21.875 14.4382 21.7656 14.2976 21.5859C14.0945 21.3281 13.7039 21.2969 13.4304 21.5234C13.2507 21.6641 13.2429 21.7266 13.2507 22.5234C13.2507 23.2031 13.282 23.4375 13.4148 23.7266C13.6882 24.3438 13.8132 24.4219 14.5164 24.4219C16.1335 24.4141 17.7117 23.9688 18.8835 23.1719L19.4539 22.7812V24.4219C19.4539 25.4531 19.4851 26.125 19.5398 26.2422C19.6257 26.4375 19.907 26.6094 20.1179 26.6094C20.2976 26.6094 20.6101 26.4375 20.6804 26.3047C20.7117 26.2344 20.7585 25.4141 20.782 24.4766L20.821 22.7812L21.2117 23.0625C22.3679 23.8906 23.7039 24.3203 25.407 24.3984L26.321 24.4453L26.5476 24.2031C26.8445 23.8828 27.032 23.1953 27.032 22.4141C27.032 21.8984 27.0007 21.75 26.8679 21.5781C26.6726 21.3359 26.282 21.3047 26.0164 21.5156C25.8679 21.6406 25.8445 21.7344 25.8289 22.375C25.821 22.7734 25.7742 23.125 25.7351 23.1641C25.696 23.2109 25.3992 23.2109 25.0007 23.1641C23.2898 22.9766 22.1257 22.4453 21.2117 21.4375L20.782 20.9609V19.1797V17.4062L21.3132 17.7578C22.4851 18.5547 23.7351 18.9375 25.3601 19.0078L26.3914 19.0547L26.6257 18.7266C26.9148 18.3281 27.032 17.8281 27.032 16.9922C27.032 16.4297 27.0085 16.3516 26.8367 16.1797C26.6492 15.9922 26.3914 15.9375 26.1335 16.0312C25.9539 16.1016 25.7664 16.5078 25.8289 16.7031C25.8523 16.7891 25.8523 17.0938 25.821 17.3672L25.7664 17.875L25.1726 17.8203C23.3992 17.6562 21.8679 16.9375 21.0476 15.8828L20.7898 15.5547L20.7664 13.8906C20.7429 12.2422 20.7429 12.2188 20.5554 12.0703C20.4539 11.9922 20.2585 11.9219 20.1179 11.9219C19.9773 11.9219 19.782 11.9922 19.6804 12.0703Z" fill="#FCFBF8"/>
<path d="M35.0391 15.211C34.7266 15.2969 32.375 17.6563 32.3047 17.9531C32.2734 18.0781 32.2734 18.2656 32.3047 18.3828C32.375 18.6797 34.8047 21.1094 35.1016 21.1797C35.7109 21.336 36.2891 20.7578 36.1406 20.1563C36.1094 20.0391 35.8906 19.7422 35.6484 19.4922L35.2109 19.0313H37.1016H39L39.2656 18.7656C39.4531 18.5781 39.5312 18.4297 39.5312 18.2578C39.5312 17.9531 39.3438 17.5781 39.1484 17.4688C39.0547 17.4219 38.2422 17.3906 37.0703 17.3906H35.1406L35.6172 16.8828C36.0547 16.4141 36.0938 16.336 36.0938 16.0235C36.0938 15.4453 35.6016 15.0625 35.0391 15.211Z" fill="#FCFBF8"/>
<path d="M4.19531 15.3982C3.78125 15.8201 3.875 16.2967 4.50781 16.9373L4.95312 17.3904H2.97656H1L0.773438 17.617C0.59375 17.7967 0.546875 17.9138 0.546875 18.1717C0.546875 18.5779 0.648438 18.7654 0.9375 18.9138C1.11719 19.0076 1.51562 19.031 3.02344 19.031H4.875L4.42188 19.492C4.03906 19.8826 3.96094 20.0076 3.92969 20.2967C3.89844 20.5857 3.92188 20.6795 4.10156 20.8904C4.35938 21.2029 4.72656 21.281 5.10156 21.1013C5.50781 20.9138 7.70312 18.656 7.75 18.3748C7.84375 17.906 7.69531 17.6951 6.42188 16.4295L5.1875 15.2029H4.78906C4.47656 15.2029 4.35938 15.242 4.19531 15.3982Z" fill="#FCFBF8"/>
</svg>
