<svg width="40" height="40" viewBox="0 0 40 40" fill="none" xmlns="http://www.w3.org/2000/svg">
<path d="M4.30469 2.17194C3.78125 2.45319 3.74219 2.64069 3.76562 4.53131C3.78906 6.41412 3.82031 6.53131 4.33594 6.7735L4.60938 6.90631V7.46881V8.03131L4.24219 8.086C3.35156 8.211 2.51562 8.836 2.125 9.67194L1.91406 10.1173L1.89062 19.0235L1.875 27.9376L1.52344 28.2735C1.0625 28.7188 0.507812 29.6172 0.25 30.3282C0.0625 30.8516 0.046875 31.0001 0.046875 32.1094C0.046875 33.2422 0.0625 33.3594 0.265625 33.8907C0.578125 34.7266 0.976562 35.3594 1.55469 35.9688C2.39844 36.8516 3.33594 37.3985 4.60156 37.7579L5.19531 37.9297L17.4219 37.9532C24.9297 37.9688 29.8359 37.9454 30.1328 37.8985C30.75 37.8047 31.0859 37.6407 31.5625 37.211C32.0703 36.7579 32.3516 36.1797 32.4141 35.4454L32.4609 34.8672L34.7656 35.2813C36.0312 35.5157 37.1719 35.7032 37.2891 35.7032C37.4062 35.7032 37.6484 35.6329 37.8203 35.5391C38.2109 35.3438 38.3984 34.9532 38.4766 34.2032C38.5938 33.0938 38.3516 32.7657 37.2344 32.5001C36.8438 32.4063 36.4688 32.3126 36.4062 32.2891C36.3438 32.2657 36.9375 32.1251 37.7344 31.9766C39.3359 31.6797 39.6328 31.5704 39.8594 31.2188C39.9844 31.0157 40.0078 30.8829 39.9688 30.3516C39.9453 30.0079 39.8906 29.6016 39.8438 29.4532C39.7266 29.0938 39.2891 28.7032 38.9453 28.6485C38.7891 28.6251 38.0703 28.7188 37.2109 28.8751C36.4141 29.0235 35.7344 29.1407 35.7109 29.1407C35.6875 29.1407 35.9453 28.9532 36.2891 28.7188C37.1406 28.1485 37.2812 27.9844 37.3281 27.5001C37.3594 27.1641 37.3281 27.0313 37.1016 26.586C36.75 25.8985 36.4297 25.5782 36.0156 25.5079C35.7031 25.4532 35.6875 25.4376 35.7344 25.2266C35.7578 25.1016 35.8125 24.5235 35.8594 23.9454C35.9609 22.7579 35.8984 22.3672 35.5781 22.1172L35.3828 21.961L35.5234 21.5079C35.7109 20.8829 35.7031 19.6563 35.5156 19.0079C35.2812 18.2188 35.0078 18.0469 33.7109 17.8594L33.0859 17.7657L33.0469 17.461C32.9844 17.0157 32.6406 16.3204 32.3125 15.961C31.6875 15.2657 30.9062 14.9219 29.9609 14.9219H29.3984L29.4375 14.3751C29.4844 13.6563 29.2109 12.4298 28.9375 12.1563C28.6797 11.8985 27.9766 11.711 27.1094 11.6641C26.2578 11.6173 25.6016 11.7423 24.8203 12.0938L24.3203 12.3204L24.1094 11.836C23.7109 10.9219 22.9531 10.0313 22.4922 9.93756C21.8984 9.81256 21.8438 9.85163 20.2188 11.4688C18.7656 12.9063 18.6641 12.9923 18.5312 12.8673C18.2344 12.5938 17.5 12.3282 16.9297 12.2891C16.2109 12.2344 15.6562 12.3829 15.0234 12.8048L14.5625 13.1173L14.2109 13.0001C13.9688 12.9141 13.6641 12.8829 13.1484 12.9063L12.4297 12.9376L12.4062 11.4844C12.3828 10.1329 12.3672 10.0157 12.1875 9.6485C11.7891 8.836 10.9531 8.211 10.1016 8.07819L9.76562 8.03131V7.45319C9.76562 6.91413 9.77344 6.87506 9.97656 6.78131C10.0938 6.72663 10.2734 6.56256 10.3672 6.41413C10.5391 6.15631 10.5469 6.09381 10.5469 4.461C10.5469 1.8985 10.7344 2.03131 7.13281 2.03131C4.79688 2.03131 4.54688 2.04694 4.30469 2.17194ZM9.29688 4.45319V5.62506H7.14844H5V4.45319V3.28131H7.14844H9.29688V4.45319ZM8.51562 7.461V8.04694H7.1875H5.85938V7.461V6.87506H7.1875H8.51562V7.461ZM10.3125 9.46881C10.9844 9.82038 11.25 10.3985 11.25 11.5313V12.0313H10.5547C9.89062 12.0313 9.84375 12.0391 9.69531 12.2344C9.50781 12.4688 9.49219 12.6407 9.61719 12.9219C9.73438 13.1798 10.0547 13.2813 10.7109 13.2813C11.2266 13.2813 11.25 13.2891 11.25 13.4688C11.25 13.5704 11.1406 13.7891 11.0078 13.9532C10.5391 14.5391 10.2734 15.336 10.3203 16.0079C10.3438 16.2813 10.3047 16.3516 10.0234 16.6251C9.36719 17.2657 9 18.2344 9.09375 19.0782C9.125 19.3282 9.11719 19.5313 9.07812 19.5313C9.04688 19.5313 8.86719 19.6563 8.69531 19.8048L8.375 20.0782H5.75H3.125V16.6798V13.2813H4.99219C6.08594 13.2813 6.94531 13.2501 7.08594 13.2032C7.49219 13.0548 7.61719 12.586 7.33594 12.2344L7.17969 12.0313H5.14062H3.10938L3.14062 11.1798C3.16406 10.3751 3.17969 10.3048 3.39844 9.98444C3.53906 9.78913 3.78125 9.57819 3.98438 9.46881C4.32031 9.29694 4.38281 9.29694 7.14844 9.29694C9.91406 9.29694 9.97656 9.29694 10.3125 9.46881ZM22.7812 12.0079C22.8906 12.1876 23.0469 12.5313 23.1328 12.7735L23.2891 13.211L23.0625 13.5001C22.9453 13.6563 22.7891 13.8751 22.7266 13.9766C22.6094 14.1563 22.5547 14.1719 21.9297 14.1719C21.3359 14.1798 21.2344 14.2032 21.0781 14.3516C20.8594 14.5704 20.8516 15.0079 21.0547 15.2344C21.1641 15.3594 21.2891 15.3907 21.6562 15.3907C22.0859 15.3907 22.1094 15.3985 22.1094 15.586C22.1094 15.7501 22.0469 15.8126 21.7812 15.9298L21.4453 16.0704L21.2344 15.7657C20.9688 15.4063 20.3828 14.9688 19.9922 14.8438C19.7422 14.7579 19.6797 14.6876 19.5781 14.3829L19.4609 14.0235L20.8438 12.6329L22.2266 11.2423L22.4062 11.461C22.5078 11.5782 22.6719 11.8282 22.7812 12.0079ZM27.6406 12.9844L28.0312 13.0704L28.125 13.5704C28.2969 14.4688 28.1016 15.3907 27.6172 15.9766C27.4688 16.1641 27.3047 16.3985 27.2578 16.5079C27.1875 16.6641 27.0781 16.7266 26.7656 16.7969C26.5469 16.8438 26.2031 16.9688 26 17.0704C25.7969 17.1798 25.6172 17.2657 25.6016 17.2657C25.5859 17.2657 25.4922 17.1563 25.3984 17.0235L25.2188 16.7813L25.9219 16.0704C26.3047 15.6719 26.6484 15.2735 26.6797 15.1719C26.8047 14.7501 26.3438 14.2891 25.9219 14.4141C25.8203 14.4454 25.3906 14.8126 24.9609 15.2344L24.1797 16.0079L23.7734 15.8751C23.3047 15.7344 23.2969 15.6954 23.6484 14.9454C24.3203 13.5001 26.1016 12.6251 27.6406 12.9844ZM17.6172 13.7891C18.0312 14.0235 18.3281 14.4923 18.4375 15.0704C18.5469 15.6485 18.6328 15.7657 19.0078 15.8594C19.5625 16.0001 19.9219 16.1876 20.1562 16.461C20.4375 16.7813 20.4453 16.8673 20.2031 17.2579C20.0938 17.4219 19.9609 17.7266 19.8984 17.9376L19.7891 18.3204L18.0234 18.3438L16.2578 18.3594L16.4297 18.1641C16.5234 18.0626 16.6641 17.8985 16.7422 17.8126C16.9609 17.5626 17.2188 17.6173 17.5 17.9688C17.7109 18.2344 17.7891 18.2813 18.0469 18.2813C18.6719 18.2813 18.8516 17.6329 18.375 17.0391C17.6719 16.1485 16.2266 16.211 15.625 17.1641C15.4922 17.3673 15.3906 17.5938 15.3906 17.6641C15.3906 17.9376 15.5781 18.2032 15.8203 18.2891L16.0703 18.3829L15.7891 18.6329L15.5156 18.8907L15.0781 18.6719C14.1406 18.1954 12.875 18.0704 11.8516 18.3516C11.1875 18.5313 11.0469 18.6641 10.875 19.2344C10.7969 19.4923 10.6953 19.6954 10.6562 19.7032C10.6172 19.7032 10.5156 19.5079 10.4297 19.2657C10.2969 18.8829 10.2891 18.7891 10.375 18.461C10.5078 17.9532 10.7891 17.5782 11.2188 17.3048C11.6719 17.0157 11.75 16.8282 11.625 16.2501C11.3281 14.7969 12.8125 13.6641 14.1406 14.336C14.6875 14.6094 15.0078 14.5938 15.2891 14.2735C15.4141 14.1407 15.5938 13.961 15.6797 13.8829C16.1484 13.4688 17.0078 13.4298 17.6172 13.7891ZM30.5547 16.2501C31.1406 16.4141 31.6719 17.0469 31.8281 17.7813C31.8828 18.0235 31.8672 18.0313 31.3906 18.2579C31.1172 18.3907 30.7344 18.6173 30.5391 18.7657C30.3359 18.9219 30.1406 19.0235 30.1016 18.9923C30.0547 18.9688 29.9766 18.8048 29.9297 18.6329C29.7812 18.1563 29.3359 17.5548 28.9219 17.2657C28.7188 17.1251 28.5391 16.9923 28.5234 16.9844C28.4297 16.9063 28.7969 16.5548 29.1484 16.3751C29.5938 16.1563 30.0625 16.1173 30.5547 16.2501ZM23.7734 17.2501C24.1484 17.4532 24.4688 17.8048 24.6094 18.1563L24.6875 18.3594H22.8906C21.8984 18.3594 21.0938 18.3282 21.0938 18.2969C21.0938 18.2657 21.1953 18.0704 21.3203 17.8673C21.8594 17.0235 22.8672 16.7657 23.7734 17.2501ZM28.0938 18.2423C28.3672 18.3985 28.5 18.5469 28.6406 18.8516C28.7422 19.0782 28.8281 19.3516 28.8281 19.4766C28.8281 19.836 28.9922 19.9923 29.5312 20.1563C30.2812 20.3829 30.7812 20.9766 30.7812 21.6407C30.7812 21.8751 30.7812 21.8751 30.3516 21.8751C29.9922 21.8751 29.8828 21.9063 29.7266 22.0704C29.4141 22.3751 29.4766 22.8204 29.8516 23.0079C30.0312 23.1016 30.5078 23.1251 32.3828 23.1251H34.6953L34.6484 23.7266C34.5938 24.3594 34.4062 25.6016 34.3125 25.9688C34.2656 26.1485 33.9844 26.3438 32.7422 27.0782C31.9141 27.5704 31.2109 27.9688 31.1797 27.9688C31.1484 27.9688 31.0625 27.8204 30.9844 27.6407C30.5312 26.6251 29.2812 25.9688 28.1484 26.1719C27.7266 26.2422 22.2344 28.2579 21.1172 28.7501C20.6172 28.9688 20.4688 29.4141 20.7812 29.7501C21.0234 30.0079 21.25 30.0235 21.75 29.8438C22 29.7501 22.2266 29.7032 22.2656 29.7344C22.2969 29.7735 22.3828 30.1172 22.4531 30.5079C22.5938 31.2657 22.7031 31.4532 23.0859 31.5313C23.2578 31.5626 23.3828 31.5313 23.5391 31.4063C23.7969 31.2032 23.8125 30.9219 23.6172 29.9141C23.5469 29.5313 23.5 29.211 23.5234 29.1876C23.5859 29.1251 28.0859 27.4376 28.3359 27.3907C28.9062 27.2657 29.6328 27.6876 29.875 28.2735C30.0234 28.6485 31.1719 34.8204 31.1719 35.2501C31.1719 36.0938 30.4531 36.7188 29.4766 36.7188C29.2891 36.7188 29.1406 36.7032 29.1406 36.6954C29.1406 36.4297 28.7266 34.5391 28.6328 34.4063C28.3828 34.0235 27.8125 34.1016 27.6016 34.5391C27.5234 34.7032 27.5391 34.9141 27.6875 35.711L27.8594 36.6797L26.9297 36.7032C26.4141 36.711 25.9844 36.711 25.9609 36.6954C25.9453 36.6797 25.8672 36.3204 25.7891 35.8907C25.6719 35.2969 25.6016 35.0938 25.4609 34.9844C25.2031 34.7657 24.7812 34.8282 24.5781 35.1016C24.4219 35.3126 24.4219 35.336 24.5391 36.0157L24.6562 36.7188L22.3516 36.7032L20.0469 36.6797L19.875 35.7344C19.7812 35.211 19.6641 34.711 19.6094 34.6172C19.5 34.4063 19.1797 34.2735 18.9531 34.3438C18.4844 34.4844 18.4219 34.8047 18.6328 35.9141C18.6953 36.2501 18.75 36.5704 18.75 36.6251C18.75 36.7032 18.0391 36.7188 15.1797 36.7032C11.8281 36.6797 11.5859 36.6719 11.2969 36.5313C10.9453 36.3516 10.5859 35.836 10.5078 35.3907C10.4062 34.8047 10.7422 34.1329 11.2656 33.8594C11.7109 33.6251 13.5469 32.961 13.6406 33.0001C13.6875 33.0157 13.7578 33.2032 13.7891 33.4063C13.8594 33.8985 13.9688 34.1094 14.1953 34.211C14.4844 34.3438 14.6797 34.3126 14.8984 34.0938C15.1094 33.8829 15.1172 33.8047 14.9531 32.7657L14.9062 32.4454L16.6094 31.8047C18.4062 31.1251 18.6719 30.961 18.6719 30.5626C18.6641 30.2969 18.5234 30.1094 18.2578 30.0079C18.0312 29.9219 17.9297 29.9454 16.9688 30.3047C16.6094 30.4376 16.3047 30.5469 16.2969 30.5469C16.2812 30.5469 16.1953 30.336 16.1016 30.0782C15.7188 29.0391 14.6641 27.8126 13.6172 27.1954C13.3203 27.0235 13.125 26.8594 13.125 26.7813C13.125 26.586 12.6719 26.1641 12.2422 25.9532C11.6875 25.6797 10.7188 25.5235 9.88281 25.5782C9.5 25.6094 9.10156 25.6485 9.00781 25.6719C8.84375 25.7188 8.82812 25.6954 8.82812 25.4063C8.82812 25.0001 8.53125 24.7266 8.14844 24.7891L7.89844 24.836L7.85938 24.4297C7.83594 24.2032 7.79688 23.8204 7.77344 23.5704L7.72656 23.1251H17.3047C27.5 23.1251 27.2344 23.1329 27.375 22.7735C27.5312 22.3672 27.2344 21.8751 26.8281 21.8751C26.6641 21.8751 26.6328 21.8516 26.6797 21.7344C27.0234 20.8829 27.25 19.6954 27.1562 19.1954C27.0938 18.8594 26.8438 18.5313 26.5781 18.4298C26.3438 18.336 26.4062 18.2501 26.8359 18.086C27.25 17.9376 27.6562 17.9844 28.0938 18.2423ZM33.7891 19.1485L34.2812 19.2344L34.3828 19.711C34.5 20.2657 34.4141 20.9219 34.1562 21.5079L33.9922 21.8751H33.2734H32.5469L32.8281 21.5782C33.2031 21.1954 33.25 20.8282 32.9688 20.5469C32.7656 20.3438 32.3438 20.3438 32.0938 20.5469L31.8984 20.6954L31.6172 20.2344C31.3672 19.8126 31.3594 19.7657 31.4766 19.6641C31.7031 19.461 32.1172 19.2891 32.6094 19.1798C33.2188 19.0469 33.2188 19.0469 33.7891 19.1485ZM14.375 19.7423C15.1953 20.1251 15.5234 20.4766 15.7812 21.2344L15.9922 21.8751H15.6328C15.2891 21.8751 15.2422 21.8438 14.8047 21.3985C14.0938 20.6798 13.7891 20.5626 13.4062 20.8673C13.1641 21.0548 13.125 21.5079 13.3359 21.7344C13.4609 21.8751 13.4453 21.8829 12.8125 21.8594L12.1641 21.836L12.0547 21.5235C11.9297 21.1798 11.9062 20.1798 12.0156 19.8048C12.1016 19.5157 12.3047 19.4532 13.2031 19.4844C13.7578 19.5001 13.9531 19.5391 14.375 19.7423ZM25.8906 19.8594C25.7891 20.4766 25.6797 20.8516 25.4531 21.3438L25.2109 21.8751H24.625H24.0469L23.7266 21.5157C23.3281 21.0626 23 20.9063 22.6719 21.0235C22.4141 21.1094 22.2188 21.461 22.2891 21.7188C22.3516 21.9532 22.0078 21.9219 21.7656 21.6798C21.6406 21.5548 21.4844 21.4844 21.3281 21.4844C21.1719 21.4844 21.0156 21.5548 20.8906 21.6798C20.7734 21.7969 20.6094 21.8751 20.4766 21.8751C20.2812 21.8751 20.2578 21.8516 20.2969 21.6719C20.3438 21.3985 20.1797 21.1173 19.9062 21.0235C19.6016 20.9141 19.4062 21.0079 18.9453 21.4766L18.5625 21.8751H18H17.4453L17.2031 21.3829C16.9766 20.9219 16.7188 20.0626 16.7188 19.7423C16.7188 19.6173 16.9922 19.6094 21.3281 19.6094H25.9375L25.8906 19.8594ZM9.92969 20.9063C10.0312 21.0157 10.2656 21.1954 10.4375 21.2969C10.6484 21.4219 10.7812 21.5626 10.8047 21.6798L10.8359 21.8751H9.83594H8.82812L8.90625 21.6719C9.09375 21.1954 9.46875 20.7032 9.64844 20.7032C9.69531 20.7032 9.82031 20.7969 9.92969 20.9063ZM7.65625 21.4766C7.65625 21.7344 7.57031 21.8751 7.40625 21.8751C7.14062 21.8751 6.74219 22.1719 6.60156 22.4688C6.48438 22.7266 6.47656 22.8594 6.55469 23.8204C6.60156 24.4063 6.66406 25.0235 6.6875 25.2032L6.73438 25.5235L5.95312 25.5704C5.10156 25.6329 4.3125 25.836 3.89844 26.1172C3.66406 26.2735 3.5625 26.3907 3.22656 26.9219C3.15625 27.0391 3.13281 26.4532 3.13281 24.1954L3.125 21.3282H5.39062C7.57031 21.3282 7.65625 21.336 7.65625 21.4766ZM7.14844 26.9063C7.40625 26.9688 7.76562 27.0626 7.94531 27.1172C8.24219 27.211 8.32812 27.2032 8.76562 27.0469C9.42188 26.8204 10.1484 26.7579 10.8516 26.8672C11.8828 27.0313 11.9375 27.1797 11.0391 27.3438C10.6719 27.4141 10.5078 27.4922 10.3906 27.6407C10.1641 27.9297 10.1875 28.2501 10.4688 28.5313C10.6016 28.6641 10.6875 28.7891 10.6641 28.8126C10.5703 28.9141 9.49219 28.4844 9 28.1485C8.35156 27.7032 8.10938 27.6876 7.625 28.0313C7.17188 28.3594 6.375 28.7266 5.97656 28.7969L5.66406 28.8438L5.92969 28.5626C6.14844 28.3438 6.20312 28.2188 6.19531 28.0001C6.1875 27.6172 6.0625 27.5157 5.39844 27.3438C4.5625 27.1329 4.55469 27.086 5.32031 26.9141C5.96875 26.7735 6.57031 26.7735 7.14844 26.9063ZM35.9141 27.0704C35.9844 27.2188 36.0312 27.3594 36.0078 27.3751C35.9922 27.3907 35.1562 27.9532 34.1562 28.6329C33.1562 29.3047 32.2812 29.9376 32.2188 30.0391C31.9766 30.4141 32.2734 30.9376 32.7344 30.9376C32.8359 30.9376 34.2031 30.7032 35.7656 30.4219C37.3203 30.1329 38.6094 29.9141 38.625 29.9297C38.6406 29.9454 38.6797 30.086 38.7109 30.2344L38.7578 30.5079L35.8438 31.0391C33.8203 31.4063 32.8672 31.6094 32.7344 31.711C32.5938 31.8126 32.5312 31.9376 32.5156 32.1641C32.4766 32.6719 32.6016 32.7266 35.0781 33.2891L37.2812 33.7891L37.2266 34.1016C37.2031 34.2657 37.1719 34.4141 37.1641 34.4219C37.1328 34.4532 32.2734 33.5547 32.2266 33.5001C32.1406 33.4219 31.3984 29.336 31.4688 29.3126C31.5 29.2969 32.4531 28.7266 33.5938 28.0469C34.7344 27.3672 35.6875 26.8047 35.7266 26.8047C35.7578 26.7969 35.8438 26.9219 35.9141 27.0704ZM4.10156 28.2579C4.35938 28.3829 4.375 28.4063 4.32031 28.6329C4.17188 29.2266 4.32031 29.6407 4.78906 29.9219C4.97656 30.0391 5.17969 30.0782 5.59375 30.0782C6.25781 30.0782 6.78125 29.9297 7.61719 29.5157L8.24219 29.2032L8.75 29.4766C10.0781 30.1876 11.4688 30.2813 11.9922 29.6876C12.1094 29.5547 12.1484 29.4063 12.1484 29.0704C12.1484 28.8282 12.125 28.5782 12.0938 28.5157C12.0469 28.4297 12.1172 28.3594 12.3516 28.2579L12.6641 28.1094L13.0938 28.3751C13.6797 28.7188 14.4453 29.5626 14.75 30.1797C15.1875 31.0547 15.3281 30.9219 12.9688 31.8282C10.7344 32.6797 10.3125 32.8907 9.92969 33.3204C9.20312 34.1563 9.03906 35.4376 9.53906 36.4219L9.69531 36.7344L7.52344 36.6954C5.10938 36.6641 4.88281 36.6251 3.82812 36.1094C3.125 35.7657 2.27344 34.9844 1.875 34.3282C1.4375 33.6016 1.25781 32.961 1.25 32.1407C1.25 30.9766 1.61719 30.0547 2.42188 29.1876C2.84375 28.7422 3.60938 28.1407 3.76562 28.1251C3.79688 28.1251 3.94531 28.1876 4.10156 28.2579Z" fill="#FCFBF8"/>
<path d="M21.6016 12.1719C21.1719 12.4375 20.7812 12.9453 20.7812 13.2266C20.7812 13.5625 21.0547 13.8281 21.3984 13.8281C21.5938 13.8281 21.7422 13.7422 22.0781 13.4219C22.3125 13.2031 22.5234 12.9375 22.5469 12.8359C22.6172 12.5781 22.4453 12.2266 22.2188 12.1172C21.9531 12 21.875 12.0078 21.6016 12.1719Z" fill="#FCFBF8"/>
<path d="M13.3198 15.1094C12.851 15.3281 12.6401 15.5469 12.4292 16.0156C12.0932 16.7578 12.3042 17.3438 12.9057 17.3438C13.2338 17.3438 13.5151 17.0625 13.5151 16.7422C13.5151 16.4922 13.8432 16.1719 14.101 16.1719C14.2104 16.1719 14.437 16.2578 14.5932 16.3672C14.9448 16.6016 15.1479 16.6094 15.4213 16.3984C15.726 16.1562 15.7026 15.7344 15.3745 15.4062C14.8354 14.8906 14.0307 14.7734 13.3198 15.1094Z" fill="#FCFBF8"/>
<path d="M17.7338 19.8203C17.3119 19.9844 17.1947 20.5547 17.515 20.8594C17.6557 20.9922 17.7885 21.0156 18.3354 21.0156C18.8822 21.0156 19.0072 20.9922 19.14 20.8594C19.3744 20.625 19.3744 20.2109 19.1322 19.9609C19.015 19.8438 18.8588 19.8047 18.4135 19.7891C18.1088 19.7812 17.7963 19.7891 17.7338 19.8203Z" fill="#FCFBF8"/>
<path d="M23.6639 19.8516C23.2576 20.0078 23.1873 20.6484 23.5389 20.8984C23.6561 20.9766 23.9061 21.0156 24.3358 21.0156C24.8983 21.0156 24.992 20.9922 25.1404 20.8359C25.3514 20.6094 25.3592 20.2344 25.1639 19.9922C25.0389 19.8359 24.9373 19.8047 24.4451 19.7891C24.1248 19.7812 23.7733 19.8047 23.6639 19.8516Z" fill="#FCFBF8"/>
</svg>
