<svg width="40" height="40" viewBox="0 0 40 40" fill="none" xmlns="http://www.w3.org/2000/svg">
<path d="M26.9141 4.5C23.8594 5.01563 21.1016 6.78906 19.4141 9.33594C18.8984 10.1172 18.4453 11.0234 18.1562 11.8359C18.0391 12.1797 17.9375 12.4688 17.9297 12.4844C17.9141 12.4922 16.0703 12.75 13.8203 13.0547C10.0234 13.5547 9.69531 13.6172 9.25781 13.8281C8.6875 14.1016 8.10156 14.6563 7.85938 15.1484C7.48438 15.8984 5.53125 21.875 3.71875 27.8281L1.82812 34.0156L1.05469 34.2422C0.132812 34.5078 0 34.6016 0 35.0156C0 35.3906 0.21875 35.625 0.570312 35.625C0.992188 35.625 39.7891 24.3203 39.8984 24.1641C39.9531 24.0938 40 23.8984 40 23.7422C40 23.5156 39.9531 23.4141 39.7969 23.2891C39.6797 23.1953 39.5312 23.125 39.4531 23.125C39.3828 23.125 38.6562 23.3203 37.8516 23.5547C37.0391 23.7891 36.375 23.9844 36.3672 23.9844C36.3672 23.9844 36.6172 23.7188 36.9297 23.3906C38.3672 21.8672 39.3516 19.9766 39.8203 17.8672C40.0156 16.9609 40.0234 14.3047 39.8203 13.3828C39.3672 11.2578 38.3359 9.3125 36.875 7.79688C36.25 7.14844 36.1875 7.10938 35.8906 7.10938C35.5 7.10938 35.2812 7.32031 35.2812 7.69531C35.2812 7.91406 35.375 8.05469 35.8672 8.57031C37.375 10.1563 38.2812 11.9141 38.6406 13.9844C38.8281 15.0859 38.7578 16.9531 38.4922 17.9844C37.7031 20.9844 35.8438 23.2734 33.0859 24.6172C31.6641 25.3047 30.3047 25.625 28.75 25.625C26.2109 25.625 23.7891 24.6484 21.9062 22.875C19.7734 20.8516 18.6484 18.0938 18.7812 15.1953C18.8906 12.7109 19.8203 10.5313 21.5469 8.73438C22.3906 7.85156 23.1797 7.25781 24.2031 6.73438C25.6953 5.96094 27.1016 5.625 28.7969 5.625C30.2734 5.625 31.6328 5.92188 32.9609 6.53125C33.6484 6.84375 33.8516 6.85938 34.1016 6.60156C34.3125 6.39844 34.3516 6.10938 34.2109 5.84375C34.1094 5.66406 33.1328 5.1875 32.2266 4.89063C30.7812 4.40625 28.4609 4.23438 26.9141 4.5ZM17.6016 14.1172C17.5781 14.2813 17.5391 14.4375 17.5078 14.4609C17.4844 14.4844 16.5391 14.7344 15.4141 15.0156L13.3672 15.5234L13.2812 14.9844C13.2266 14.6875 13.2031 14.4297 13.2109 14.4141C13.25 14.3828 17.1484 13.8438 17.4375 13.8359C17.6328 13.8281 17.6406 13.8438 17.6016 14.1172ZM11.2344 16.0547C10.7344 16.1875 10.25 16.3594 10.1562 16.4453C9.91406 16.6641 9.94531 17.1328 10.2031 17.3359C10.3203 17.4297 10.4844 17.5 10.5781 17.5C10.6641 17.5 12.2578 17.1172 14.1094 16.6484L17.4766 15.8047L17.5312 16.4766C17.8438 20.4219 20.1875 23.9141 23.7188 25.6875C24.4766 26.0625 25.3047 26.3672 26.125 26.5625C26.4609 26.6484 26.75 26.7266 26.7656 26.7422C26.7812 26.7578 24.0859 27.5547 20.7812 28.5156C17.4688 29.4688 14.75 30.2422 14.7344 30.2266C14.7188 30.2109 14.6172 30.0078 14.5 29.7813C14.3828 29.5469 14.1641 29.2813 13.9922 29.1563L13.6953 28.9453L14.1953 27.6172C14.5078 26.7813 14.7109 26.1172 14.7422 25.8125C14.8281 24.9375 14.4297 24.0781 13.6953 23.5625C13.4922 23.4219 12.9141 23.2031 12.1328 22.9609C11.0859 22.6484 10.8984 22.5703 10.9219 22.4453C10.9375 22.3672 11.1562 21.6641 11.4141 20.875C11.9141 19.3438 11.9375 19.0938 11.6172 18.8672C11.5234 18.8047 11.3516 18.75 11.2344 18.75C10.8203 18.75 10.6719 19 10.1484 20.6406C9.88281 21.4922 9.625 22.1875 9.58594 22.1875C9.49219 22.1875 7.07812 21.4844 7.03906 21.4375C7.02344 21.4297 7.44531 20.1406 7.97656 18.5781C9.21875 14.9219 9.1875 14.9609 11.0156 14.6953L11.9141 14.5625L12.0312 15.1953L12.1484 15.8203L11.2344 16.0547ZM9.89844 23.6172C11.7031 24.1563 12.9531 24.5625 13.0547 24.6563C13.2578 24.8359 13.5078 25.3594 13.5156 25.6094C13.5156 25.7109 13.2656 26.4688 12.9531 27.3047L12.3906 28.8203L11.8594 28.9453C11.5703 29.0078 11.3047 29.0625 11.2656 29.0625C11.2266 29.0625 11.3984 28.4219 11.6484 27.6406C12.1328 26.1406 12.1562 26.0156 12.0312 25.7813C11.9062 25.5547 11.7969 25.5078 9.95312 25.0391C8.04688 24.5469 7.58594 24.3438 7.23438 23.8438C6.89844 23.375 6.67969 22.7344 6.85938 22.7344C6.89062 22.7344 8.25781 23.1328 9.89844 23.6172ZM6.35156 24.7891C6.46094 24.9297 6.72656 25.1719 6.94531 25.3203C7.25 25.5234 7.33594 25.625 7.30469 25.7422C7.28906 25.8281 6.79688 27.0234 6.21875 28.3984L5.17188 30.8906L4.64062 31.0313C4.34375 31.1016 4.09375 31.1484 4.07812 31.1328C4.02344 31.0859 6.03125 24.5313 6.09375 24.5313C6.125 24.5313 6.24219 24.6484 6.35156 24.7891ZM9.69531 26.2734L10.6797 26.5234L9.8125 29.2188L8.9375 31.9141L8.32031 32.125C7.97656 32.2422 7.66406 32.3359 7.61719 32.3359C7.57812 32.3438 7.47656 32.1875 7.39844 31.9922C7.3125 31.7969 7.09375 31.5 6.88281 31.3125L6.51562 30.9766L7.42969 28.7891C7.9375 27.5859 8.39844 26.4688 8.46094 26.3047C8.53125 26.1484 8.60938 26.0156 8.64844 26.0156C8.67969 26.0156 9.15625 26.1328 9.69531 26.2734ZM13.125 30.1172C13.3594 30.2344 13.5 30.5156 13.3828 30.625C13.3203 30.6875 10.6172 31.4844 10.4766 31.4844C10.4375 31.4844 10.4766 31.2656 10.5625 30.9922L10.7266 30.5078L11.7109 30.2656C12.8984 29.9688 12.8438 29.9688 13.125 30.1172ZM6.07031 32.2813C6.42188 32.6797 6.42188 32.6797 4.82031 33.1484C3.99219 33.3906 3.3125 33.5703 3.30469 33.5625C3.28906 33.5547 3.35156 33.3281 3.44531 33.0625C3.625 32.5234 3.51562 32.5938 4.80469 32.2734C5.64844 32.0703 5.875 32.0703 6.07031 32.2813Z" fill="#FCFBF8"/>
<path d="M11.5252 9.09375C10.3924 9.58594 10.0408 11.0937 10.8377 12.0312C11.2362 12.4922 11.6502 12.6875 12.2674 12.6875C12.8533 12.6875 13.2518 12.5156 13.6502 12.0937C14.5174 11.1953 14.1658 9.57812 12.994 9.08594C12.6737 8.95312 11.8299 8.96094 11.5252 9.09375ZM12.6971 10.4297C12.9393 10.6641 12.9471 10.9453 12.7127 11.2187C12.5799 11.375 12.4549 11.4297 12.2674 11.4297C11.9627 11.4297 11.6424 11.1172 11.6424 10.8125C11.6424 10.5391 11.9705 10.2344 12.2674 10.2344C12.4158 10.2344 12.5799 10.3047 12.6971 10.4297Z" fill="#FCFBF8"/>
</svg>
