<svg width="44" height="44" viewBox="0 0 44 44" fill="none" xmlns="http://www.w3.org/2000/svg">
<g clip-path="url(#clip0_6001_2417)">
<path d="M11.3877 1.98594C10.5692 2.15469 9.86047 2.66938 9.51453 3.36969C9.22766 3.935 9.16016 4.5425 9.16016 6.55906V8.39844H9.83516H10.5102V6.47469C10.5186 4.07 10.603 3.77469 11.3961 3.41188C11.7167 3.26 12.223 3.25156 22.1539 3.25156C32.0848 3.25156 32.5911 3.26 32.9117 3.41188C33.7048 3.77469 33.7892 4.07 33.7977 6.47469V8.39844H34.4811H35.1645L35.1308 6.22156C35.1055 4.05313 35.1055 4.05313 34.8608 3.53844C34.4727 2.68625 33.8061 2.16313 32.878 1.98594C32.3295 1.88469 11.9108 1.88469 11.3877 1.98594Z" fill="#FCFBF8"/>
<path d="M5.53281 6.82059L5.32187 6.93028L5.29656 8.4659L5.27969 10.0015H4.81562H4.35156V10.6765V11.3515H2.45312H0.554688V11.7312V12.1109H2.45312H4.35156V12.7859V13.4609H4.81562H5.27969V14.929C5.27969 16.1525 5.305 16.4225 5.41469 16.5322C5.56656 16.6925 6.13187 16.7093 6.27531 16.5659C6.35125 16.49 6.40187 16.49 6.47781 16.5659C6.62125 16.7093 7.18656 16.6925 7.33 16.5406C7.43969 16.4309 7.465 16.4309 7.55781 16.5406C7.70125 16.7093 8.26656 16.7009 8.41 16.5322C8.50281 16.4225 8.51969 15.4859 8.52812 11.7143V7.03153L8.32562 6.87121C8.08094 6.67715 7.90375 6.66871 7.6675 6.83746C7.50719 6.94715 7.465 6.94715 7.24562 6.83746C6.95031 6.68559 6.89969 6.68559 6.61281 6.82903C6.41031 6.93871 6.34281 6.93871 6.14875 6.82903C5.86187 6.68559 5.80281 6.68559 5.53281 6.82059Z" fill="#FCFBF8"/>
<path d="M35.9837 6.87121L35.7812 7.03153L35.7897 11.7143C35.7897 15.4522 35.815 16.4309 35.8994 16.5322C36.0428 16.7009 36.6081 16.7093 36.7516 16.5406C36.8444 16.4309 36.8697 16.4309 36.9794 16.5406C37.1228 16.6925 37.6881 16.7093 37.8316 16.5659C37.9075 16.49 37.9581 16.49 38.0341 16.5659C38.1775 16.7093 38.7428 16.6925 38.8947 16.5322C39.0044 16.4225 39.0297 16.1525 39.0297 14.929V13.4609H39.4937H39.9578V12.7859V12.1109H41.8562H43.7547V11.7312V11.3515H41.8562H39.9578V10.6765V10.0015H39.4937H39.0297V8.49121C39.0297 7.3859 39.0044 6.96403 38.9284 6.89653C38.7091 6.72778 38.4391 6.70247 38.1859 6.82903C37.9666 6.93871 37.8991 6.93871 37.6966 6.82903C37.4097 6.68559 37.3591 6.68559 37.0637 6.83746C36.8444 6.94715 36.8022 6.94715 36.6419 6.83746C36.4056 6.66871 36.2284 6.67715 35.9837 6.87121Z" fill="#FCFBF8"/>
<path d="M8.88296 8.80363C8.7564 8.94707 8.73952 9.27613 8.73952 11.7568C8.73952 15.1402 8.65515 14.8955 9.87858 14.8955C10.6295 14.8955 10.7055 14.8786 10.8995 14.6846L11.1105 14.4736L11.0851 11.6808C11.0598 9.03145 11.0514 8.88801 10.8995 8.76988C10.7814 8.68551 10.4861 8.65176 9.87858 8.65176C9.15296 8.65176 9.00108 8.67707 8.88296 8.80363ZM10.0726 9.35207C10.1064 9.52082 9.86171 9.63894 9.73515 9.51238C9.60858 9.38582 9.72671 9.14113 9.89546 9.17488C9.97983 9.19176 10.0558 9.26769 10.0726 9.35207ZM10.0726 11.7568C10.098 11.8918 10.0558 11.9424 9.92921 11.9424C9.70983 11.9424 9.62546 11.7989 9.76046 11.6386C9.89546 11.4783 10.0389 11.5289 10.0726 11.7568ZM10.0895 14.1277C10.0895 14.3555 9.92921 14.4314 9.77733 14.2796C9.62546 14.1277 9.7014 13.9674 9.92921 13.9674C10.0305 13.9674 10.0895 14.0264 10.0895 14.1277Z" fill="#FCFBF8"/>
<path d="M33.4338 8.80349C33.3072 8.94693 33.2903 9.27599 33.2903 11.7566C33.2903 15.1316 33.2059 14.8954 34.4209 14.8954C35.0706 14.8954 35.2478 14.8701 35.4081 14.7351L35.6106 14.5747L35.6359 11.9254C35.6528 10.4741 35.6359 9.20005 35.6106 9.0988C35.5178 8.71068 35.3575 8.65161 34.4378 8.65161C33.7038 8.65161 33.5519 8.67693 33.4338 8.80349ZM34.6234 9.35193C34.6572 9.52068 34.4125 9.6388 34.2859 9.51224C34.1594 9.38568 34.2775 9.14099 34.4463 9.17474C34.5306 9.19161 34.6066 9.26755 34.6234 9.35193ZM34.6234 11.7566C34.6488 11.8916 34.6066 11.9422 34.48 11.9422C34.2606 11.9422 34.1763 11.7988 34.3113 11.6385C34.4463 11.4782 34.5897 11.5288 34.6234 11.7566ZM34.6403 14.1276C34.6403 14.3554 34.48 14.4313 34.3281 14.2794C34.1763 14.1276 34.2522 13.9672 34.48 13.9672C34.5813 13.9672 34.6403 14.0263 34.6403 14.1276Z" fill="#FCFBF8"/>
<path d="M14.7036 11.1321C14.3914 11.3515 14.3661 11.3515 12.8305 11.3515H11.2695V11.7312V12.1108H22.1539H33.0383V11.7312V11.3515H31.4773C29.9417 11.3515 29.9164 11.3515 29.6042 11.1321C29.3427 10.9549 29.2161 10.9212 28.9123 10.9549C28.7183 10.9802 28.4398 11.073 28.3048 11.1743C28.0686 11.3515 28.0348 11.3515 22.1539 11.3515C16.273 11.3515 16.2392 11.3515 16.003 11.1743C15.868 11.073 15.5895 10.9802 15.3955 10.9549C15.0917 10.9212 14.9652 10.9549 14.7036 11.1321Z" fill="#FCFBF8"/>
<path d="M14.3416 12.4233C14.3669 12.5077 15.1094 14.9293 15.9869 17.8065C16.8644 20.6837 17.6237 23.139 17.6744 23.2571C17.7166 23.3837 17.9697 23.6621 18.2228 23.8899L18.6953 24.2949V27.8218V31.3487L18.5097 31.3908C18.4 31.4162 17.9444 31.509 17.4887 31.6018C17.0331 31.6946 16.6028 31.8043 16.5184 31.8465C16.2906 31.973 15.9278 32.3865 15.835 32.6312C15.6662 33.0783 14.0547 40.1574 14.0547 40.4443C14.0547 40.8746 14.3669 41.4483 14.7212 41.693C15.5228 42.2246 16.7125 41.9124 17.0584 41.0855C17.1175 40.9421 17.4803 39.4908 17.8516 37.8793C18.2228 36.2593 18.5603 34.8587 18.5941 34.7743C18.6531 34.6393 18.9484 34.5549 20.3069 34.2849C21.2097 34.1077 22.0028 33.9558 22.0703 33.9474C22.1378 33.9305 22.9731 34.074 23.9181 34.2596C25.3694 34.5465 25.6478 34.6224 25.7069 34.7658C25.7491 34.8587 26.0866 36.2593 26.4578 37.8793C26.8291 39.4908 27.1919 40.9421 27.2509 41.0855C27.5969 41.9124 28.7866 42.2246 29.5881 41.693C29.9425 41.4483 30.2547 40.8746 30.2547 40.4443C30.2547 40.1574 28.6431 33.0783 28.4744 32.6312C28.3816 32.3865 28.0187 31.973 27.7909 31.8465C27.7066 31.8043 27.2762 31.6946 26.8206 31.6018C26.365 31.509 25.9094 31.4162 25.8081 31.3908L25.6141 31.3487V27.8218V24.2949L26.0866 23.8899C26.3397 23.6621 26.5928 23.3837 26.635 23.2571C26.6856 23.139 27.445 20.6837 28.3225 17.8065C29.2 14.9293 29.9425 12.5077 29.9678 12.4233C30.01 12.2883 29.9341 12.2799 28.9047 12.2968L27.7909 12.3221L26.2806 17.258C24.9728 21.5274 24.7366 22.2193 24.5256 22.4302L24.2894 22.6749H22.1547H20.02L19.7837 22.4302C19.5728 22.2193 19.3366 21.519 18.0287 17.258L16.5184 12.3221L15.4047 12.2968C14.3753 12.2799 14.2994 12.2883 14.3416 12.4233Z" fill="#FCFBF8"/>
<path d="M9.16016 27.9735V40.8829H8.52734H7.89453V41.5579V42.2329H9.87734H11.8602V41.5579V40.8829H11.1852H10.5102V27.9735V15.0642H9.83516H9.16016V27.9735Z" fill="#FCFBF8"/>
<path d="M33.7992 27.9735V40.8829H33.1242H32.4492V41.5579V42.2329H34.432H36.4148V41.5579V40.8829H35.782H35.1492V27.9735V15.0642H34.4742H33.7992V27.9735Z" fill="#FCFBF8"/>
<path d="M21.4881 16.76C20.7119 16.9119 19.9187 17.5616 19.5475 18.3462C19.3619 18.7428 19.3281 18.9369 19.3281 19.5781C19.3281 20.2362 19.3619 20.3966 19.5644 20.81C19.8259 21.3416 20.3491 21.8731 20.9059 22.16C21.4544 22.4469 22.5428 22.4806 23.1841 22.2359C25.3103 21.4428 25.6731 18.4981 23.8084 17.2156C23.125 16.7431 22.3403 16.5912 21.4881 16.76Z" fill="#FCFBF8"/>
<path d="M20.5104 34.5463C19.6751 34.7151 18.9495 34.8754 18.8989 34.9092C18.8398 34.9429 18.7723 35.1117 18.747 35.2804C18.7133 35.4407 18.6626 35.6348 18.6373 35.7023C18.6036 35.8035 18.8229 35.8204 20.0379 35.8204H21.4808V37.9298V40.0392H19.557H17.6333L17.5067 40.5623C17.4308 40.8576 17.3464 41.1613 17.3126 41.2373C17.2451 41.3807 17.5067 41.3892 22.1558 41.3892C26.8048 41.3892 27.0664 41.3807 26.9989 41.2373C26.9651 41.1613 26.8808 40.8576 26.8048 40.5623L26.6783 40.0392H24.7545H22.8308V37.9298V35.8204H24.2736C25.4886 35.8204 25.7079 35.8035 25.6742 35.7023C25.6489 35.6348 25.5983 35.4492 25.5729 35.2804C25.5392 35.1201 25.4717 34.9513 25.4126 34.9092C25.3367 34.8417 22.1895 34.2004 22.0714 34.2257C22.0461 34.2342 21.3458 34.3776 20.5104 34.5463Z" fill="#FCFBF8"/>
<path d="M17.4297 41.6846C17.4297 41.8786 17.4634 41.8955 17.8094 41.8955C18.1553 41.8955 18.1891 41.8786 18.1891 41.6846C18.1891 41.4905 18.1553 41.4736 17.8094 41.4736C17.4634 41.4736 17.4297 41.4905 17.4297 41.6846Z" fill="#FCFBF8"/>
<path d="M26.1211 41.6846C26.1211 41.8786 26.1548 41.8955 26.5008 41.8955C26.8467 41.8955 26.8805 41.8786 26.8805 41.6846C26.8805 41.4905 26.8467 41.4736 26.5008 41.4736C26.1548 41.4736 26.1211 41.4905 26.1211 41.6846Z" fill="#FCFBF8"/>
</g>
<defs>
<clipPath id="clip0_6001_2417">
<rect width="43.2" height="43.2" fill="white" transform="translate(0.554688 0.467285)"/>
</clipPath>
</defs>
</svg>
