<svg width="44" height="44" viewBox="0 0 44 44" fill="none" xmlns="http://www.w3.org/2000/svg">
<g clip-path="url(#clip0_6001_1591)">
<path d="M32.0973 0.560002C31.9707 0.627502 31.9454 0.77094 31.9454 1.39531V2.15469H31.2788C30.7473 2.15469 30.5448 2.12094 30.3001 1.9775C29.9204 1.74969 29.3804 1.79188 28.9838 2.07875C28.7729 2.23063 28.562 2.28969 28.1317 2.30656L27.5579 2.34031V1.71594C27.5579 0.863752 27.4482 0.720315 26.807 0.720315C26.1235 0.720315 25.7945 0.796252 25.6932 0.981877C25.6426 1.09156 25.6426 1.73281 25.7017 2.93938C25.8113 5.11625 25.786 5.06563 26.7901 4.98125C27.6423 4.90531 27.7182 4.82094 27.6592 3.97719C27.6085 3.20938 27.4398 3.27688 29.5829 3.20938C30.4435 3.18406 31.3463 3.14188 31.591 3.11656L32.0298 3.06594V3.69031C32.0298 4.59313 32.1142 4.68594 32.9495 4.68594C33.4642 4.68594 33.6582 4.65219 33.8017 4.53406L33.9873 4.38219L33.8945 2.54281C33.8438 1.42906 33.7679 0.652814 33.7088 0.585314C33.5907 0.441877 32.3251 0.425002 32.0973 0.560002Z" fill="#FCFBF8"/>
<path d="M29.2253 3.4795C28.8625 3.49637 28.5672 3.53856 28.5672 3.58075C28.5672 3.6145 28.795 5.0995 29.065 6.87981L29.5628 10.1114L27.8331 12.8198C26.8713 14.3132 26.0359 15.5789 25.96 15.6295C25.8672 15.7139 25.1163 15.7392 22.8634 15.7392H19.885L17.8938 16.2032C16.8053 16.4564 15.8688 16.6673 15.8266 16.6673C15.7759 16.6673 15.7422 15.9417 15.7422 14.7267V12.7861H14.5272H13.3206L13.2616 13.5623C13.2363 13.9842 13.2109 15.2836 13.2109 16.4479C13.2109 18.4898 13.2194 18.5742 13.405 18.9032C13.54 19.1479 13.7003 19.2829 13.9956 19.4011L14.4006 19.5698L16.78 19.0214L19.1594 18.4729L19.1847 22.1517L19.2016 25.8389L18.5688 33.5845C18.2228 37.837 17.9359 41.5326 17.9359 41.7773C17.9359 42.5536 18.2988 43.1611 18.9653 43.507C19.345 43.7011 20.1719 43.7264 20.5853 43.5492C20.9566 43.3973 21.4544 42.8742 21.5725 42.5029C21.6316 42.3342 21.9269 39.1026 22.2306 35.3142L22.7875 28.4376L23.2769 28.4123C23.5384 28.3954 23.7578 28.3954 23.7578 28.4123C23.7663 28.4292 24.0278 31.5764 24.34 35.4154C24.9138 42.3679 24.9138 42.3848 25.1416 42.7729C25.4959 43.3804 25.9263 43.6167 26.7025 43.6504C27.2425 43.6673 27.3944 43.642 27.6813 43.4817C28.1031 43.237 28.5419 42.6548 28.6178 42.2498C28.6516 42.0642 28.4153 38.7061 28.0272 33.922L27.3775 25.9064L27.3859 21.8142V17.7304L27.715 17.4267C27.9091 17.2579 28.8372 15.8995 29.9425 14.1782C32.0941 10.8117 32.1109 10.7864 32.1025 10.4067C32.1025 10.2548 31.8663 8.62637 31.5794 6.79544L31.0563 3.46262L30.4656 3.45419C30.145 3.45419 29.5797 3.46262 29.2253 3.4795Z" fill="#FCFBF8"/>
<path d="M22.2675 8.26377C21.3562 8.55908 20.4619 9.38595 20.1159 10.2381C19.9641 10.6263 19.9303 10.8878 19.9219 11.5628C19.9219 12.356 19.9387 12.4488 20.2003 12.9803C21.0525 14.71 22.9847 15.3935 24.765 14.6003C25.3556 14.3303 26.0728 13.63 26.3681 13.0225C27.1781 11.3266 26.4356 9.25939 24.7059 8.43252C24.3094 8.23845 24.09 8.19627 23.4234 8.17095C22.9087 8.15408 22.4953 8.18783 22.2675 8.26377Z" fill="#FCFBF8"/>
<path d="M10.4872 10.0694C10.3606 10.2044 10.3438 10.4744 10.3438 12.0522C10.3438 13.5962 10.3606 13.8915 10.4787 14.0012C10.5716 14.1025 10.7825 14.1362 11.3141 14.1362C12.2 14.1362 12.2844 14.0519 12.2844 13.149V12.5331H14.4781H16.6719V13.2334C16.6719 13.6637 16.7141 13.9759 16.7731 14.035C16.9081 14.17 18.2919 14.17 18.4269 14.035C18.5028 13.959 18.5281 13.4022 18.5281 12.0606C18.5281 9.82467 18.5703 9.91748 17.6337 9.91748C16.7056 9.91748 16.6719 9.94279 16.6719 10.8034V11.5206H16.0897C15.6341 11.5206 15.4316 11.4784 15.1869 11.335C14.7734 11.0903 14.1322 11.0903 13.7947 11.3434C13.6006 11.4869 13.4319 11.5206 12.9172 11.5206H12.2844V10.9047C12.2844 10.0019 12.2 9.91748 11.3225 9.91748C10.7487 9.91748 10.5969 9.94279 10.4872 10.0694Z" fill="#FCFBF8"/>
</g>
<defs>
<clipPath id="clip0_6001_1591">
<rect width="43.2" height="43.2" fill="white" transform="translate(0.554688 0.467285)"/>
</clipPath>
</defs>
</svg>
