<svg width="46" height="46" viewBox="0 0 46 46" fill="none" xmlns="http://www.w3.org/2000/svg">
<g clip-path="url(#clip0_6001_1801)">
<path d="M16.3639 6.36194C16.9349 6.47615 17.6289 6.84511 17.9539 7.20528C19.0608 8.47029 18.9817 10.6226 17.7343 13.4688L17.3653 14.3034L17.4795 15.2258C17.7167 17.2199 18.2175 18.81 18.9554 19.9256C19.4122 20.6196 20.5366 21.7792 21.336 22.3942L21.9685 22.8861L23.1457 22.482C25.0871 21.8231 27.1164 21.3663 29.3653 21.094C30.5864 20.9447 35.0754 20.9447 36.3053 21.094C37.7899 21.2785 39.3624 21.5508 39.6874 21.6914C41.3829 22.3942 41.5498 24.9681 39.9686 25.8905C39.3097 26.277 38.8441 26.3297 37.6582 26.1277C32.6245 25.2843 27.8368 25.7236 23.5762 27.4278C22.8031 27.7441 21.2131 28.5611 20.6508 28.9388C19.8338 29.4923 19.4737 29.6328 18.7797 29.6328C18.2789 29.6328 18.0593 29.5889 17.6201 29.3781C17.1369 29.1496 16.97 28.9915 16.0037 27.8144C13.1574 24.3971 11.339 22.6138 8.45757 20.4352C7.65815 19.829 7.59666 19.8026 7.00808 19.7499C6.09446 19.6621 4.66254 19.3722 3.85435 19.1174C2.25552 18.6167 1.10471 17.747 0.726967 16.7543C0.56884 16.3327 0.542488 16.0955 0.56884 15.4805C0.595196 14.8217 0.639118 14.6548 0.937801 14.0311C1.2277 13.4513 1.44732 13.1701 2.25552 12.3707C2.79139 11.8349 3.58202 11.1496 4.02126 10.8422L4.81189 10.2887L4.87338 10.8158C4.9788 11.7294 5.33019 12.6958 5.7255 13.1526C5.85727 13.3019 5.83971 13.3283 5.47075 13.6357C4.79432 14.1804 3.97733 14.9798 3.78407 15.2961C3.57323 15.6387 3.57323 15.6387 4.2848 15.9637C4.83824 16.2185 5.62009 16.4117 6.74454 16.5874C7.86899 16.7543 7.98319 16.7543 8.2643 16.5611C8.39607 16.4732 9.79285 15.7704 11.3741 15.0062L14.2467 13.6182L14.6508 12.7397C15.1604 11.6328 15.5469 10.4908 15.6259 9.8495L15.6787 9.36634L15.2043 9.43661C14.9407 9.48054 14.5542 9.57717 14.3434 9.64745C14.1413 9.71773 13.9568 9.77922 13.9481 9.77922C13.9305 9.77922 13.8426 9.51568 13.7372 9.18186C13.544 8.54057 13.2101 7.96956 12.7182 7.41612L12.3931 7.06473L12.7182 6.93295C13.5615 6.58156 15.0286 6.25653 15.705 6.2741C15.8456 6.28288 16.1442 6.31802 16.3639 6.36194Z" fill="#FCFBF8"/>
<path d="M10.3054 6.36164C11.5967 6.60761 12.8617 7.69693 13.3888 8.99707C13.6787 9.72621 13.7226 10.9824 13.4767 11.7906C13.1077 12.9941 12.1062 14.0835 10.9466 14.5227C10.3054 14.7687 9.11063 14.8565 8.45177 14.6984C6.29072 14.1889 4.87637 12.1157 5.19262 9.93704C5.5528 7.47731 7.82805 5.87848 10.3054 6.36164Z" fill="#FCFBF8"/>
<path d="M37.1847 19.1437C38.6605 19.2579 39.8201 19.4424 40.154 19.6093C40.9709 20.0309 41.4365 20.7864 41.4453 21.7264C41.4453 22.0426 41.4102 22.3677 41.375 22.4643C41.3223 22.6049 41.2784 22.5873 41.0588 22.2798C40.5141 21.5243 39.8992 21.1817 38.7484 20.9797C33.3194 20.0222 27.9519 20.3648 23.173 21.9899C22.602 22.1832 22.0749 22.3413 22.0134 22.3413C21.7059 22.3413 21.987 22.1481 22.9446 21.7C25.5097 20.4965 28.3648 19.6883 31.3867 19.3018C32.4497 19.17 36.1657 19.0734 37.1847 19.1437Z" fill="#FCFBF8"/>
<path d="M10.3642 22.5434C12.1035 24.0368 14.2646 26.3472 16.2763 28.8597C16.4959 29.132 16.821 29.4395 17.0054 29.5449C17.1899 29.6503 17.3656 29.7909 17.392 29.8611C17.4183 29.9314 17.471 29.9578 17.515 29.9402C17.5501 29.9138 17.8136 29.9578 18.086 30.0368C19.0523 30.3179 19.6057 30.151 21.3451 29.0705C21.8283 28.763 22.6453 28.3414 23.146 28.1218C24.1035 27.7001 25.8341 27.1027 26.2031 27.0676C26.3964 27.0412 26.5896 27.3311 28.2851 30.0632C29.3129 31.7323 30.1562 33.1203 30.1562 33.1554C30.1562 33.2169 28.6804 34.1657 28.4432 34.2535C28.3729 34.2799 28.0743 33.8758 27.6526 33.1906C26.9937 32.11 26.9674 32.0837 26.7829 32.2155C26.6775 32.2857 25.2807 33.1379 23.6907 34.1218C22.1006 35.0969 20.7478 35.949 20.6775 36.0105C20.5808 36.0983 20.6336 36.3092 21.064 37.3194C21.3451 37.9695 21.556 38.5229 21.5384 38.5405C21.3627 38.6986 19.7463 39.6298 19.6936 39.6035C19.6672 39.5771 19.5091 39.2345 19.3422 38.8392C18.9117 37.7323 17.84 35.4043 17.146 33.9988C15.3803 30.4761 13.0172 26.6811 10.5486 23.4131C9.88099 22.5259 9.34512 21.7791 9.36269 21.7616C9.38026 21.7352 9.82828 22.0954 10.3642 22.5434ZM21.4945 30.0368C19.8781 31.0383 18.5603 31.8816 18.5603 31.9256C18.5603 31.9958 19.9396 34.807 20.0098 34.886C20.0274 34.9036 21.4505 34.0603 23.1636 32.9973C25.3949 31.6269 26.2734 31.0471 26.2382 30.9505C26.1416 30.6781 24.5955 28.2272 24.5164 28.2272C24.4725 28.2272 23.1109 29.0442 21.4945 30.0368Z" fill="#FCFBF8"/>
<path d="M45.2941 26.1015L45.5312 26.3474V31.5392V36.7222L45.3028 36.9594C45.1535 37.1 44.969 37.1878 44.8197 37.1878C44.5825 37.1878 44.5649 37.2142 44.5649 37.5392V37.8906H43.3351H42.1052V37.5392V37.1878H39.8651H37.625V37.5392V37.8906H36.3951H35.1652V37.5392C35.1652 37.2142 35.1476 37.1878 34.9105 37.1878C34.7611 37.1878 34.5766 37.1 34.4273 36.9594L34.1989 36.7222V31.5129C34.1989 28.2625 34.234 26.2859 34.2867 26.2508C34.3834 26.1893 35.9383 26.3386 37.1418 26.5231C39.0305 26.8218 39.6015 26.7603 40.3834 26.163L40.7875 25.8555H42.9222H45.0569L45.2941 26.1015Z" fill="#FCFBF8"/>
</g>
<defs>
<clipPath id="clip0_6001_1801">
<rect width="44.978" height="44.978" fill="white" transform="matrix(-1 0 0 1 45.5312 0.467285)"/>
</clipPath>
</defs>
</svg>
