<svg width="40" height="40" viewBox="0 0 40 40" fill="none" xmlns="http://www.w3.org/2000/svg">
<path d="M18.8281 1.48438V2.96875H24.2578H29.6875V1.48438V0H24.2578H18.8281V1.48438Z" fill="#FCFBF8"/>
<path d="M15.9355 7.90625C14.709 9.375 13.6621 10.6406 13.6074 10.7188C13.5058 10.8516 13.6855 10.8594 18.623 10.8594H23.7324L26.0449 8.08594C27.3183 6.5625 28.3574 5.29688 28.3574 5.27344C28.3574 5.25 26.0605 5.23438 23.2558 5.23438H18.1621L15.9355 7.90625Z" fill="#FCFBF8"/>
<path d="M28.7813 8.29688C27.672 9.63281 26.7501 10.7578 26.7345 10.7969C26.7188 10.8281 28.5548 10.8594 30.8204 10.8594C33.4845 10.8594 34.922 10.8359 34.9063 10.7812C34.8829 10.7031 30.9376 5.94531 30.8595 5.89844C30.8282 5.88281 29.8985 6.96094 28.7813 8.29688Z" fill="#FCFBF8"/>
<path d="M12.1875 15.0781C12.1875 16.1484 12.2031 17.0312 12.2188 17.0312C12.2344 17.0312 12.5391 17.0859 12.8906 17.1562C15.6875 17.6875 18.2266 19.5703 19.5547 22.1016C20.3281 23.5781 20.6562 24.9219 20.6562 26.6016C20.6562 27.7734 20.5781 28.3281 20.2656 29.3594C19.5234 31.8281 17.7422 33.9531 15.4219 35.1328C14.5234 35.5859 13.6172 35.9062 12.7969 36.0391L12.2266 36.1406L12.2031 38.0703L12.1875 40H17.6562H23.125V26.5625V13.125H17.6562H12.1875V15.0781Z" fill="#FCFBF8"/>
<path d="M25.3906 26.5625V40H30.8594H36.3281L36.3125 26.5781L36.2891 13.1641L30.8438 13.1406L25.3906 13.125V26.5625Z" fill="#FCFBF8"/>
<path d="M10.0463 19.3048C7.31194 19.7032 5.01507 21.586 4.12444 24.1407C3.59319 25.6798 3.60882 27.6798 4.17913 29.1876C5.04632 31.4923 7.14007 33.2892 9.54632 33.7813C10.2416 33.922 11.6948 33.9454 12.3901 33.8204C15.6869 33.2423 18.1479 30.4688 18.4057 27.0548C18.5073 25.6642 18.1166 24.047 17.3744 22.7892C16.8588 21.9298 15.726 20.797 14.8666 20.2813C13.4291 19.4376 11.6479 19.0704 10.0463 19.3048ZM11.9916 21.7579C12.5385 21.8751 13.5151 22.2423 13.5151 22.336C13.5151 22.3595 12.0073 23.8907 10.1557 25.7423L6.80413 29.0938L6.60882 28.672C6.16351 27.6954 6.03851 26.3595 6.29632 25.3595C6.67132 23.9142 7.85101 22.5704 9.24163 22.0235C10.1791 21.6485 11.0619 21.5626 11.9916 21.7579ZM15.5698 24.6095C16.6557 27.1095 15.5307 29.9688 13.0151 31.0938C12.3276 31.3985 11.851 31.5001 11.0541 31.4923C10.2885 31.4923 9.65569 31.3517 8.98382 31.047L8.56194 30.8517L11.9135 27.5001C13.7651 25.6485 15.2963 24.1407 15.3198 24.1407C15.351 24.1407 15.4604 24.3517 15.5698 24.6095Z" fill="#FCFBF8"/>
</svg>
