<svg width="40" height="40" viewBox="0 0 40 40" fill="none" xmlns="http://www.w3.org/2000/svg">
<path d="M29.7094 0.429512C29.6079 0.499824 29.4673 0.788887 29.3423 1.18732C29.0298 2.1717 28.5532 3.07014 28.1626 3.42951C27.7719 3.78889 27.4282 3.90607 26.9282 3.85139C26.6235 3.81232 26.5454 3.83576 26.3735 4.00764C25.9673 4.41389 26.1391 4.84357 26.8188 5.15607C27.6704 5.53889 27.9516 6.02326 27.8501 6.9217C27.7876 7.53889 27.9048 7.78107 28.3188 7.8592C28.7016 7.92951 28.8579 7.7967 29.2016 7.11701C29.4438 6.62482 29.5454 6.49982 29.8423 6.34357C30.1548 6.17951 30.2641 6.16389 30.7563 6.20295C31.4438 6.25764 31.6782 6.16389 31.7954 5.81232C31.9126 5.46076 31.7407 5.12482 31.3735 4.99982C31.0141 4.88264 30.5688 4.38264 30.4907 4.00764C30.3969 3.55451 30.4438 2.2967 30.5766 1.65607C30.7407 0.882637 30.7329 0.726387 30.5063 0.507637C30.2876 0.288887 29.9594 0.257637 29.7094 0.429512ZM29.3579 4.5467C29.4126 4.7342 29.4751 4.9217 29.4985 4.96857C29.5298 5.0467 28.9985 5.42951 28.936 5.36701C28.9204 5.3592 28.8266 5.22639 28.7251 5.07795L28.5454 4.80451L28.8579 4.51545C29.0376 4.3592 29.1938 4.22639 29.2173 4.21857C29.2407 4.21857 29.3032 4.36701 29.3579 4.5467Z" fill="#FCFBF8"/>
<path d="M14.3585 2.57804C14.2491 2.65617 14.1007 2.88273 14.0304 3.07023L13.8975 3.41398L13.4757 3.25773C12.96 3.07023 12.6475 3.15617 12.4913 3.53117C12.335 3.91398 12.4679 4.14835 12.9835 4.39835L13.4288 4.60929L13.2804 4.94523C13.0929 5.35148 13.085 5.53898 13.2491 5.76554C13.4288 6.02335 13.6944 6.10148 13.9913 5.99992C14.1788 5.93742 14.2804 5.82023 14.421 5.49992L14.6007 5.09367L15.0069 5.2421C15.6007 5.46867 16.0147 5.28117 16.0147 4.78898C16.0147 4.39835 15.9132 4.25773 15.4757 4.07023L15.085 3.90617L15.2413 3.47648C15.4054 2.99992 15.3585 2.75773 15.0616 2.54679C14.8272 2.38273 14.5929 2.39054 14.3585 2.57804Z" fill="#FCFBF8"/>
<path d="M23.3214 5.34375C23.0167 5.48438 22.1417 6.38281 22.0402 6.65625C21.8917 7.04688 22.2199 7.5 22.6417 7.5C22.8683 7.5 24.1183 6.3125 24.1886 6.03906C24.2667 5.75781 24.0792 5.41406 23.8136 5.32031C23.6808 5.27344 23.5714 5.23438 23.5636 5.23438C23.5558 5.24219 23.4542 5.28906 23.3214 5.34375Z" fill="#FCFBF8"/>
<path d="M3.29688 5.89835C3.21094 6.00773 3.11719 6.24991 3.08594 6.44523C2.92969 7.50773 2.39844 7.9921 1.26562 8.12491C0.601562 8.19523 0.390625 8.35148 0.390625 8.75773C0.390625 9.10148 0.671875 9.34366 1.20312 9.44523C2.21875 9.63273 2.6875 10.1562 2.8125 11.2187C2.85938 11.703 2.91406 11.8593 3.04688 11.9687C3.24219 12.1249 3.60156 12.1484 3.82812 12.0312C3.96875 11.953 4.00781 11.8515 4.21875 11.0077C4.40625 10.2655 5.01562 9.79679 5.90625 9.71085C6.57812 9.64835 6.79688 9.48429 6.79688 9.02335C6.79688 8.82804 6.75 8.65616 6.67969 8.59366C6.625 8.54679 6.29688 8.43741 5.96094 8.35148C4.95312 8.10148 4.51562 7.59366 4.39062 6.53898C4.3125 5.90616 4.15625 5.70304 3.74219 5.70304C3.52344 5.70304 3.41406 5.74991 3.29688 5.89835ZM3.96094 9.1171C3.82812 9.21866 3.69531 9.33585 3.66406 9.38273C3.63281 9.43741 3.51562 9.3671 3.34375 9.1796L3.07031 8.88273L3.35156 8.62491L3.63281 8.3671L3.91406 8.65616L4.20312 8.94523L3.96094 9.1171Z" fill="#FCFBF8"/>
<path d="M12.2422 6.71859C12.0781 6.74984 11.8516 6.84359 11.7422 6.92952C11.2969 7.25765 11.2734 7.39046 11.0859 10.6014L10.9141 13.578L10.3359 14.1717C9.96875 14.5467 9.67969 14.9295 9.54688 15.2108C9.33594 15.6561 9.33594 15.6873 9.35156 17.1092C9.35938 17.9061 9.40625 19.1014 9.45312 19.7733L9.54688 20.992L9.15625 22.0389C8.5625 23.617 8.32812 24.492 8.32812 25.078C8.32812 25.6483 8.46094 25.9608 9.30469 27.3514C9.5625 27.7889 9.82812 28.2811 9.89062 28.453C10.0312 28.8592 11.0625 30.703 11.5703 31.4686C13.2109 33.9061 14.1797 34.6795 17.4062 36.1014C19.3125 36.9451 19.9844 37.2811 20.0234 37.4139C20.1406 37.7967 20.625 38.8514 20.7422 38.9842C20.9609 39.2264 21.4297 39.1951 21.6328 38.9373C21.7266 38.8201 21.7969 38.6561 21.7969 38.5701C21.7969 38.4842 21.6172 37.9608 21.3906 37.4139C20.9141 36.2108 21.1562 36.3983 18.375 35.1483C15.0625 33.6561 14.3906 33.1873 13.1016 31.4451C12.2031 30.2264 11.0156 28.078 11.0156 27.6717C11.0156 27.1014 11.8672 24.5233 12.625 22.8045C13.2109 21.4842 13.375 21.203 13.7266 20.9686C14.0938 20.7264 15.9688 20.4451 18.3984 20.2733L19.1016 20.2186L19.8047 20.578C20.6172 20.992 21.3359 21.5155 21.9922 22.1795L22.4531 22.6561L22.2266 22.8983C21.8906 23.2498 21.6016 23.367 21.125 23.367C20.4297 23.367 19.8594 23.1092 19.4062 22.5858L19.2422 22.3983L17.1953 22.3905C15.2422 22.3826 15.1406 22.3905 15 22.5389C14.9219 22.6248 14.8359 22.8201 14.8047 22.9686C14.7734 23.117 14.5781 23.7733 14.3672 24.4295C13.6484 26.6951 13.6875 27.203 14.6719 28.1405C15.2188 28.6639 15.5 28.7264 15.8203 28.3983C16.1328 28.0936 16.0859 27.7967 15.6328 27.3201C15.4297 27.0936 15.2188 26.8436 15.1719 26.7498C15.0625 26.5467 15.1875 25.9998 15.6328 24.6092L15.9531 23.6326L17.2969 23.6405H18.6484L18.9844 23.9295C19.4844 24.3592 20.0547 24.5467 20.9531 24.5936C22.0156 24.6405 22.3828 24.5076 23.0625 23.828C23.9297 22.9608 23.9453 22.4139 23.125 21.5311L22.6562 21.0311L22.8516 20.6951C23.2344 20.0155 23.0859 19.578 22.1797 18.7108C21.4922 18.0545 20.4297 17.3201 19.5781 16.9217C18.8906 16.5936 18.5 16.4842 18.0312 16.4842H17.6562V15.4451C17.6562 13.9686 17.7344 13.617 18.1875 12.9061C18.9297 11.7498 19.2656 10.9373 19.3594 10.0623C19.4141 9.59358 19.4297 9.57015 19.6484 9.52327C19.7812 9.49202 20.1406 9.46858 20.4609 9.46077L21.0312 9.45296L20.9766 9.6639C20.8359 10.242 20.5391 11.7733 20.4219 12.578C20.25 13.8045 20.3047 14.4061 20.6562 15.117C20.8984 15.5936 21.2578 15.9998 23.5781 18.3748C25.0391 19.867 26.3594 21.2811 26.5234 21.5311C26.8828 22.0701 27.0156 22.492 27.3828 24.1795C27.9531 26.8201 27.9766 27.1248 28.0469 30.8983C28.1094 34.5076 28.1562 35.0233 28.5234 36.2108C28.875 37.3514 29.3906 38.2811 29.7578 38.4295C30.0234 38.5467 30.3203 38.4451 30.5 38.1873C30.6875 37.9217 30.6562 37.7576 30.3203 37.1951C30.1562 36.9139 29.9297 36.4295 29.8203 36.1248C29.3906 34.9217 29.3594 34.6639 29.2969 30.9373C29.2266 27.0155 29.1797 26.5389 28.5469 23.6795C28.1406 21.8592 28.0703 21.6405 27.6016 20.9139C27.2266 20.328 26.8203 19.8826 23.9062 16.9061C22.7188 15.703 21.8438 14.7498 21.7578 14.5623C21.6797 14.3983 21.6016 14.1014 21.5781 13.9061C21.5391 13.4608 21.7344 12.0936 22.0391 10.703C22.3125 9.44515 22.3125 9.27327 22.0859 8.86702C21.7422 8.25765 20.8125 8.04671 19.5 8.2889L19.0469 8.36702L18.7578 8.05452C18.4297 7.70296 18.1719 7.57796 17.7344 7.57796C17.2422 7.57796 17.0391 7.70296 16.2109 8.52327L15.4141 9.30452L15.3203 8.96858C14.8906 7.5389 13.4609 6.49202 12.2422 6.71859ZM13.1797 8.14827C13.7656 8.45296 14.2188 9.2889 14.2188 10.0701C14.2188 10.4295 14.2109 10.4451 13.2422 11.4061L12.2656 12.3826V12.0311C12.2656 11.8358 12.3203 10.8905 12.3828 9.92171C12.4453 8.95296 12.5 8.1014 12.5 8.03108C12.5 7.92952 12.5391 7.9139 12.7188 7.96077C12.8438 7.99983 13.0469 8.08577 13.1797 8.14827ZM18.0234 9.24983C18.1094 9.4139 18.1328 9.60921 18.1016 9.95296C18.0078 11.0233 16.5781 13.2889 15.0312 14.8201C14.1953 15.6483 13.9453 16.0155 13.8594 16.5389L13.8125 16.8436L13.1484 16.9451C11.9531 17.117 11.4219 17.4295 10.8438 18.3045L10.6484 18.5936L10.6016 17.8826C10.4609 15.8983 10.5156 15.7108 11.625 14.703C12.0391 14.328 13.5703 12.8592 15.0391 11.4295C17.8672 8.67171 17.7656 8.74983 18.0234 9.24983ZM16.375 16.5389C16.3594 16.5545 16.0781 16.5936 15.75 16.617C15.2891 16.6561 15.1562 16.6405 15.1562 16.5623C15.1562 16.5076 15.4297 16.203 15.7656 15.8905L16.3672 15.3201L16.3906 15.9139C16.4062 16.2342 16.3984 16.5155 16.375 16.5389ZM18.8828 18.0076C19.2109 18.1561 19.7578 18.4686 20.1094 18.703C20.8203 19.1795 21.7891 20.0311 21.7031 20.117C21.6719 20.1483 21.3594 19.9998 21 19.7811C20.1953 19.3045 19.7109 19.0858 19.2812 19.0233C18.7109 18.9373 15.8906 19.1951 14.25 19.4842C12.9766 19.7108 12.6016 19.9842 12 21.1561C11.4453 22.2498 10.9297 23.5155 10.4688 24.9061C10.2656 25.5233 10.0781 26.0389 10.0547 26.0623C10.0312 26.0858 9.89844 25.8748 9.76562 25.5936L9.51562 25.0858L9.6875 24.4373C10.0625 23.0389 10.7188 21.367 11.5391 19.7342C11.9922 18.8123 12.1719 18.5701 12.5156 18.3905C12.7656 18.2576 14.3828 18.0076 15.7266 17.8905C16.25 17.8514 16.8047 17.7967 16.9531 17.7811C17.9453 17.6873 18.2812 17.7264 18.8828 18.0076Z" fill="#FCFBF8"/>
<path d="M24.4536 7.89847C23.5942 8.03128 23.5083 8.05472 23.352 8.21097C23.1411 8.42191 23.1567 8.83597 23.3833 9.04691C23.5942 9.25003 23.8989 9.26566 24.8208 9.13285C25.563 9.02347 25.7817 8.85941 25.7817 8.42972C25.7817 8.20316 25.7348 8.1016 25.5786 7.9766C25.3598 7.80472 25.1567 7.7891 24.4536 7.89847Z" fill="#FCFBF8"/>
<path d="M23.3832 10.2344C23.0707 10.3594 22.9301 10.9141 23.1489 11.1953C23.2895 11.3828 24.6098 11.9688 24.9067 11.9688C25.2582 11.9688 25.4692 11.7656 25.4692 11.4062C25.4692 11.25 25.4223 11.0625 25.3754 10.9922C25.2661 10.8516 23.8207 10.1562 23.6567 10.1641C23.602 10.1641 23.477 10.1953 23.3832 10.2344Z" fill="#FCFBF8"/>
<path d="M7.51562 12.4841C7.40625 12.4997 7.23438 12.6559 7.08594 12.8591C6.95312 13.0466 6.8125 13.2028 6.77344 13.2028C6.73438 13.2028 6.60156 13.1325 6.47656 13.0388C6.35156 12.9528 6.13281 12.8591 5.98438 12.8356C5.625 12.7809 5.3125 13.07 5.3125 13.4684C5.3125 13.7341 5.45312 13.9059 5.9375 14.2263L6.11719 14.3434L5.91406 14.6481C5.63281 15.0622 5.625 15.4763 5.90625 15.695C6.27344 15.9841 6.65625 15.8669 6.95312 15.3825C7.0625 15.2184 7.17188 15.0778 7.21094 15.0778C7.24219 15.0778 7.40625 15.1638 7.5625 15.2731C8.11719 15.6481 8.67188 15.4216 8.67188 14.8278C8.67188 14.5466 8.54688 14.3903 8.0625 14.0622L7.88281 13.945L8.10156 13.6325C8.54688 12.9763 8.24219 12.3747 7.51562 12.4841Z" fill="#FCFBF8"/>
<path d="M29.2582 14.9531L28.9379 15.2969L28.6489 15.0312C28.4301 14.8281 28.2973 14.7656 28.0707 14.7656C27.727 14.7656 27.6332 14.8125 27.5082 15.0547C27.3598 15.3438 27.4145 15.5391 27.7348 15.8906C27.9067 16.0781 28.0473 16.2578 28.0473 16.2891C28.0473 16.3203 27.9457 16.4688 27.8129 16.6172C27.5473 16.9141 27.5004 17.2812 27.7035 17.5625C27.7895 17.6953 27.8989 17.7344 28.1567 17.7344C28.4379 17.7344 28.5317 17.6875 28.7817 17.4297L29.0864 17.1172L29.4379 17.3906C29.9379 17.7656 30.2973 17.75 30.516 17.3281C30.6879 17 30.602 16.7344 30.2348 16.4062L29.9223 16.1328L30.1957 15.7891C30.5239 15.375 30.5551 15.0312 30.2895 14.7812C29.9848 14.4922 29.6332 14.5469 29.2582 14.9531Z" fill="#FCFBF8"/>
<path d="M31.5234 20.6016C30.9688 20.8906 30.6328 21.4219 30.625 22C30.625 22.9609 31.25 23.5938 32.2188 23.5938C33.1641 23.5938 33.7734 22.9766 33.7734 22.0156C33.7734 21.1172 33.1016 20.4688 32.1953 20.4688C31.9531 20.4766 31.6562 20.5312 31.5234 20.6016ZM32.3906 21.7812C32.6328 21.9453 32.5312 22.3438 32.2422 22.3438C32.0312 22.3438 31.875 22.2109 31.875 22.0312C31.875 21.7812 32.1719 21.6328 32.3906 21.7812Z" fill="#FCFBF8"/>
<path d="M21.6857 25.5703C21.4201 25.8359 21.4123 26.2344 21.6623 26.4531C21.756 26.5391 22.0373 26.7344 22.2873 26.8828C22.881 27.2266 23.8029 28.1953 24.1779 28.8594C24.5217 29.4688 24.8107 30.3047 24.8888 30.8594C24.9592 31.4062 25.1623 31.6406 25.5451 31.6406C25.7795 31.6406 25.881 31.5938 26.0138 31.4297C26.1623 31.2422 26.1779 31.1484 26.1388 30.7812C26.0138 29.75 25.5373 28.5312 24.8888 27.6328C24.1935 26.6484 22.7951 25.5234 22.1545 25.4141C21.9357 25.3828 21.8498 25.4062 21.6857 25.5703Z" fill="#FCFBF8"/>
</svg>
