<svg width="40" height="40" viewBox="0 0 40 40" fill="none" xmlns="http://www.w3.org/2000/svg">
<g clip-path="url(#clip0_6001_3634)">
<path d="M1.35938 7.5704C0.742188 7.64853 0.4375 7.81259 0.1875 8.22665C0.046875 8.46103 0.0390625 8.64071 0.0390625 10.9376C0.0390625 12.4767 0.078125 13.7032 0.140625 14.2188C1.10938 22.1017 4.20312 27.1641 9.75 29.9532C12.125 31.1485 15.3672 32.0235 18.5625 32.336C19.6484 32.4454 22.7344 32.5391 23.0078 32.4688C23.2188 32.4141 23.0156 32.2032 17.2891 26.461C12.4375 21.6016 11.3359 20.461 11.2969 20.2501C11.1484 19.4298 11.875 18.711 12.7109 18.8595C12.9766 18.9141 13.6172 19.5235 18.9062 24.8126C22.1484 28.0548 24.8359 30.7032 24.875 30.7032C24.9844 30.7032 24.8672 26.6485 24.7344 25.547C24.0547 20.0782 22.2656 15.922 19.3438 13.0235C16.4141 10.1095 12.1016 8.30478 6.64062 7.6954C5.38281 7.55478 2.14062 7.48446 1.35938 7.5704Z" fill="#FCFBF8"/>
<path d="M35.4688 14.9688C35.3594 14.9844 34.9609 15.0391 34.5703 15.0859C31.3203 15.4766 28.3828 16.75 26.4688 18.5859L25.7656 19.2578L26.0859 20.3359C26.4844 21.6953 26.8359 23.3984 27 24.7656C27.0703 25.3438 27.1406 25.8672 27.1562 25.9297C27.1797 26 27.8125 25.4297 28.8906 24.3594C30.6797 22.5781 30.8906 22.4297 31.4453 22.5312C31.9531 22.6328 32.4219 23.1953 32.4219 23.7109C32.4219 23.8203 32.3672 24.0234 32.2969 24.1641C32.2266 24.3047 31.0781 25.5078 29.7422 26.8516L27.3203 29.2812L27.2578 30.5625C27.2266 31.2656 27.1641 31.9531 27.1172 32.1016L27.0391 32.3672L27.6406 32.3125C30.25 32.0781 33.2344 30.9922 35.0703 29.6094C38.2578 27.2031 40 22.9375 40 17.5078C40 15.7656 39.9219 15.4688 39.3906 15.1406C39.1172 14.9688 39.0312 14.9609 37.3828 14.9531C36.4375 14.9453 35.5781 14.9531 35.4688 14.9688Z" fill="#FCFBF8"/>
</g>
<defs>
<clipPath id="clip0_6001_3634">
<rect width="40" height="40" fill="white"/>
</clipPath>
</defs>
</svg>
