<svg width="40" height="40" viewBox="0 0 40 40" fill="none" xmlns="http://www.w3.org/2000/svg">
<path d="M17.9688 2.20312C17.8125 2.82031 17.5781 3.32031 17.2266 3.78906L16.875 4.25781V6.34375C16.875 8.33594 16.8828 8.44531 17.0312 8.59375C17.1797 8.74219 17.2891 8.75 20 8.75C22.7109 8.75 22.8203 8.74219 22.9688 8.59375C23.1172 8.44531 23.125 8.33594 23.125 6.35938V4.28906L22.7734 3.78906C22.4141 3.28125 22.1797 2.78906 22.0312 2.20312L21.9453 1.875H20H18.0547L17.9688 2.20312Z" fill="#FCFBF8"/>
<path d="M14.9844 5.375L14.375 5.5625V6.51562C14.375 7.63281 14.375 7.63281 13.4844 8.82812C12.6016 10.0078 12.5391 10.1562 12.5391 11.25C12.5391 12.3281 12.6016 12.4922 13.4297 13.6094L14 14.375H20H26L26.5703 13.6094C27.3984 12.4922 27.4609 12.3281 27.4609 11.25C27.4609 10.1562 27.3984 10.0078 26.5156 8.82812C25.625 7.63281 25.625 7.63281 25.625 6.50781V5.55469L25.2969 5.46875C25.1094 5.42188 24.8359 5.33594 24.6719 5.27344L24.3906 5.16406L24.3594 6.82031C24.3281 8.71094 24.2656 8.94531 23.6953 9.46094C23.1562 9.95312 23.0781 9.96094 19.9609 9.96094C17.2656 9.96094 17.1328 9.95312 16.7969 9.79688C16.3516 9.58594 16.0391 9.27344 15.8281 8.82812C15.6875 8.52344 15.6641 8.27344 15.625 6.83594L15.5859 5.1875L14.9844 5.375Z" fill="#FCFBF8"/>
<path d="M11.4297 5.77344C10.6172 6.07031 10.0234 6.60938 9.625 7.42188C9.42188 7.84375 9.41406 7.88281 9.39062 9.54688L9.36719 11.25H10.3438H11.3281V10.9141C11.3281 10.1094 11.6875 9.30469 12.5312 8.16406L13.1172 7.38281L13.125 6.5V5.625H12.4844C12.0547 5.63281 11.6953 5.67969 11.4297 5.77344Z" fill="#FCFBF8"/>
<path d="M26.875 6.49219L26.8828 7.38281L27.4688 8.16406C28.3125 9.30469 28.6719 10.1094 28.6719 10.9141V11.25H29.6562H30.6328L30.6094 9.54688L30.5859 7.85156L30.3594 7.38281C30.0625 6.78125 29.4688 6.1875 28.8672 5.89844C28.4766 5.70312 28.2891 5.66406 27.6406 5.64062L26.875 5.60938V6.49219Z" fill="#FCFBF8"/>
<path d="M1.92873 16.4688C0.170913 18.2422 0.170913 18.0078 1.95216 19.7969L3.28029 21.1328L3.76466 20.6484L4.25685 20.1562L3.55373 19.4531L2.8506 18.75H5.49123H8.12404V18.125V17.5H5.49123H2.8506L3.55373 16.7969L4.24904 16.0938L3.7881 15.625C3.53029 15.3672 3.30373 15.1562 3.28029 15.1562C3.25685 15.1562 2.64748 15.75 1.92873 16.4688Z" fill="#FCFBF8"/>
<path d="M36.2109 15.625L35.75 16.0938L36.4453 16.7969L37.1484 17.5H34.5078H31.875V18.125V18.75H34.5078H37.1484L36.4453 19.4531L35.7422 20.1562L36.2344 20.6484L36.7188 21.1328L38.0469 19.7969C39.8281 18.0078 39.8281 18.2422 38.0703 16.4688C37.3516 15.75 36.7422 15.1562 36.7188 15.1562C36.6953 15.1562 36.4688 15.3672 36.2109 15.625Z" fill="#FCFBF8"/>
<path d="M13.9376 15.9531C13.8439 16.1875 13.7892 16.5625 13.7657 17.1953C13.7423 17.9453 13.7657 18.2031 13.9064 18.7344L14.0782 19.375H20.0001H25.922L26.086 18.7656C26.3126 17.9141 26.3126 16.6641 26.086 16.0547L25.9298 15.625H20.0001H14.0782L13.9376 15.9531Z" fill="#FCFBF8"/>
<path d="M13.6613 21.2734C12.7706 22.8438 12.1847 24.6172 11.9503 26.4531C11.8878 26.9062 11.8644 27.7969 11.8878 28.9141C11.9191 30.5625 11.9581 30.8828 12.4581 34.3984L12.9894 38.125H15.8956H18.8097L18.8566 37.4766C18.88 37.125 19.0128 34.8516 19.1456 32.4219C19.4113 27.4219 19.38 27.6172 19.9972 27.6172C20.6144 27.6172 20.5831 27.4297 20.8566 32.3828C20.9816 34.7891 21.1144 37.0625 21.1378 37.4375L21.1925 38.125H24.0988H27.005L27.5363 34.3906C28.0363 30.8828 28.0753 30.5625 28.1066 28.9141C28.13 27.7969 28.1066 26.9062 28.0441 26.4531C27.8097 24.6172 27.2238 22.8438 26.3331 21.2734L25.9738 20.625H19.9972H14.0206L13.6613 21.2734Z" fill="#FCFBF8"/>
<path d="M8.84143 21.8438C8.69299 22.172 8.59143 22.4454 8.60705 22.4688C8.66174 22.5157 9.78674 22.9688 9.80237 22.9532C9.85705 22.8985 10.3102 21.8517 10.2946 21.836C10.2555 21.8048 9.14612 21.2501 9.12268 21.2501C9.10705 21.2501 8.98205 21.5157 8.84143 21.8438Z" fill="#FCFBF8"/>
<path d="M30.2738 21.5392C29.977 21.6876 29.7191 21.8204 29.7035 21.836C29.6879 21.8517 30.141 22.8985 30.1957 22.9532C30.2113 22.9688 31.3363 22.5157 31.3832 22.4688C31.4223 22.4298 30.9145 21.2501 30.8598 21.2501C30.8363 21.2579 30.5785 21.3829 30.2738 21.5392Z" fill="#FCFBF8"/>
<path d="M7.99076 24.2263C7.87357 24.6795 7.85013 24.8592 7.91263 24.8826C8.27201 24.9842 9.08451 25.156 9.10794 25.1326C9.18607 25.0545 9.43607 24.0154 9.38919 23.9685C9.33451 23.9217 8.31107 23.5935 8.20951 23.5935C8.17826 23.5935 8.08451 23.8748 7.99076 24.2263Z" fill="#FCFBF8"/>
<path d="M31.1699 23.7656C30.8886 23.8516 30.6386 23.9453 30.6074 23.9688C30.5605 24.0156 30.8105 25.0547 30.8808 25.1328C30.9121 25.1563 31.8496 24.961 32.0839 24.8828C32.1933 24.8438 31.8808 23.5938 31.7558 23.6016C31.7167 23.6016 31.4511 23.6797 31.1699 23.7656Z" fill="#FCFBF8"/>
<path d="M7.54488 26.6406C7.51363 26.9922 7.50582 27.2969 7.52925 27.3281C7.55269 27.3516 7.84957 27.3828 8.1855 27.4062L8.80269 27.4375L8.84957 26.9531C8.9355 26.1484 8.95894 26.1953 8.41988 26.1406C8.14644 26.1094 7.84957 26.0625 7.76363 26.0469C7.60738 26.0078 7.59175 26.0469 7.54488 26.6406Z" fill="#FCFBF8"/>
<path d="M31.6648 26.1172C31.0242 26.2031 31.0632 26.1484 31.1492 26.9531L31.196 27.4453L31.8132 27.3984C32.157 27.375 32.4539 27.3438 32.4773 27.3203C32.5554 27.2422 32.3992 26.0156 32.3132 26.0234C32.2664 26.0312 31.9695 26.0703 31.6648 26.1172Z" fill="#FCFBF8"/>
<path d="M7.5 29.1797V29.8438H7.75781C7.89062 29.8438 8.19531 29.8203 8.42188 29.7969L8.82812 29.7422V29.1328V28.5156H8.16406H7.5V29.1797Z" fill="#FCFBF8"/>
<path d="M31.1719 29.1328V29.7422L31.5859 29.7969C31.8047 29.8203 32.1094 29.8438 32.25 29.8438H32.5V29.1797V28.5156H31.8359H31.1719V29.1328Z" fill="#FCFBF8"/>
<path d="M8.17769 30.9375C7.92769 30.9688 7.70894 31.0156 7.67769 31.0391C7.65425 31.0625 7.66207 31.3594 7.69332 31.6875L7.748 32.2812L8.26363 32.2266C9.123 32.1406 9.08394 32.1797 9.02144 31.5391C8.99019 31.2266 8.95113 30.9531 8.92769 30.9141C8.88863 30.8516 8.82613 30.8516 8.17769 30.9375Z" fill="#FCFBF8"/>
<path d="M31.0675 30.9141C31.044 30.9453 31.005 31.2266 30.9737 31.5312C30.9112 32.1719 30.8722 32.1328 31.7628 32.2344L32.2394 32.2812L32.2862 31.8672C32.38 31.0859 32.3722 31.0234 32.0909 30.9844C31.4034 30.875 31.0987 30.8594 31.0675 30.9141Z" fill="#FCFBF8"/>
<path d="M8.60236 33.3126C8.28205 33.3594 8.00861 33.4454 7.99299 33.4922C7.96174 33.586 8.09455 34.6016 8.14143 34.6485C8.15705 34.6641 8.46174 34.6407 8.8133 34.5938C9.42268 34.5157 9.46174 34.5001 9.42268 34.3438C9.40705 34.2579 9.36018 33.961 9.32893 33.6876C9.30549 33.4219 9.25861 33.211 9.22736 33.211C9.20393 33.2188 8.92268 33.2657 8.60236 33.3126Z" fill="#FCFBF8"/>
<path d="M30.6704 33.6873C30.6391 33.9608 30.6001 34.2498 30.5766 34.3436C30.5376 34.492 30.5844 34.5077 31.186 34.5858C31.5454 34.6327 31.8423 34.6639 31.8579 34.6483C31.9126 34.5936 32.0376 33.578 32.0063 33.4842C31.9829 33.4217 31.7563 33.3592 31.436 33.3202C31.1469 33.2889 30.8657 33.2498 30.8188 33.2264C30.7563 33.203 30.7016 33.3514 30.6704 33.6873Z" fill="#FCFBF8"/>
<path d="M8.78635 35.7188C8.52854 35.7578 8.30979 35.8047 8.29417 35.8125C8.28635 35.8281 8.3176 36.1094 8.36448 36.4453L8.45823 37.0469L8.99729 36.9922C9.85667 36.9141 9.82542 36.9766 9.6301 35.875C9.58323 35.5938 9.57542 35.5938 8.78635 35.7188Z" fill="#FCFBF8"/>
<path d="M30.3645 35.875C30.3411 36.0156 30.2942 36.2969 30.2708 36.4922C30.2083 36.9062 30.2004 36.8984 31.0598 37L31.5364 37.0469L31.5911 36.6719C31.6223 36.4609 31.6614 36.1797 31.6848 36.0469L31.7317 35.8047L31.1301 35.7109C30.8098 35.6641 30.5051 35.625 30.4739 35.625C30.4348 35.625 30.3879 35.7422 30.3645 35.875Z" fill="#FCFBF8"/>
</svg>
