<svg width="44" height="44" viewBox="0 0 44 44" fill="none" xmlns="http://www.w3.org/2000/svg">
<g clip-path="url(#clip0_6007_2937)">
<path d="M35.5718 0.813229C29.598 2.56823 26.0964 5.85041 25.1852 10.5417C24.9911 11.5457 24.9574 13.4357 25.1093 14.4145L25.2105 15.0473L15.6508 27.501C10.3858 34.3439 5.98987 40.1235 5.88019 40.326C5.6355 40.7985 5.61019 41.5917 5.82956 42.1317C6.00675 42.5704 6.66487 43.1779 7.1205 43.3129C7.78706 43.5154 8.52112 43.4142 9.05269 43.0598C9.213 42.9501 11.5164 40.0307 14.4442 36.217C17.2624 32.5635 19.5911 29.5767 19.6333 29.5767C19.6755 29.5767 19.7092 29.6273 19.7092 29.6948C19.7092 29.7623 19.8696 29.9901 20.0721 30.2095C20.3927 30.5723 20.8399 30.8085 24.5186 32.6479L28.6108 34.6814L30.1718 38.6807C31.8508 42.9839 31.9436 43.1526 32.6524 43.4901C33.1249 43.7095 33.9939 43.7348 34.458 43.5323C34.8546 43.372 35.2849 42.967 35.5127 42.5282C35.6561 42.2667 35.6899 42.0473 35.6899 41.5579C35.6899 40.942 35.6477 40.8323 34.0277 36.7064C33.1164 34.386 32.3655 32.4623 32.3655 32.437C32.3655 32.4032 32.6018 32.0067 32.8886 31.551C33.9011 29.9395 34.6689 28.0832 35.0402 26.3704C35.2764 25.2735 35.2511 22.8773 34.998 21.8732C34.6605 20.5148 34.0614 19.3589 33.3443 18.667C33.1418 18.4729 31.8593 17.4604 30.4839 16.4142L27.9864 14.5157L27.9189 14.0517C27.8008 13.2585 27.843 11.6217 28.0033 10.9045C28.3408 9.34354 29.0496 8.07792 30.2477 6.87135C31.8846 5.24292 33.9855 4.18823 37.5124 3.21791C38.0861 3.0576 38.4827 2.67791 38.5924 2.17167C38.7358 1.54729 38.5418 1.01573 38.0355 0.678226C37.5799 0.366039 36.9893 0.399788 35.5718 0.813229ZM29.3196 17.4351C29.5558 17.6207 29.7499 17.8064 29.7499 17.8317C29.7499 17.8654 29.6486 18.127 29.5305 18.4139C29.328 18.8948 29.2774 18.9454 29.058 18.9454C28.6024 18.9454 28.0793 18.5573 27.9021 18.0848C27.8177 17.8739 27.843 17.8317 28.2986 17.4773C28.5602 17.2664 28.8049 17.0892 28.8302 17.0892C28.8639 17.0892 29.0749 17.241 29.3196 17.4351ZM28.2143 19.342L28.5349 19.5023L26.8389 22.4892L25.1346 25.4845L23.9196 25.7967C23.253 25.9654 22.7046 26.1004 22.6877 26.092C22.6792 26.0751 22.6624 25.5014 22.6539 24.8179L22.6455 23.5607L25.0671 21.1392L27.4971 18.7092L27.6911 18.9454C27.8008 19.072 28.0371 19.2492 28.2143 19.342ZM32.2474 22.6073C32.4161 23.3245 32.433 24.8264 32.2896 25.611C32.1461 26.3535 31.7496 27.5685 31.3952 28.3448C31.1758 28.8342 30.273 30.4204 30.1296 30.5723C30.1127 30.5892 29.3027 30.201 28.3155 29.7032L26.5352 28.8089L26.7714 28.4882C26.898 28.311 28.113 26.7248 29.4546 24.9614C31.4964 22.2698 31.9183 21.772 32.0027 21.8732C32.0618 21.9492 32.163 22.2698 32.2474 22.6073Z" fill="white"/>
<path d="M32.4489 8.57567C31.4448 8.74442 30.2805 9.53755 29.7742 10.4066C29.2342 11.3179 29.0992 12.5497 29.4114 13.5707C30.272 16.355 33.782 17.2325 35.8745 15.1907C37.3848 13.7141 37.3933 11.1913 35.8998 9.66411C35.3936 9.15786 34.457 8.68536 33.7145 8.56723C33.0986 8.47442 33.0901 8.47442 32.4489 8.57567ZM32.1367 14.3638C32.3814 14.4904 32.8539 14.676 33.1998 14.7772L33.8242 14.9544L33.4108 15.0894C32.7526 15.3004 32.4151 15.3341 32.0355 15.2329C31.3942 15.0641 30.8458 14.3891 30.6433 13.5285C30.5926 13.3091 30.6095 13.3175 31.1495 13.7225C31.4533 13.9504 31.9005 14.2457 32.1367 14.3638Z" fill="white"/>
</g>
<defs>
<clipPath id="clip0_6007_2937">
<rect width="43.2" height="43.2" fill="white" transform="translate(0.554688 0.467285)"/>
</clipPath>
</defs>
</svg>
