<svg width="40" height="40" viewBox="0 0 40 40" fill="none" xmlns="http://www.w3.org/2000/svg">
<path d="M24.0239 3.04667C20.1723 3.8826 17.3129 6.76542 16.5551 10.5857C16.3832 11.4373 16.4223 13.7029 16.6176 14.4685L16.7739 15.0623L16.1879 15.1482C15.8676 15.1951 15.5864 15.2264 15.5707 15.2107C15.5551 15.1951 15.6332 14.992 15.7348 14.7576C16.6489 12.7576 15.516 10.2498 13.5551 9.93729C11.6879 9.6326 10.1567 11.1248 10.1567 13.242C10.1567 14.0857 10.3676 14.7654 10.8129 15.3748L11.1645 15.8435L10.9067 15.8904C10.5551 15.9607 10.0004 16.3435 9.77385 16.6795C9.60979 16.9217 8.25042 21.0701 4.53167 32.6717L4.06292 34.1248L2.43792 35.0389C1.54729 35.5467 0.773855 36.0154 0.719167 36.0779C0.609792 36.2264 0.594167 36.6717 0.703542 36.8748C0.742605 36.9529 0.906667 37.0623 1.0551 37.1092C1.39104 37.2185 0.805105 37.5232 6.35198 34.3826C8.78948 33.0076 10.7973 31.8748 10.8207 31.8748C10.8442 31.8748 10.8598 32.9217 10.8598 34.1951C10.8598 36.2576 10.8754 36.5545 11.0004 36.7889C11.1645 37.1248 11.477 37.2264 11.8442 37.0701C11.9926 37.0076 12.1176 36.9529 12.1254 36.9373C12.1332 36.9217 12.1645 35.5935 12.1879 33.9842L12.227 31.0545L14.9457 29.5232L17.6567 27.9842V32.2498C17.6567 36.1639 17.6723 36.5467 17.7973 36.7889C17.8832 36.9685 18.0082 37.0857 18.1489 37.117C18.4223 37.1873 18.8051 37.0623 18.9067 36.8748C18.9535 36.781 18.9848 34.9295 18.9848 31.9764V27.2264L21.7035 25.6873L24.4145 24.156L24.4535 30.4139C24.4848 35.1639 24.516 36.7185 24.5864 36.8435C24.7973 37.2107 25.516 37.2264 25.7035 36.8748C25.7504 36.781 25.7817 34.2576 25.7817 30.0545V23.3826L28.5004 21.8514L31.2114 20.3123L31.2504 28.4998C31.2817 34.7654 31.3129 36.7185 31.3832 36.8435C31.5317 37.1092 31.9145 37.2107 32.2348 37.0701C32.3832 37.0076 32.5082 36.9529 32.516 36.9373C32.5317 36.9217 32.5551 32.9998 32.5785 28.2107L32.6176 19.5154L35.352 17.9685L38.0864 16.4139L38.1254 26.6639C38.1489 32.3045 38.1723 36.9217 38.1879 36.9373C38.1957 36.9529 38.3207 37.0076 38.4692 37.0701C38.7817 37.2029 39.1723 37.1092 39.2973 36.8748C39.3442 36.781 39.3754 32.7889 39.3754 25.8279V14.9295L39.1723 14.7732C39.0551 14.6795 38.8676 14.6092 38.7582 14.6092C38.6332 14.6092 37.766 15.0545 36.6098 15.7029C35.5473 16.3045 34.5707 16.8514 34.4457 16.9217L34.2114 17.0389L34.4535 16.5623C35.0629 15.3592 35.391 13.8904 35.391 12.3826C35.391 7.93729 32.5317 4.28104 28.1645 3.11698C27.2348 2.87479 25.0004 2.83573 24.0239 3.04667ZM26.7973 4.21854C28.1098 4.3826 29.4457 4.88261 30.5551 5.62479C31.1957 6.06229 32.2192 7.08573 32.6567 7.72635C34.8285 10.9529 34.5004 15.1326 31.8598 17.9295C30.7426 19.1092 29.4614 19.8748 27.9067 20.2889C27.2504 20.4685 26.9848 20.492 25.9379 20.4998C24.9457 20.4998 24.6098 20.4764 24.0551 20.3357C22.5551 19.9529 21.2739 19.2342 20.1723 18.1482L19.516 17.5076L19.6879 17.2889C19.9223 16.9607 19.9848 16.2732 19.8129 15.8279C19.6176 15.3279 19.1723 14.9451 18.6957 14.8826C18.4926 14.8592 18.2739 14.8279 18.2114 14.8201C17.891 14.7732 17.6332 12.4685 17.8051 11.242C18.1254 9.07792 19.3207 7.06229 21.0473 5.78885C22.0395 5.05448 23.4145 4.46854 24.5473 4.30448C24.8598 4.2576 25.2035 4.20292 25.3129 4.18729C25.7035 4.1326 26.1489 4.14042 26.7973 4.21854ZM13.3989 11.2576C14.0629 11.4373 14.5395 12.031 14.6957 12.8435C14.852 13.7029 14.4067 14.742 13.727 15.0701C13.141 15.3514 12.5942 15.2654 12.1254 14.8201C11.7114 14.4217 11.5395 14.0232 11.5004 13.3357C11.4692 12.7732 11.4848 12.6951 11.7114 12.2264C11.9692 11.7029 12.2348 11.4529 12.727 11.281C13.0785 11.156 13.0239 11.156 13.3989 11.2576ZM18.5785 16.3826C18.6098 16.5857 18.766 16.5389 15.5864 17.3514C14.2114 17.7029 13.0473 18.031 12.9926 18.0779C12.9457 18.1248 12.5629 19.2342 12.141 20.5467C11.727 21.8592 11.3832 22.9373 11.3754 22.9373C11.3676 22.9529 9.35198 22.3201 9.31292 22.2967C9.27385 22.2732 10.7035 17.8123 10.8285 17.5701C10.8832 17.4607 10.9848 17.3279 11.0473 17.2654C11.1254 17.2107 12.4223 16.9998 14.2817 16.7498C15.9848 16.5154 17.5942 16.2967 17.852 16.2576C18.4692 16.1639 18.5473 16.1795 18.5785 16.3826ZM18.7035 18.5779C19.4535 19.4764 20.4848 20.281 21.6332 20.8514C22.7114 21.3982 23.6645 21.6639 25.1801 21.8592L25.641 21.9139L20.6489 24.7342C17.9067 26.2889 15.6567 27.5545 15.641 27.5389C15.6254 27.5232 15.6957 27.2654 15.7895 26.9529C16.0785 25.9998 15.8832 25.1326 15.2504 24.492C14.8754 24.117 14.6801 24.0154 13.5942 23.6639C13.0395 23.4764 12.6957 23.3279 12.7035 23.2654C12.7114 23.156 13.9848 19.1951 14.0239 19.156C14.0473 19.1326 18.0395 18.0701 18.1723 18.0545C18.2192 18.0545 18.4614 18.2889 18.7035 18.5779ZM11.6332 24.4451C14.2114 25.2654 14.3754 25.3435 14.5395 25.8357C14.641 26.1482 14.6254 26.2185 14.1645 27.5623L13.8051 28.6014L13.2739 28.906C12.9848 29.0779 12.727 29.2185 12.7114 29.2185C12.6879 29.2185 12.8285 28.7342 13.0239 28.1404C13.4848 26.6873 13.516 26.5545 13.391 26.2654C13.2973 26.0389 13.2114 25.9998 11.7817 25.5545C9.9926 24.992 9.50823 24.7654 9.25042 24.3826C9.02385 24.031 8.91448 23.5701 9.07073 23.6326C9.13323 23.6482 10.2817 24.0154 11.6332 24.4451ZM8.95354 25.9451C9.1176 26.0545 9.10979 26.0779 7.97698 29.3045L6.83635 32.5545L6.33635 32.8435C6.06292 32.9998 5.82854 33.117 5.82073 33.1092C5.8051 33.0935 6.04729 32.3279 6.34417 31.406C6.64104 30.4842 7.20354 28.7498 7.59417 27.5467L8.29729 25.3748L8.53948 25.6014C8.68011 25.7342 8.8676 25.8826 8.95354 25.9451ZM11.891 27.0232C11.9301 27.0545 11.7192 27.7967 11.4223 28.6717L10.8989 30.2654L10.0785 30.7264C9.62542 30.9764 9.10979 31.2732 8.9301 31.3748L8.60198 31.5623L8.71917 31.2342C8.78948 31.0467 9.17229 29.9685 9.57073 28.8279C9.96917 27.6873 10.3207 26.7029 10.352 26.6248C10.3989 26.5154 10.477 26.5232 11.1176 26.7342C11.516 26.867 11.8598 26.9998 11.891 27.0232Z" fill="#FCFBF8"/>
<path d="M25.0003 5.52344C24.4925 5.61719 24.2659 6.25781 24.6097 6.625C24.7972 6.82031 24.805 6.82031 25.7034 6.80469C26.6253 6.78125 27.4691 6.96875 28.3597 7.39844C28.9925 7.70312 29.1956 7.85938 29.805 8.46875C30.7347 9.39844 31.1488 10.1875 31.4066 11.5C31.5081 12.0156 31.68 12.1875 32.1097 12.1875C32.7034 12.1875 32.8597 11.7188 32.6097 10.7109C31.9456 8.07031 29.7894 6.04688 27.1488 5.58594C26.5081 5.47656 25.4456 5.44531 25.0003 5.52344Z" fill="#FCFBF8"/>
</svg>
