<svg width="38" height="40" viewBox="0 0 38 40" fill="none" xmlns="http://www.w3.org/2000/svg">
<path d="M0.562414 0.183617C0.187471 0.433578 0 0.792896 0 1.24595C0.00781131 1.87086 0.195283 2.14426 0.913923 2.54263C2.09343 3.21441 3.95252 4.8704 5.2492 6.40923C7.92067 9.59624 10.0844 13.3379 12.0841 18.2434C14.2869 23.6488 15.9116 29.6479 17.2317 37.2483C17.6067 39.3964 17.6926 39.6307 18.1925 39.8729C18.5831 40.0604 19.1533 40.0369 19.4658 39.826C19.9735 39.4745 20.0282 39.3339 20.1376 38.0294C20.4656 34.1472 21.2546 29.9056 22.3091 26.2343C23.0434 23.7269 24.2697 20.4852 24.4728 20.5321C24.5353 20.5477 25.0587 20.5789 25.6367 20.6024C29.5424 20.7508 32.909 19.0636 35.4633 15.6578C36.4085 14.4002 36.9241 13.1113 37.2912 11.096C37.4943 9.94775 37.5724 6.87791 37.4396 5.40938C37.2209 3.10505 36.8303 0.995991 36.5335 0.542934C36.1586 -0.035099 35.229 -0.175705 34.6822 0.26173C32.5341 1.98803 30.3235 3.19878 26.2616 4.86259C23.9495 5.80776 22.9731 6.39361 21.981 7.46376C19.8407 9.75247 19.2705 12.7911 20.3328 16.2202L20.5828 17.017L21.8014 15.7906C23.8714 13.705 25.9648 12.1818 28.4957 10.9164C29.1284 10.5961 30.675 9.92432 30.7687 9.92432C30.7844 9.92432 30.636 10.0493 30.4251 10.2133C28.7144 11.5022 26.2772 14.0643 23.8089 17.1498C22.0279 19.3838 21.9732 19.4541 21.4108 20.8602C20.411 23.3441 19.4502 26.5077 18.8253 29.351L18.5675 30.5384L18.091 28.609C17.4036 25.8438 16.9037 24.094 16.0679 21.5866C13.4511 13.7206 10.0844 7.61998 6.03033 3.4175C4.63211 1.9646 3.1089 0.746029 1.99188 0.167992C1.53883 -0.0585365 0.906112 -0.0585365 0.562414 0.183617Z" fill="#FCFBF8"/>
</svg>
