<svg width="40" height="40" viewBox="0 0 40 40" fill="none" xmlns="http://www.w3.org/2000/svg">
<path d="M18.8984 1.75C17.9453 2.01562 16.9531 2.80469 16.5 3.65625C16.1484 4.32031 16.0156 4.86719 16.0156 5.625C16.0156 6.78906 16.3672 7.63281 17.1797 8.4375C18.0156 9.25781 18.8516 9.60938 20 9.60938C21.1484 9.60938 22.0156 9.25 22.8203 8.44531C23.6406 7.625 23.9844 6.78906 23.9844 5.61719C23.9844 3.78906 22.7969 2.21094 21.0625 1.75C20.5703 1.61719 19.3828 1.61719 18.8984 1.75Z" fill="#FCFBF8"/>
<path d="M5.40625 11.7656C4.72656 12.1016 4.35156 12.75 4.35156 13.5547C4.35938 14.3438 4.73438 14.9609 5.42969 15.3359C5.74219 15.5078 5.79688 15.5078 10.4453 15.5312L15.1563 15.5547L15.1719 26.1172L15.1953 36.6797L15.375 37.0078C15.6328 37.5 15.9531 37.8359 16.4219 38.0938C16.7969 38.2969 16.9063 38.3203 17.5781 38.3203C18.2031 38.3203 18.375 38.2891 18.6563 38.1406C19.1484 37.8828 19.5469 37.4844 19.7656 37.0547L19.9609 36.6797L20 30.9141L20.0391 25.1562L21.6406 26.7578L23.2344 28.3594L22.2969 29.3125C21.1953 30.4375 21.0547 30.7031 21.0625 31.6406C21.0781 32.8672 21.8594 33.7734 23.1172 33.9922C23.6875 34.0938 24.3828 33.9375 24.8672 33.6016C25.0469 33.4766 25.9219 32.6406 26.8047 31.7422C28.5313 30 28.7344 29.7266 28.9063 28.8516C29.0234 28.2578 28.9219 27.5703 28.6328 26.9922C28.4922 26.7188 27.8828 26.0391 26.6406 24.7656L24.8438 22.9297V19.2422V15.5547L29.5547 15.5312C34.2031 15.5078 34.2578 15.5078 34.5703 15.3359C35.6719 14.75 35.9922 13.4062 35.2891 12.3672C35.1172 12.1172 34.9063 11.9297 34.6172 11.7812L34.2031 11.5625H20.0078H5.8125L5.40625 11.7656Z" fill="#FCFBF8"/>
</svg>
