<svg width="40" height="40" viewBox="0 0 40 40" fill="none" xmlns="http://www.w3.org/2000/svg">
<g clip-path="url(#clip0_6001_3110)">
<path d="M15.4141 0.164062C15.2812 0.25 15.0938 0.46875 15.0156 0.648438C14.9297 0.828125 13.1094 5.875 10.9766 11.8594C8.07812 19.9844 7.09375 22.8281 7.09375 23.0859C7.09375 23.5 7.28906 23.8594 7.625 24.0703C7.85938 24.2109 8.07812 24.2188 13.5859 24.2188H19.3125L19.2656 24.4375C18.6641 27.3047 16.4688 38.6484 16.4688 38.8828C16.4688 39.5469 16.9688 40 17.6953 40C18.1406 40 18.3984 39.8594 18.7188 39.4297C18.9141 39.1719 31 22.1328 33.8516 18.0938C34.4219 17.2812 34.4531 17.2266 34.4531 16.8125C34.4531 16.3125 34.2812 15.9766 33.8906 15.7422C33.6406 15.5938 33.4766 15.5859 28.6562 15.5625C25.9141 15.5547 23.6719 15.5312 23.6719 15.5156C23.6719 15.5 25.3984 12.3594 27.5 8.53125C31.1953 1.80469 31.3281 1.55469 31.3281 1.15625C31.3281 0.695312 31.1719 0.382812 30.8125 0.148438C30.5938 0.0078125 30.3047 0 23.125 0C15.7422 0 15.6641 0.0078125 15.4141 0.164062Z" fill="white"/>
<path d="M34.8832 0.140601C34.7582 0.226539 34.6098 0.335914 34.5629 0.398414C34.516 0.460914 33.477 2.32029 32.266 4.53123C29.8676 8.88279 29.8363 8.96091 30.1332 9.53123C30.5004 10.2422 31.602 10.3906 32.1176 9.79685C32.1879 9.71091 33.2426 7.83591 34.4535 5.62498C36.852 1.27341 36.8832 1.19529 36.5863 0.624976C36.2816 0.0468512 35.4379 -0.195336 34.8832 0.140601Z" fill="white"/>
<path d="M8.08762 7.10158C7.90793 7.17971 7.71262 7.32814 7.6423 7.43752C7.57199 7.53908 6.36887 10.836 4.97043 14.7578C2.22043 22.461 2.24387 22.3672 2.60324 22.8985C3.08762 23.625 4.18918 23.5938 4.62668 22.8438C4.69699 22.7188 5.90793 19.3985 7.30637 15.4688C10.1189 7.59377 10.0173 7.96096 9.54855 7.41408C9.16574 6.96096 8.6423 6.84377 8.08762 7.10158Z" fill="white"/>
<path d="M35.7734 19.4765C35.6172 19.578 35.0234 20.328 34.3594 21.2499C32.4531 23.8905 32.4219 23.9452 32.4219 24.3593C32.4219 24.7343 32.625 25.1718 32.8828 25.3671C33.3125 25.703 34.1094 25.6405 34.4766 25.2421C34.6406 25.0624 36.7969 22.0702 37.375 21.2187C37.6641 20.789 37.6641 20.1171 37.375 19.7655C36.9531 19.2655 36.2734 19.1405 35.7734 19.4765Z" fill="white"/>
<path d="M14.3997 26.7188C14.2591 26.797 14.095 26.9767 14.0247 27.1095C13.8372 27.4767 12.1028 36.2345 12.1575 36.5313C12.2825 37.2032 12.7356 37.5392 13.4544 37.4845C13.8216 37.461 13.9544 37.4063 14.1341 37.2345C14.2591 37.1095 14.3997 36.922 14.4466 36.8048C14.5794 36.4923 16.2513 28.0548 16.2513 27.711C16.2513 27.3438 16.095 27.0313 15.7825 26.7657C15.47 26.5079 14.7903 26.4767 14.3997 26.7188Z" fill="white"/>
<path d="M28.2062 29.9765C27.8781 30.3047 22.6515 37.7187 22.3702 38.2734C22.1515 38.6953 22.1515 38.9219 22.3468 39.3515C22.5656 39.8359 22.8937 40.0156 23.4952 39.9844C23.8781 39.9609 24.0265 39.914 24.1906 39.7656C24.5187 39.4453 30.0265 31.5469 30.1359 31.2187C30.3156 30.7187 30.1046 30.1094 29.6671 29.8437C29.4952 29.7344 29.2765 29.6875 28.964 29.6875C28.5499 29.6875 28.4874 29.7109 28.2062 29.9765Z" fill="white"/>
</g>
<defs>
<clipPath id="clip0_6001_3110">
<rect width="40" height="40" fill="white"/>
</clipPath>
</defs>
</svg>
