<svg width="25" height="24" viewBox="0 0 25 24" fill="none" xmlns="http://www.w3.org/2000/svg">
<path opacity="0.4" d="M20.5383 6.82006L14.7783 2.79006C13.2083 1.69006 10.7983 1.75006 9.28828 2.92006L4.27828 6.83006C3.27828 7.61006 2.48828 9.21006 2.48828 10.4701V17.3701C2.48828 19.9201 4.55828 22.0001 7.10828 22.0001H17.8883C20.4383 22.0001 22.5083 19.9301 22.5083 17.3801V10.6001C22.5083 9.25006 21.6383 7.59006 20.5383 6.82006Z" fill="#26C4F8"/>
<path d="M12.5 18.75C12.09 18.75 11.75 18.41 11.75 18V15C11.75 14.59 12.09 14.25 12.5 14.25C12.91 14.25 13.25 14.59 13.25 15V18C13.25 18.41 12.91 18.75 12.5 18.75Z" fill="#26C4F8"/>
</svg>
