<svg width="40" height="40" viewBox="0 0 40 40" fill="none" xmlns="http://www.w3.org/2000/svg">
<path d="M9.83594 1.69516C9.69531 2.39047 9.69531 4.03891 9.83594 4.68735C10.1797 6.2811 11.2266 7.48422 12.9922 8.32016C13.4141 8.52329 13.7891 8.67172 13.8359 8.6561C13.875 8.64047 13.7734 8.4061 13.6016 8.14047C13.0938 7.35922 12.4609 6.11704 12.1094 5.23422C11.9375 4.7811 11.7578 4.32797 11.7109 4.2186C11.6406 4.03891 11.6484 4.03891 11.8359 4.25766C12.6484 5.19516 13.6875 6.72641 14.2266 7.76547C14.375 8.04672 14.5156 8.2811 14.5469 8.2811C14.6328 8.2811 14.7266 7.26547 14.7109 6.48422C14.6641 4.44516 13.7734 2.98422 11.9297 1.92172C11.4531 1.64829 10.5391 1.27329 10.2031 1.20297L9.94531 1.1561L9.83594 1.69516Z" fill="#FCFBF8"/>
<path d="M29.0955 1.43735C26.5642 2.47641 25.3455 4.0936 25.2908 6.48422C25.2752 7.26547 25.3689 8.2811 25.4548 8.2811C25.4861 8.2811 25.6267 8.04672 25.7752 7.77329C26.3064 6.74204 27.2752 5.31235 28.1658 4.25766C28.6736 3.64829 27.2986 6.72641 26.4783 8.02329C26.2673 8.35922 26.1267 8.64047 26.1736 8.6561C26.2127 8.67172 26.5877 8.52329 27.0095 8.32016C28.6892 7.5311 29.7205 6.39829 30.1267 4.91391C30.2986 4.2811 30.322 2.4686 30.1658 1.69516C30.0408 1.06235 30.0173 1.06235 29.0955 1.43735Z" fill="#FCFBF8"/>
<path d="M19.5392 4.03906C18.7658 5.02344 18.422 5.89844 18.4298 6.91406C18.4298 7.82031 18.8517 8.89844 19.5079 9.67969L19.7345 9.9375L19.7423 8.82031C19.7501 7.82812 19.8751 6.42188 19.9689 6.33594C20.0392 6.26562 20.0704 6.38281 20.1564 7.03125C20.2111 7.39844 20.2579 8.20312 20.2579 8.82031L20.2658 9.9375L20.5236 9.64062C20.9454 9.13281 21.4767 8 21.5548 7.42188C21.6642 6.58594 21.5314 5.85938 21.1095 5.03125C20.8908 4.59375 20.1486 3.58594 20.0158 3.53125C19.9845 3.52344 19.7736 3.75 19.5392 4.03906Z" fill="#FCFBF8"/>
<path d="M15.4393 10.9453C15.3065 11.6328 15.4472 12.2266 15.8378 12.6641C16.1034 12.9531 16.6034 13.2812 16.7909 13.2812C16.8378 13.2812 16.7284 13.0156 16.5487 12.6875C16.3768 12.3672 16.2518 12.0781 16.2753 12.0547C16.3222 12.0078 16.955 12.9453 16.955 13.0625C16.955 13.0938 16.994 13.125 17.0331 13.125C17.08 13.125 17.1112 12.8984 17.1112 12.6016C17.1112 11.7422 16.7128 11.1641 15.869 10.8125C15.5097 10.6641 15.494 10.6719 15.4393 10.9453Z" fill="#FCFBF8"/>
<path d="M24.0312 10.8594C23.2109 11.2656 22.8906 11.7656 22.8906 12.6172C22.8906 12.8984 22.9141 13.125 22.9531 13.125C22.9844 13.125 23.0859 12.9688 23.1875 12.7812C23.2891 12.5938 23.4766 12.3203 23.6016 12.1797C23.8203 11.9375 23.8125 11.9688 23.4844 12.5938C23.2969 12.9766 23.1719 13.2812 23.2109 13.2812C23.3984 13.2812 23.8984 12.9531 24.1641 12.6641C24.5547 12.2344 24.7188 11.4844 24.5625 10.875C24.5 10.6641 24.4297 10.6641 24.0312 10.8594Z" fill="#FCFBF8"/>
<path d="M7.64109 10.8908C7.35203 10.9377 7.09421 11.008 7.07078 11.0314C6.99265 11.1095 7.48484 12.2736 7.82078 12.7892C8.62546 14.0236 9.66453 14.5627 11.2114 14.547C11.6411 14.5392 12.0942 14.5158 12.2192 14.4845C12.4458 14.4377 12.4458 14.4377 12.0239 14.1955C11.0161 13.633 9.37546 12.508 9.37546 12.383C9.37546 12.2502 11.477 13.2267 12.2505 13.7189C12.5864 13.9377 12.6567 13.9611 12.6567 13.8439C12.6567 13.6486 12.1411 12.6798 11.813 12.2423C10.9223 11.0705 9.3989 10.5783 7.64109 10.8908Z" fill="#FCFBF8"/>
<path d="M30.483 10.8671C29.233 11.0781 28.3111 11.8203 27.6236 13.1718C27.2252 13.9609 27.2486 14.0468 27.7564 13.7187C28.5221 13.2265 30.6236 12.2499 30.6236 12.3828C30.6236 12.5078 28.983 13.6328 27.9752 14.1953C27.5767 14.4218 27.5689 14.4374 27.7642 14.4843C27.8736 14.5078 28.3424 14.539 28.8033 14.539C30.7642 14.5468 31.9596 13.664 32.7721 11.6093C32.8814 11.3203 32.9517 11.0468 32.9127 11.0156C32.8267 10.9296 31.7174 10.7812 31.2642 10.789C31.0611 10.7968 30.7096 10.8281 30.483 10.8671Z" fill="#FCFBF8"/>
<path d="M24.7508 12.789C24.8446 13.414 24.8133 16.0859 24.704 16.7187C24.2118 19.5312 22.954 22.3203 21.1571 24.5859C20.9462 24.8593 20.743 25.0781 20.7196 25.0781C20.6883 25.0781 20.4852 24.8046 20.2665 24.4687C19.1649 22.8046 17.0008 20.4375 15.3915 19.125C13.7196 17.7734 11.6883 16.5937 9.96959 15.9843C9.53991 15.8281 9.17272 15.7187 9.15709 15.7421C9.14147 15.7578 9.34459 15.9375 9.61803 16.1484C12.4462 18.3125 14.493 20.6953 15.8212 23.3828C16.5712 24.8828 17.0712 26.4453 17.2977 27.9687C17.6102 30.0312 17.4305 32.625 16.829 34.8046C16.4696 36.0937 15.7977 37.789 15.3758 38.4765C15.2977 38.6015 15.2352 38.7343 15.2352 38.7734C15.2352 38.8046 16.1727 38.8203 17.3212 38.8125L19.3993 38.789L20.1258 37.3828C24.0555 29.789 26.1493 22.0312 25.7118 16.7187C25.5946 15.3671 25.4618 14.6171 25.1415 13.5156C25.0087 13.0625 24.8837 12.6328 24.868 12.5546C24.7821 12.2656 24.6962 12.4375 24.7508 12.789Z" fill="#FCFBF8"/>
<path d="M18.5946 15.8828C18.1884 16.0156 17.5555 16.6797 17.3915 17.1484C16.9696 18.3828 17.2821 19.7656 18.2196 20.7578C19.4852 22.0937 21.3602 21.9687 22.1102 20.5C22.368 19.9922 22.4227 18.9062 22.2274 18.2266C21.954 17.2812 21.2509 16.4141 20.4305 16.0156C19.9852 15.7969 19.0555 15.7266 18.5946 15.8828Z" fill="#FCFBF8"/>
<path d="M3.75002 16.4062C2.90627 16.5547 2.10939 16.875 1.32814 17.3828C0.812515 17.7109 0.0625151 18.3203 0.00782755 18.4531C-0.0312349 18.5625 0.218765 18.8125 0.882828 19.3047C3.21877 21.0469 5.62502 21.0469 7.94533 19.3125C8.21095 19.1094 8.43752 18.9297 8.43752 18.9062C8.43752 18.8828 7.78127 18.8672 6.96877 18.8594C6.04689 18.8516 5.16408 18.8047 4.57033 18.7187C3.47658 18.5625 3.27345 18.4844 3.75783 18.4062C3.94533 18.375 4.31252 18.3125 4.57033 18.2656C4.82814 18.2266 5.81252 18.1641 6.75783 18.1406L8.47658 18.0859L7.9297 17.6797C7.28127 17.1875 6.3047 16.6875 5.69533 16.5312C5.12502 16.3828 4.18752 16.3203 3.75002 16.4062Z" fill="#FCFBF8"/>
<path d="M34.9609 16.4062C34.0391 16.5312 32.9688 17.0078 32.0703 17.6797L31.5234 18.0859L33.2031 18.1328C34.125 18.1641 35.2344 18.2422 35.6562 18.3125C36.0859 18.3828 36.4688 18.4375 36.5156 18.4375C36.5625 18.4375 36.5469 18.4766 36.4844 18.5156C36.2031 18.6797 34.4453 18.8516 33.0312 18.8594C32.2188 18.8672 31.5625 18.8906 31.5625 18.9141C31.5625 18.9844 32.5 19.6484 32.9766 19.9141C33.2188 20.0469 33.6719 20.25 33.9922 20.3672C34.5 20.5547 34.6875 20.5781 35.5469 20.5859C36.4219 20.5859 36.5859 20.5625 37.1484 20.3672C37.9219 20.0938 38.7109 19.6484 39.3672 19.1172C40.0781 18.5391 40.0859 18.5156 39.6875 18.1562C38.2734 16.8672 36.4766 16.2031 34.9609 16.4062Z" fill="#FCFBF8"/>
<path d="M27.0156 17.8439C26.6406 17.9454 26.0938 18.2658 26.0938 18.3908C26.0938 18.422 26.1719 18.4376 26.2656 18.4064C26.3672 18.3829 26.7031 18.3829 27.0234 18.4142C27.7578 18.4767 27.5547 18.5783 26.6875 18.5861C25.9766 18.5939 25.9766 18.6798 26.6641 19.0236C27.2266 19.297 27.7266 19.2892 28.3359 18.9845C29.1406 18.5861 29.1406 18.4454 28.375 18.0236C27.8984 17.7658 27.4844 17.7111 27.0156 17.8439Z" fill="#FCFBF8"/>
<path d="M10.2744 22.4999C9.48536 22.6561 9.04786 22.8983 8.42286 23.5155C7.90724 24.0233 7.7588 24.2342 7.46974 24.8514C7.01661 25.8358 6.98536 25.9842 7.21193 26.0467C7.59474 26.1639 9.27443 26.1952 9.6963 26.0936C10.8369 25.8202 11.7588 25.0624 12.3291 23.9139C12.751 23.0858 12.751 22.9764 12.3682 23.2108C11.2354 23.8905 9.57911 24.6795 9.47755 24.5858C9.3838 24.4842 11.1651 23.242 11.9776 22.8436C12.2197 22.7186 12.4229 22.6014 12.4229 22.5702C12.4229 22.4374 10.8604 22.3827 10.2744 22.4999Z" fill="#FCFBF8"/>
<path d="M27.8595 22.492C27.5079 22.5467 27.547 22.6014 28.1251 22.8905C28.8751 23.2655 30.6095 24.492 30.5236 24.5858C30.422 24.6795 28.7657 23.8905 27.6407 23.2108C27.2501 22.9764 27.2501 23.0858 27.672 23.9139C28.2423 25.0624 29.1642 25.8202 30.3048 26.0936C30.7267 26.1952 32.4064 26.1639 32.7892 26.0467C33.0157 25.9842 32.9845 25.8358 32.5314 24.8514C32.2423 24.2342 32.0939 24.0233 31.5782 23.5155C30.9298 22.8827 30.5079 22.6561 29.6564 22.492C29.2423 22.4139 28.3517 22.4139 27.8595 22.492Z" fill="#FCFBF8"/>
<path d="M13.2512 28.5547C10.6965 29.6641 9.56365 31.4453 9.71209 34.1406C9.75896 34.9922 9.9074 35.8594 10.0012 35.8594C10.134 35.8594 11.1808 35.4688 11.5637 35.2734C13.9308 34.0781 14.9543 32.1797 14.6808 29.5234C14.6418 29.0781 14.5871 28.7031 14.5715 28.6875C14.5558 28.6719 14.4152 28.8984 14.259 29.1953C13.5715 30.4531 12.2277 32.4062 11.8215 32.7422C11.7121 32.8359 11.7043 32.8281 11.759 32.6562C12.009 31.8203 12.9387 29.8984 13.5402 28.9609C13.7512 28.625 13.9152 28.3359 13.8918 28.3203C13.8762 28.3047 13.5871 28.4062 13.2512 28.5547Z" fill="#FCFBF8"/>
<path d="M26.0927 28.3203C26.0927 28.3438 26.2646 28.6406 26.4755 28.9766C27.1474 30.0469 28.374 32.6641 28.2568 32.7812C28.1396 32.8984 26.3818 30.4062 25.874 29.4141C25.4521 28.5781 25.4209 28.5625 25.3505 29.1875C25.1005 31.4922 25.6084 33.0859 26.9599 34.2656C27.2334 34.5078 27.7021 34.8438 27.999 35.0234C28.4834 35.3125 29.7568 35.8516 29.9677 35.8594C30.0927 35.8594 30.2334 35.0938 30.288 34.1406C30.4052 31.9766 29.7334 30.4609 28.163 29.3359C27.5459 28.8984 26.0927 28.1875 26.0927 28.3203Z" fill="#FCFBF8"/>
</svg>
