<svg width="40" height="40" viewBox="0 0 40 40" fill="none" xmlns="http://www.w3.org/2000/svg">
<path d="M19.7954 3.375C19.7016 3.41406 19.5844 3.53906 19.5376 3.64062C19.4751 3.77344 19.4516 5.02344 19.4516 7.69531V11.5625H19.2407C18.8657 11.5625 17.7641 11.9922 17.1704 12.3672C16.8579 12.5703 16.1469 13.1016 15.5844 13.5547C14.0766 14.7812 12.8969 15.3047 11.6548 15.3125C11.3188 15.3125 11.2016 15.3516 11.0532 15.5078C10.8188 15.7422 10.8032 16.0078 11.0219 16.2812C11.1704 16.4688 11.2251 16.4844 11.7798 16.4844C12.8423 16.4844 13.8969 16.1719 14.9204 15.5781C15.1548 15.4375 15.8266 14.9453 16.4126 14.4766C18.2563 13 18.8032 12.7422 20.0844 12.7344C21.4048 12.7344 22.0454 13.0234 23.7016 14.3594C24.811 15.2578 25.186 15.5234 25.8188 15.8438C26.6001 16.2344 27.3032 16.4141 28.2094 16.4609C28.9985 16.5 29.0454 16.5 29.2016 16.3203C29.4282 16.0781 29.4204 15.7422 29.1782 15.5078C29.0298 15.3516 28.9126 15.3125 28.5766 15.3125C27.6704 15.3047 26.5688 14.9453 25.7251 14.3672C25.5141 14.2266 24.9829 13.8125 24.5298 13.4453C23.0532 12.2578 22.2641 11.8125 21.2329 11.6172L20.7798 11.5234V7.67188C20.7798 3.71875 20.7719 3.60938 20.4751 3.38281C20.3266 3.26562 20.0219 3.26562 19.7954 3.375Z" fill="#FCFBF8"/>
<path d="M5.15748 4.67188C4.57935 4.95312 4.57154 5.41406 5.1106 6.1875C5.97779 7.42969 6.15748 8.09375 6.25123 10.3906C6.35279 12.9297 6.5481 13.5938 7.77467 15.5078C8.68873 16.9297 9.38404 19.1016 9.7356 21.6016C9.93873 23.0703 9.85279 24.9219 9.50123 26.9141C9.34498 27.7734 9.18091 28.7422 9.13404 29.0625C9.08716 29.3828 8.96216 29.9453 8.85279 30.3125C8.58716 31.2344 7.8606 34.1797 7.6731 35.0859C7.50123 35.9453 7.51685 36.1641 7.79029 36.4453L7.99342 36.6406H19.9153H31.845L32.0247 36.4766C32.3215 36.1953 32.345 36.0234 32.22 34.75C32.0403 32.8203 31.6887 30.9375 31.3684 30.1797C31.2981 30.0156 31.1731 29.4453 31.0872 28.9062C31.009 28.3672 30.8372 27.3281 30.7044 26.6016C30.2903 24.2969 30.3059 22.4688 30.7434 20.2734C31.1497 18.2578 31.7044 16.7578 32.5169 15.4531C33.6965 13.5781 33.884 12.9375 33.9934 10.4688C34.0403 9.44531 34.1184 8.51562 34.1887 8.24219C34.3372 7.625 34.7903 6.66406 35.2122 6.07031C35.6184 5.49219 35.6497 5.19531 35.3294 4.83594C35.0872 4.57031 34.6887 4.5 34.3528 4.67969C34.1575 4.78125 33.4934 5.73438 33.2044 6.32031C32.634 7.46875 32.509 8.09375 32.4231 10.2656C32.3762 11.3281 32.3137 12.0781 32.2278 12.3828C32.0715 12.9766 31.6653 13.8438 31.2669 14.4297C30.5247 15.5312 29.8528 17.1484 29.4231 18.9141C28.9465 20.875 28.8684 21.5469 28.8762 23.5938C28.8762 25.3672 28.884 25.4844 29.1731 27.0703C29.3372 27.9688 29.4856 28.8594 29.509 29.0312L29.5481 29.3594L28.5481 29.5938C25.3684 30.3516 23.4622 30.5703 20.0403 30.5703C17.6184 30.5625 16.0247 30.4375 14.2512 30.1172C12.8606 29.8594 10.845 29.3906 10.759 29.3047C10.72 29.2656 10.7981 28.6641 10.9309 27.9219C11.3528 25.5312 11.4231 24.9297 11.4309 23.6328C11.4465 20.5312 10.5715 17.0312 9.24341 14.8672C8.01685 12.875 7.89967 12.4844 7.81373 10.0781C7.75123 8.24219 7.66529 7.74219 7.22779 6.70312C6.85279 5.82031 6.14185 4.77344 5.81373 4.64062C5.4856 4.5 5.4856 4.5 5.15748 4.67188Z" fill="#FCFBF8"/>
<path d="M19.6804 15.0703C19.4929 15.2188 19.4929 15.2422 19.4695 16.8828L19.446 18.5469L19.1804 18.9141C18.6335 19.6484 17.5789 20.2812 16.3757 20.5859C15.446 20.8203 14.571 20.9062 14.4929 20.7734C14.4539 20.7266 14.4226 20.3672 14.4226 19.9844C14.4148 19.3438 14.3992 19.2656 14.2273 19.1328C13.8601 18.8359 13.3523 19.0234 13.2351 19.5C13.1414 19.875 13.2664 20.9844 13.446 21.4062C13.6882 21.9609 13.8132 22.0312 14.6179 22.0312C16.2664 22.0312 18.0867 21.4609 19.157 20.6172L19.4539 20.375V22.1797V23.9844L18.9539 24.5078C18.6804 24.8047 18.2585 25.1562 18.0164 25.3047C17.2117 25.7891 16.0398 26.1328 15.0007 26.1875L14.4929 26.2109L14.4382 25.8984C14.407 25.7266 14.3992 25.4062 14.4226 25.1953C14.4617 24.875 14.4382 24.7656 14.2976 24.5859C14.0945 24.3281 13.7039 24.2969 13.4304 24.5234C13.2507 24.6641 13.2429 24.7266 13.2507 25.5234C13.2507 26.2031 13.282 26.4375 13.4148 26.7266C13.6882 27.3438 13.8132 27.4219 14.5164 27.4219C16.1335 27.4141 17.7117 26.9688 18.8835 26.1719L19.4539 25.7812V27.4219C19.4539 28.4531 19.4851 29.125 19.5398 29.2422C19.6257 29.4375 19.907 29.6094 20.1179 29.6094C20.2976 29.6094 20.6101 29.4375 20.6804 29.3047C20.7117 29.2344 20.7585 28.4141 20.782 27.4766L20.821 25.7812L21.2117 26.0625C22.3679 26.8906 23.7039 27.3203 25.407 27.3984L26.321 27.4453L26.5476 27.2031C26.8445 26.8828 27.032 26.1953 27.032 25.4141C27.032 24.8984 27.0007 24.75 26.8679 24.5781C26.6726 24.3359 26.282 24.3047 26.0164 24.5156C25.8679 24.6406 25.8445 24.7344 25.8289 25.375C25.821 25.7734 25.7742 26.125 25.7351 26.1641C25.696 26.2109 25.3992 26.2109 25.0007 26.1641C23.2898 25.9766 22.1257 25.4453 21.2117 24.4375L20.782 23.9609V22.1797V20.4062L21.3132 20.7578C22.4851 21.5547 23.7351 21.9375 25.3601 22.0078L26.3914 22.0547L26.6257 21.7266C26.9148 21.3281 27.032 20.8281 27.032 19.9922C27.032 19.4297 27.0085 19.3516 26.8367 19.1797C26.6492 18.9922 26.3914 18.9375 26.1335 19.0312C25.9539 19.1016 25.7664 19.5078 25.8289 19.7031C25.8523 19.7891 25.8523 20.0938 25.821 20.3672L25.7664 20.875L25.1726 20.8203C23.3992 20.6562 21.8679 19.9375 21.0476 18.8828L20.7898 18.5547L20.7664 16.8906C20.7429 15.2422 20.7429 15.2188 20.5554 15.0703C20.4539 14.9922 20.2585 14.9219 20.1179 14.9219C19.9773 14.9219 19.782 14.9922 19.6804 15.0703Z" fill="#FCFBF8"/>
<path d="M35.0391 18.211C34.7266 18.2969 32.375 20.6563 32.3047 20.9531C32.2734 21.0781 32.2734 21.2656 32.3047 21.3828C32.375 21.6797 34.8047 24.1094 35.1016 24.1797C35.7109 24.336 36.2891 23.7578 36.1406 23.1563C36.1094 23.0391 35.8906 22.7422 35.6484 22.4922L35.2109 22.0313H37.1016H39L39.2656 21.7656C39.4531 21.5781 39.5312 21.4297 39.5312 21.2578C39.5312 20.9531 39.3438 20.5781 39.1484 20.4688C39.0547 20.4219 38.2422 20.3906 37.0703 20.3906H35.1406L35.6172 19.8828C36.0547 19.4141 36.0938 19.336 36.0938 19.0235C36.0938 18.4453 35.6016 18.0625 35.0391 18.211Z" fill="#FCFBF8"/>
<path d="M4.19531 18.3982C3.78125 18.8201 3.875 19.2967 4.50781 19.9373L4.95312 20.3904H2.97656H1L0.773438 20.617C0.59375 20.7967 0.546875 20.9138 0.546875 21.1717C0.546875 21.5779 0.648438 21.7654 0.9375 21.9138C1.11719 22.0076 1.51562 22.031 3.02344 22.031H4.875L4.42188 22.492C4.03906 22.8826 3.96094 23.0076 3.92969 23.2967C3.89844 23.5857 3.92188 23.6795 4.10156 23.8904C4.35938 24.2029 4.72656 24.281 5.10156 24.1013C5.50781 23.9138 7.70312 21.656 7.75 21.3748C7.84375 20.906 7.69531 20.6951 6.42188 19.4295L5.1875 18.2029H4.78906C4.47656 18.2029 4.35938 18.242 4.19531 18.3982Z" fill="#FCFBF8"/>
</svg>
