<svg width="40" height="40" viewBox="0 0 40 40" fill="none" xmlns="http://www.w3.org/2000/svg">
<path d="M32.3203 6.28125C31.5547 6.69531 30.4766 7.95313 29.9219 9.10156C29.4766 10.0078 29.2422 10.8828 29.1719 11.9766L29.1172 12.7578L29.3047 12.7031C29.4062 12.6797 29.7812 12.6172 30.125 12.5703L30.7656 12.4844L30.8125 11.9375C30.9688 10.375 31.7734 8.82813 32.9297 7.88281C33.1484 7.70313 33.3594 7.48438 33.4141 7.39063C33.7969 6.72656 33 5.91406 32.3203 6.28125Z" fill="#FCFBF8"/>
<path d="M11.2674 8.28951C8.90026 8.56295 6.50182 9.51607 4.61119 10.9301C3.54088 11.7348 2.25963 13.1879 1.54869 14.3989C-0.966931 18.7036 0.0565062 24.1254 3.94713 27.1489C7.43151 29.852 12.1346 30.0161 15.7831 27.5551C17.1815 26.6098 18.3846 24.9458 18.7831 23.3989C19.2362 21.6176 18.7909 19.0004 17.7206 17.1645C17.3378 16.5083 16.4549 15.5629 15.8299 15.1411C14.0331 13.9145 11.5487 13.6645 9.26744 14.4848C6.88463 15.3364 5.40026 17.2895 5.39244 19.5864C5.39244 20.6801 5.75963 21.7036 6.47057 22.5473C7.30651 23.5551 8.53307 24.1411 9.92369 24.2036C10.9159 24.2426 11.5487 24.1098 12.3534 23.7114C13.0409 23.3598 13.5487 22.852 13.8612 22.1879C14.0799 21.7348 14.1034 21.602 14.1034 20.977C14.1034 20.3442 14.0799 20.2348 13.8768 19.8598C13.2831 18.7973 12.0721 18.2583 10.9393 18.5473C10.2362 18.727 10.0253 18.7114 9.75963 18.4458C9.29088 17.977 9.57213 17.3833 10.369 17.1645C11.5096 16.852 12.3221 16.9301 13.3534 17.4301C15.0799 18.2817 15.9784 20.1801 15.5096 21.9848C15.1737 23.2583 14.1815 24.4536 12.9628 25.0551C11.9393 25.5629 11.119 25.727 9.92369 25.6879C9.08776 25.6567 8.83776 25.6098 8.20494 25.3989C7.15807 25.0473 6.48619 24.6254 5.70494 23.8364C4.38463 22.5004 3.85338 21.1333 3.93151 19.2973C4.06432 16.1645 6.33776 13.6176 9.71276 12.8129C12.244 12.2114 14.7284 12.6333 16.7596 14.0083C17.7909 14.7114 18.8924 16.0551 19.4471 17.2973C19.9393 18.3911 20.3924 20.1333 20.3924 20.9458C20.3924 21.1098 20.4237 21.2583 20.4628 21.2817C20.494 21.3051 20.8768 21.0864 21.2987 20.7973C22.3221 20.1098 23.4862 18.9379 24.1893 17.8911C24.8534 16.8989 25.3924 15.9926 25.3924 15.8442C25.3924 15.7036 24.4237 14.2817 23.869 13.5864C21.8299 11.0629 19.0799 9.27388 16.2049 8.58638C14.7206 8.23482 12.7596 8.11763 11.2674 8.28951Z" fill="#FCFBF8"/>
<path d="M36.9922 10.3906C36.1953 10.5 35.0156 10.8984 34.2969 11.3203C33.6719 11.6797 32.5781 12.5312 32.5781 12.6562C32.5781 12.6953 32.7656 12.7812 32.9922 12.8516C33.2109 12.9297 33.5859 13.0781 33.8125 13.1797L34.2344 13.375L34.5547 13.1328C35.6797 12.2891 37.3359 11.8359 38.7031 12.0156C39.3672 12.1016 39.5547 12.0703 39.8047 11.8203C39.9609 11.6641 40 11.5391 40 11.25C40 10.8281 39.8125 10.5938 39.375 10.4688C38.9844 10.3594 37.6094 10.3125 36.9922 10.3906Z" fill="#FCFBF8"/>
<path d="M30.1094 14.0549C28.6719 14.2893 27.6094 15.0471 26.8203 16.4065C25.4297 18.7893 24.7969 19.6643 23.6484 20.758C22.9141 21.4533 21.5078 22.4612 20.7578 22.8205C20.4922 22.9533 20.375 23.0627 20.3438 23.2033C19.6094 26.7112 16.7734 29.469 12.8984 30.4299C10.3359 31.0627 7.61719 30.7971 5.26562 29.6799C4.91406 29.508 4.58594 29.3752 4.53125 29.3752C4.39844 29.3752 2.60156 30.5315 1.77344 31.1643C1.375 31.4612 0.820312 31.9221 0.53125 32.1877C0.03125 32.6408 0 32.6877 0 33.008C0 33.258 0.0546875 33.4143 0.1875 33.5705L0.375 33.7893L12.8672 33.8127C21.4219 33.8283 25.6172 33.8127 26.1875 33.7502C27.7344 33.594 28.7109 33.1799 29.5781 32.3127C30.4453 31.4455 30.8125 30.6018 31.2578 28.4768C31.7031 26.2893 32.1797 25.4299 34.2812 23.0315C35.3359 21.8205 35.8672 20.4299 35.875 18.8674C35.8828 17.383 35.5234 16.4533 34.5625 15.5002C33.9531 14.883 33.0859 14.3987 32.2266 14.1799C31.6406 14.0315 30.6328 13.9768 30.1094 14.0549Z" fill="#FCFBF8"/>
</svg>
