<svg width="40" height="41" viewBox="0 0 40 41" fill="none" xmlns="http://www.w3.org/2000/svg">
<path d="M12.0781 6.20312L10.7422 7.53125L11.2266 8.01562L11.7188 8.50781L12.4219 7.80469L13.125 7.10156V9.42969V11.75H13.75H14.375V9.42969V7.10156L15.0781 7.80469L15.7812 8.50781L16.2734 8.01562L16.7578 7.53125L15.4219 6.20312C14.1094 4.89062 14.0859 4.875 13.75 4.875C13.4141 4.875 13.3906 4.89062 12.0781 6.20312Z" fill="#FCFBF8"/>
<path d="M28.9062 5.03125C28.7656 5.17188 28.75 5.28906 28.75 6.51562C28.75 7.99219 28.7891 8.15625 29.2344 8.5C29.6562 8.8125 30.6562 9.25 30.9609 9.25H31.25V8.71875V8.1875L30.7422 7.6875L30.2344 7.1875L30.6406 6.77344L31.0469 6.35938L31.6641 6.96094C32.3672 7.65625 32.5 7.89844 32.5 8.50781V8.9375L33.2891 8.53906C33.7266 8.32812 34.0859 8.15625 34.1016 8.17188C34.1094 8.1875 34.2266 8.40625 34.3594 8.66406L34.5938 9.14062L33.3359 9.79688L32.0703 10.4609L30.5078 10.4844C29.5781 10.5 28.9062 10.5469 28.8516 10.5938C28.6797 10.7344 28.7266 11.1875 28.9297 11.3047C29.0234 11.3672 29.9141 11.6172 30.8984 11.8672C33.0156 12.3984 33.0469 12.4141 33.1016 13.1641C33.1641 13.9297 32.9922 16.25 32.8125 17.1484C32.6094 18.1562 32.1328 19.5938 31.7578 20.3516C30.6953 22.4766 29.1719 25.2891 29.0312 25.3594C28.7266 25.5234 25.1953 26.6719 25 26.6719C24.7109 26.6719 24.5859 26.5547 24.1797 25.8516C23.2109 24.1953 21.9141 23.1484 20.1562 22.5938C19.6328 22.4375 19.4219 22.4141 18.2422 22.4141C16.9453 22.4141 16.8984 22.4219 16.1719 22.6719C15.5625 22.8828 14.4141 23.4766 13.625 23.9922C13.4688 24.0938 13.4453 24.0703 13.1719 23.625C13.0156 23.3594 12.8906 23.1328 12.8906 23.1172C12.8906 23.1016 13.0312 23.0078 13.2031 22.9141C13.375 22.8125 13.5078 22.6953 13.4922 22.6562C13.4062 22.3984 11.7656 21.6484 10.625 21.3438C9.78125 21.1172 7.71875 21.0625 6.78125 21.2344C5.07031 21.5547 3.4375 22.3594 2.21875 23.4844L1.875 23.8047V27.9141V32.0234L4.55469 33.1953C7.71094 34.5703 8.41406 34.8516 9.60938 35.2109C11.6719 35.8359 13.7031 36.125 16.0156 36.125C18.7344 36.125 20.2266 35.8828 23.3594 34.9531C24.9297 34.4844 25.875 34.3516 28.125 34.2891C31.1016 34.2031 32.7656 34.0469 35.1484 33.6172C36.9688 33.2891 37.3828 33.0781 37.7266 32.2969C38.1172 31.4141 38.125 31.0625 38.125 19.8047V9.32812L36.8281 7.23438C36.1094 6.08594 35.4609 5.08594 35.375 5.00781C35.2266 4.88281 34.9609 4.875 32.1406 4.875C29.1641 4.875 29.0547 4.88281 28.9062 5.03125ZM36.7812 29.1094C36.6172 31.0312 34.9062 32.7422 32.9922 32.9062L32.5 32.9453V32.3594V31.7734L32.9766 31.7266C34.2656 31.6094 35.4844 30.3906 35.6016 29.1016L35.6484 28.625H36.2344H36.8203L36.7812 29.1094Z" fill="#FCFBF8"/>
<path d="M4.57812 8.70312L3.24219 10.0312L3.72656 10.5156L4.21875 11.0078L4.92188 10.3047L5.625 9.60156V11.9297V14.25H6.25H6.875V11.9297V9.60156L7.57812 10.3047L8.28125 11.0078L8.77344 10.5156L9.25781 10.0312L7.92188 8.70312C6.60938 7.39062 6.58594 7.375 6.25 7.375C5.91406 7.375 5.89062 7.39062 4.57812 8.70312Z" fill="#FCFBF8"/>
<path d="M19.5781 8.70312L18.2422 10.0312L18.7266 10.5156L19.2188 11.0078L19.9219 10.3047L20.625 9.60156V11.9297V14.25H21.25H21.875V11.9297V9.60156L22.5781 10.3047L23.2812 11.0078L23.7734 10.5156L24.2578 10.0312L22.9219 8.70312C21.6094 7.39062 21.5859 7.375 21.25 7.375C20.9141 7.375 20.8906 7.39062 19.5781 8.70312Z" fill="#FCFBF8"/>
<path d="M6.65582 16.2423C6.33551 16.297 6.06207 16.3595 6.04644 16.383C6.01519 16.4142 6.20269 17.3361 6.28863 17.5861C6.30426 17.6486 6.40582 17.6564 6.61676 17.6095C6.78082 17.5783 7.04644 17.5236 7.21051 17.5001C7.47613 17.4533 7.49957 17.422 7.49957 17.1955C7.49957 16.6955 7.39801 16.1251 7.31207 16.133C7.26519 16.133 6.96832 16.1876 6.65582 16.2423Z" fill="#FCFBF8"/>
<path d="M8.65542 16.547C8.62417 17.5236 8.55386 17.4064 9.21792 17.4611C9.53824 17.4845 9.81949 17.5001 9.83511 17.4767C9.88199 17.4376 10.0695 16.2501 10.0382 16.2111C10.0226 16.1954 9.71011 16.1642 9.34292 16.1486L8.67105 16.1017L8.65542 16.547Z" fill="#FCFBF8"/>
<path d="M11.1026 17.1093C11.0088 17.4375 10.9463 17.7187 10.9698 17.7422C11.0635 17.8359 12.0713 18.1484 12.1182 18.0937C12.1885 18.0234 12.5792 17.0859 12.5792 16.9922C12.5792 16.9218 11.5557 16.5156 11.376 16.5156C11.3213 16.5156 11.2042 16.7656 11.1026 17.1093Z" fill="#FCFBF8"/>
<path d="M4.60938 16.8047C4.54688 16.8281 4.27344 16.9453 4 17.0703L3.51562 17.2891L3.80469 17.875C3.96875 18.2031 4.11719 18.4688 4.14844 18.4688C4.27344 18.4688 5.23438 17.9922 5.23438 17.9219C5.23438 17.7891 4.82812 16.75 4.77344 16.7578C4.75 16.7578 4.67188 16.7812 4.60938 16.8047Z" fill="#FCFBF8"/>
<path d="M17.9688 18.0391V18.7031H18.5859H19.1953L19.25 18.2891C19.2812 18.0703 19.3203 17.7656 19.3438 17.625L19.3906 17.375H18.6797H17.9688V18.0391Z" fill="#FCFBF8"/>
<path d="M13.5859 17.7502C13.5234 17.8674 13.375 18.1174 13.2578 18.3206L13.0469 18.6721L13.5547 19.0081C13.8359 19.1877 14.0938 19.3206 14.125 19.2971C14.1562 19.2737 14.3516 19.0471 14.5547 18.7893L14.9219 18.3206L14.6719 18.1331C14.3047 17.8596 13.7969 17.5315 13.75 17.5315C13.7266 17.5315 13.6562 17.6252 13.5859 17.7502Z" fill="#FCFBF8"/>
<path d="M15.9076 17.6873C15.6576 17.7654 15.4154 17.867 15.3685 17.9139C15.3217 17.9607 15.3529 18.1404 15.4701 18.4451C15.7826 19.2264 15.7123 19.1795 16.267 18.9998C16.5404 18.9139 16.7982 18.8279 16.8451 18.8201C16.9154 18.7967 16.8998 18.6248 16.806 18.1795C16.6576 17.4686 16.6264 17.4529 15.9076 17.6873Z" fill="#FCFBF8"/>
<path d="M20.595 17.7502C20.5403 17.8596 20.2278 18.9533 20.2513 18.9689C20.3216 19.008 21.1497 19.3518 21.2513 19.3752C21.3372 19.4064 21.4544 19.2424 21.6653 18.8205L21.9544 18.2268L21.47 18.008C20.9075 17.758 20.6419 17.6799 20.595 17.7502Z" fill="#FCFBF8"/>
<path d="M2.10938 18.2109C1.96094 18.3281 1.71875 18.5234 1.57812 18.6406L1.32031 18.8672L1.78125 19.3438L2.24219 19.8203L2.72656 19.4453C2.98438 19.2422 3.20312 19.0625 3.20312 19.0469C3.20312 18.9844 2.48438 18 2.4375 18C2.40625 18 2.25781 18.0938 2.10938 18.2109Z" fill="#FCFBF8"/>
<path d="M22.6172 19.4531L22.2344 19.9766L22.7031 20.3906L23.1641 20.8047L23.6328 20.3359L24.1016 19.8672L23.6094 19.3984C23.3438 19.1484 23.0938 18.9375 23.0625 18.9375C23.0234 18.9375 22.8281 19.1719 22.6172 19.4531Z" fill="#FCFBF8"/>
<path d="M24.3516 21.2422C24.0625 21.4375 23.8281 21.6172 23.8281 21.6406C23.8281 21.7578 24.3984 22.6875 24.4688 22.6875C24.6094 22.6875 25.5469 22.125 25.5469 22.0391C25.5469 21.9609 24.9375 20.8906 24.8984 20.8906C24.8906 20.8906 24.6406 21.0469 24.3516 21.2422Z" fill="#FCFBF8"/>
</svg>
