<svg width="24" height="24" viewBox="0 0 24 24" fill="none" xmlns="http://www.w3.org/2000/svg">
<path opacity="0.4" d="M20.4012 16.33C20.1212 17.08 19.5312 17.65 18.7612 17.91C17.6812 18.27 16.5712 18.54 15.4512 18.73C15.3412 18.75 15.2312 18.7701 15.1212 18.7801C14.9412 18.8101 14.7612 18.83 14.5812 18.85C14.3612 18.8801 14.1312 18.9 13.9012 18.92C13.2712 18.97 12.6512 19 12.0212 19C11.3812 19 10.7412 18.97 10.1112 18.91C9.84118 18.89 9.58118 18.8601 9.32118 18.82C9.17118 18.8 9.02118 18.7801 8.88118 18.76C8.77118 18.74 8.66118 18.73 8.55118 18.71C7.44118 18.53 6.34118 18.26 5.27118 17.9C4.47118 17.63 3.86118 17.06 3.59118 16.33C3.32118 15.61 3.42118 14.77 3.85118 14.05L4.98118 12.17C5.22118 11.76 5.44118 10.97 5.44118 10.49V8.63005C5.44118 5.00005 8.39118 2.05005 12.0212 2.05005C15.6412 2.05005 18.5912 5.00005 18.5912 8.63005V10.49C18.5912 10.97 18.8112 11.76 19.0612 12.17L20.1912 14.05C20.6012 14.75 20.6812 15.57 20.4012 16.33Z" fill="#26C4F8"/>
<path d="M11.9983 10.7599C11.5783 10.7599 11.2383 10.4199 11.2383 9.99989V6.89989C11.2383 6.47989 11.5783 6.13989 11.9983 6.13989C12.4183 6.13989 12.7583 6.47989 12.7583 6.89989V9.99989C12.7483 10.4199 12.4083 10.7599 11.9983 10.7599Z" fill="#26C4F8"/>
<path d="M14.8297 20.01C14.4097 21.17 13.2997 22 11.9997 22C11.2097 22 10.4297 21.68 9.87969 21.11C9.55969 20.81 9.31969 20.41 9.17969 20C9.30969 20.02 9.43969 20.03 9.57969 20.05C9.80969 20.08 10.0497 20.11 10.2897 20.13C10.8597 20.18 11.4397 20.21 12.0197 20.21C12.5897 20.21 13.1597 20.18 13.7197 20.13C13.9297 20.11 14.1397 20.1 14.3397 20.07C14.4997 20.05 14.6597 20.03 14.8297 20.01Z" fill="#26C4F8"/>
</svg>
