<svg width="48" height="48" viewBox="0 0 48 48" fill="none" xmlns="http://www.w3.org/2000/svg">
<rect x="0.5" y="0.5" width="47" height="47" rx="23.5" stroke="#26C4F8"/>
<path d="M26.6237 8.14532C25.0803 8.67019 24.2243 10.2198 24.593 11.8069C25.1428 14.1313 28.0296 14.981 29.7604 13.3252C30.1603 12.9441 30.3852 12.6004 30.5602 12.0943C31.1225 10.4572 30.2103 8.6327 28.5794 8.12658C28.0046 7.95162 27.1673 7.95787 26.6237 8.14532Z" fill="#26C4F8"/>
<path d="M23.4827 14.2813C21.6207 14.6375 20.1648 15.6935 19.3213 17.3118C18.8027 18.3053 18.559 19.2613 18.434 20.7109C18.3465 21.7981 18.3965 22.5417 18.5902 22.8228C19.2963 23.8788 20.8209 23.2227 20.6709 21.9231C20.6147 21.4857 20.7334 20.186 20.8771 19.5737C21.0458 18.8739 21.4207 18.0991 21.7831 17.7117C21.9956 17.4867 22.0581 17.443 22.0331 17.5492C21.8144 18.3365 21.6144 19.2425 21.527 19.8236C21.327 21.0983 21.402 23.8288 21.6582 24.6974C21.7644 25.0723 22.0331 25.6096 22.1955 25.7846C22.3518 25.947 22.3518 26.2469 22.1893 27.078C21.7707 29.2399 20.7084 30.7833 19.1088 31.5581C18.5465 31.8267 17.9279 32.0079 17.1219 32.1516C16.4845 32.2641 16.1096 32.4766 15.8347 32.8952C15.5723 33.2826 15.4785 33.6263 15.5285 34.0761C15.591 34.7072 15.9409 35.1946 16.5345 35.4695C16.9344 35.657 17.4218 35.6632 18.2716 35.4883C21.2458 34.8884 23.4827 33.1639 24.7449 30.4958L25.051 29.846L25.1573 30.0897C26.2195 32.6015 26.8443 35.1009 27.1255 37.9939C27.2005 38.7874 27.3317 39.1561 27.6441 39.4872C28.2752 40.1496 29.4436 40.1745 30.1185 39.5372C30.6308 39.0498 30.7121 38.55 30.5246 36.9441C30.0435 32.7515 28.6876 28.6713 26.7756 25.6783L26.5132 25.2597L26.4632 23.9788L26.4194 22.6916L26.1695 22.5229C25.8258 22.298 25.1698 21.6169 24.8698 21.1795C24.12 20.0736 23.6702 18.6677 23.5889 17.1743C23.5389 16.2871 23.6139 16.0184 24.0326 15.631C24.4637 15.2373 25.0136 15.1561 25.5259 15.4123C26.0758 15.6935 26.2445 16.0371 26.3132 16.9994C26.3382 17.3993 26.4132 17.9241 26.4694 18.1616C26.5881 18.6302 26.8756 19.3175 26.9131 19.2175C27.0068 18.9676 27.3754 16.9056 27.3754 16.6307C27.3692 15.5935 26.8881 14.6875 26.1695 14.3688C25.8883 14.2438 25.7259 14.2251 24.9073 14.2126C24.2762 14.2001 23.8139 14.2188 23.4827 14.2813Z" fill="#26C4F8"/>
<path d="M24.4694 15.5873C24.2382 15.6936 23.9695 15.9747 23.882 16.2059C23.7945 16.4309 23.7945 17.3181 23.882 17.893C24.4506 21.7045 26.9937 23.729 30.7615 23.3791C31.3801 23.3228 31.6675 23.2728 31.8737 23.1666C32.6422 22.7855 32.6985 21.7607 31.9799 21.2234C31.7862 21.0797 31.8799 21.0859 30.0929 21.1296C28.7557 21.1609 28.0372 20.9172 27.3061 20.1924C26.5938 19.4801 26.1564 18.3679 26.0877 17.0932C26.0439 16.3871 25.9877 16.1435 25.8003 15.8998C25.5253 15.5561 24.8818 15.4061 24.4694 15.5873Z" fill="#26C4F8"/>
</svg>
