<svg width="24" height="24" viewBox="0 0 24 24" fill="none" xmlns="http://www.w3.org/2000/svg">
<path d="M14.5 16.75H9.5C9.09 16.75 8.75 16.41 8.75 16C8.75 15.59 9.09 15.25 9.5 15.25H14.5C14.91 15.25 15.25 15.59 15.25 16C15.25 16.41 14.91 16.75 14.5 16.75Z" fill="#9F9C96"/>
<path d="M5.20165 10.46C5.01165 10.46 4.82165 10.38 4.67165 10.24C4.46165 10.03 4.39165 9.7 4.51165 9.42L6.37165 4.98C6.41165 4.89 6.43165 4.83 6.46165 4.78C7.94165 1.37 9.83165 0.539999 13.1716 1.82C13.3616 1.89 13.5116 2.04 13.5916 2.23C13.6716 2.42 13.6716 2.63 13.5916 2.82L10.6616 9.62C10.5416 9.89 10.2716 10.07 9.97165 10.07H7.12165C6.55165 10.07 6.01165 10.18 5.49165 10.4C5.40165 10.44 5.30165 10.46 5.20165 10.46ZM10.6116 2.75C9.37165 2.75 8.61165 3.56 7.82165 5.4C7.81165 5.43 7.79165 5.46 7.78165 5.49L6.47165 8.6C6.69165 8.58 6.90165 8.57 7.12165 8.57H9.47165L11.8816 2.97C11.4116 2.82 10.9916 2.75 10.6116 2.75Z" fill="#9F9C96"/>
<path d="M18.2883 10.27C18.2183 10.27 18.1383 10.26 18.0683 10.24C17.6983 10.13 17.2883 10.07 16.8683 10.07H9.96827C9.71827 10.07 9.47827 9.94002 9.33827 9.73002C9.20827 9.52002 9.17827 9.25002 9.27827 9.02002L12.1783 2.29002C12.3283 1.93002 12.7583 1.69002 13.1383 1.81002C13.2583 1.85002 13.3683 1.90002 13.4883 1.95002L15.8483 2.94002C17.2283 3.51002 18.1483 4.11002 18.7483 4.83002C18.8683 4.97002 18.9683 5.12002 19.0583 5.27002C19.1683 5.44002 19.2683 5.65002 19.3383 5.86002C19.3683 5.93002 19.4183 6.06002 19.4483 6.20002C19.7283 7.14002 19.5883 8.31002 18.9883 9.81002C18.8683 10.09 18.5883 10.27 18.2883 10.27ZM11.1083 8.57002H16.8783C17.1983 8.57002 17.5083 8.60002 17.8183 8.65002C18.0983 7.78002 18.1583 7.11002 17.9983 6.57002C17.9783 6.48002 17.9583 6.44002 17.9483 6.40002C17.8883 6.24002 17.8483 6.15002 17.7983 6.07002C17.7283 5.96002 17.6783 5.87002 17.5983 5.78002C17.1683 5.26002 16.4083 4.78002 15.2783 4.32002L13.2983 3.49002L11.1083 8.57002Z" fill="#9F9C96"/>
<path d="M15.9 22.75H8.1C7.82 22.75 7.56 22.73 7.3 22.7C3.79 22.46 1.79 20.46 1.55 16.91C1.52 16.69 1.5 16.42 1.5 16.15V14.2C1.5 11.95 2.84 9.92001 4.91 9.02001C5.61 8.72001 6.36 8.57001 7.13 8.57001H16.89C17.46 8.57001 18.01 8.65001 18.52 8.81001C20.87 9.52001 22.52 11.74 22.52 14.2V16.15C22.52 16.37 22.51 16.58 22.5 16.78C22.28 20.69 20 22.75 15.9 22.75ZM7.12 10.07C6.55 10.07 6.01 10.18 5.49 10.4C3.97 11.06 2.99 12.55 2.99 14.2V16.15C2.99 16.36 3.01 16.57 3.03 16.77C3.22 19.62 4.62 21.02 7.43 21.21C7.68 21.24 7.88 21.26 8.09 21.26H15.89C19.19 21.26 20.81 19.81 20.97 16.71C20.98 16.53 20.99 16.35 20.99 16.15V14.2C20.99 12.39 19.78 10.77 18.06 10.24C17.69 10.13 17.28 10.07 16.86 10.07H7.12Z" fill="#9F9C96"/>
<path d="M2.23828 14.95C1.82828 14.95 1.48828 14.61 1.48828 14.2V11.27C1.48828 8.11998 3.71828 5.39998 6.79828 4.79998C7.06828 4.74998 7.34828 4.84998 7.52828 5.05998C7.69828 5.26998 7.74828 5.56998 7.63828 5.81998L5.88828 9.99998C5.80828 10.18 5.66828 10.32 5.49828 10.4C3.97828 11.06 2.99828 12.55 2.99828 14.2C2.98828 14.61 2.65828 14.95 2.23828 14.95ZM5.59828 6.81998C4.31828 7.53998 3.38828 8.79998 3.09828 10.27C3.53828 9.81998 4.04828 9.43998 4.62828 9.15998L5.59828 6.81998Z" fill="#9F9C96"/>
<path d="M21.7611 14.95C21.3511 14.95 21.0111 14.61 21.0111 14.2C21.0111 12.39 19.8011 10.77 18.0811 10.24C17.8811 10.18 17.7111 10.04 17.6211 9.85002C17.5311 9.66002 17.5211 9.44002 17.6011 9.25002C18.0711 8.08002 18.1911 7.23002 18.0011 6.57002C17.9811 6.48002 17.9611 6.44002 17.9511 6.40002C17.8211 6.11002 17.8911 5.77002 18.1211 5.55002C18.3511 5.33002 18.7011 5.28002 18.9811 5.43002C21.1611 6.57002 22.5111 8.81002 22.5111 11.27V14.2C22.5111 14.61 22.1711 14.95 21.7611 14.95ZM19.2511 9.09002C19.8811 9.38002 20.4411 9.79002 20.9111 10.28C20.7211 9.30002 20.2511 8.41002 19.5611 7.71002C19.5111 8.13002 19.4111 8.59002 19.2511 9.09002Z" fill="#9F9C96"/>
</svg>
