<svg width="48" height="48" viewBox="0 0 48 48" fill="none" xmlns="http://www.w3.org/2000/svg">
<rect x="0.5" y="0.5" width="47" height="47" rx="23.5" stroke="#26C4F8"/>
<path d="M27.6364 14.6667C28.8413 14.6667 29.8181 13.7713 29.8181 12.6667C29.8181 11.5622 28.8413 10.6667 27.6364 10.6667H20.3636C19.1587 10.6667 18.1818 11.5622 18.1818 12.6667C18.1818 13.7713 19.1587 14.6667 20.3636 14.6667M28.3279 14.5642C30.4885 18.5255 32 21.8365 32 26.3695V32.0001C32 36.4125 30.9953 37.3334 26.1819 37.3334H21.8181C17.0046 37.3334 16 36.4125 16 32.0001V26.3695C16 21.8365 17.4757 18.5142 19.6364 14.5529" stroke="#26C4F8" stroke-width="1.5" stroke-linecap="round" stroke-linejoin="round"/>
<path d="M16 24C16.7619 24.6667 18.7894 24.6348 19.9791 24.3719C20.8086 24.1887 21.7024 24.4036 22.2645 25.0185L23.364 26.2211C23.9964 26.9128 24.9551 27.2412 25.8993 27.0897L27.2908 26.8665C28.0563 26.7437 28.8176 27.0539 29.3387 27.6073C30.9635 29.3333 32 29.3333 32 29.3333" stroke="#26C4F8" stroke-width="1.5" stroke-linejoin="round"/>
</svg>
